<svg xmlns="http://www.w3.org/2000/svg" xmlns:xlink="http://www.w3.org/1999/xlink" width="1920" zoomAndPan="magnify" viewBox="0 0 1440 809.999993" height="1080" preserveAspectRatio="xMidYMid meet" version="1.0"><defs><clipPath id="e1a4e13dc8"><path d="M 13.234375 220.625 L 581.191406 220.625 L 581.191406 473.929688 L 13.234375 473.929688 Z M 13.234375 220.625 " clip-rule="nonzero"/></clipPath><clipPath id="993846ff6c"><path d="M 13.234375 468.066406 L 13.234375 226.484375 C 13.234375 224.929688 13.851562 223.441406 14.953125 222.339844 C 16.050781 221.242188 17.542969 220.625 19.097656 220.625 L 575.257812 220.625 C 576.8125 220.625 578.304688 221.242188 579.40625 222.339844 C 580.503906 223.441406 581.121094 224.929688 581.121094 226.484375 L 581.121094 468.066406 C 581.121094 469.621094 580.503906 471.113281 579.40625 472.210938 C 578.304688 473.308594 576.8125 473.929688 575.257812 473.929688 L 19.097656 473.929688 C 17.542969 473.929688 16.050781 473.308594 14.953125 472.210938 C 13.851562 471.113281 13.234375 469.621094 13.234375 468.066406 Z M 13.234375 468.066406 " clip-rule="nonzero"/></clipPath><clipPath id="d8b7c6ac4f"><path d="M 0.234375 0.625 L 568.160156 0.625 L 568.160156 253.929688 L 0.234375 253.929688 Z M 0.234375 0.625 " clip-rule="nonzero"/></clipPath><clipPath id="2a3a169759"><path d="M 0.234375 248.066406 L 0.234375 6.484375 C 0.234375 4.929688 0.851562 3.441406 1.953125 2.339844 C 3.050781 1.242188 4.542969 0.625 6.097656 0.625 L 562.257812 0.625 C 563.8125 0.625 565.304688 1.242188 566.40625 2.339844 C 567.503906 3.441406 568.121094 4.929688 568.121094 6.484375 L 568.121094 248.066406 C 568.121094 249.621094 567.503906 251.113281 566.40625 252.210938 C 565.304688 253.308594 563.8125 253.929688 562.257812 253.929688 L 6.097656 253.929688 C 4.542969 253.929688 3.050781 253.308594 1.953125 252.210938 C 0.851562 251.113281 0.234375 249.621094 0.234375 248.066406 Z M 0.234375 248.066406 " clip-rule="nonzero"/></clipPath><clipPath id="cb4f2ef8ac"><rect x="0" width="569" y="0" height="254"/></clipPath><clipPath id="59fac4a1e0"><path d="M 13.234375 220.664062 L 581.316406 220.664062 L 581.316406 473.925781 L 13.234375 473.925781 Z M 13.234375 220.664062 " clip-rule="nonzero"/></clipPath><clipPath id="b2a4d13607"><path d="M 13.234375 468.066406 L 13.234375 226.488281 C 13.234375 224.933594 13.851562 223.441406 14.953125 222.34375 C 16.050781 221.246094 17.542969 220.625 19.097656 220.625 L 575.25 220.625 C 576.804688 220.625 578.296875 221.246094 579.394531 222.34375 C 580.496094 223.441406 581.113281 224.933594 581.113281 226.488281 L 581.113281 468.066406 C 581.113281 469.621094 580.496094 471.109375 579.394531 472.210938 C 578.296875 473.308594 576.804688 473.925781 575.25 473.925781 L 19.097656 473.925781 C 17.542969 473.925781 16.050781 473.308594 14.953125 472.210938 C 13.851562 471.109375 13.234375 469.621094 13.234375 468.066406 Z M 13.234375 468.066406 " clip-rule="nonzero"/></clipPath><clipPath id="dca909f312"><path d="M 369 31 L 521 31 L 521 170.3125 L 369 170.3125 Z M 369 31 " clip-rule="nonzero"/></clipPath><clipPath id="eebdc5f6de"><path d="M 381 0.238281 L 510 0.238281 L 510 29 L 381 29 Z M 381 0.238281 " clip-rule="nonzero"/></clipPath><clipPath id="8f0e563a70"><path d="M 62 514.679688 L 215 514.679688 L 215 654 L 62 654 Z M 62 514.679688 " clip-rule="nonzero"/></clipPath><clipPath id="ec3c9a9abf"><path d="M 383 519.507812 L 535 519.507812 L 535 658 L 383 658 Z M 383 519.507812 " clip-rule="nonzero"/></clipPath><clipPath id="de92bcf502"><path d="M 395 661 L 524 661 L 524 689.519531 L 395 689.519531 Z M 395 661 " clip-rule="nonzero"/></clipPath><clipPath id="f118c828f2"><path d="M 47 31 L 200 31 L 200 170.3125 L 47 170.3125 Z M 47 31 " clip-rule="nonzero"/></clipPath><clipPath id="f4d4c4a2fc"><path d="M 59 0.238281 L 188 0.238281 L 188 29 L 59 29 Z M 59 0.238281 " clip-rule="nonzero"/></clipPath><clipPath id="0671bc578f"><rect x="0" width="594" y="0" height="690"/></clipPath></defs><g transform="matrix(1, 0, 0, 1, 423, 60)"><g clip-path="url(#0671bc578f)"><g clip-path="url(#e1a4e13dc8)"><g clip-path="url(#993846ff6c)"><g transform="matrix(1, 0, 0, 1, 13, 220)"><g clip-path="url(#cb4f2ef8ac)"><g clip-path="url(#d8b7c6ac4f)"><g clip-path="url(#2a3a169759)"><path fill="#f5f5dc" d="M 0.234375 253.929688 L 0.234375 0.625 L 568.191406 0.625 L 568.191406 253.929688 Z M 0.234375 253.929688 " fill-opacity="1" fill-rule="nonzero"/></g></g></g></g></g></g><g clip-path="url(#59fac4a1e0)"><g clip-path="url(#b2a4d13607)"><path stroke-linecap="butt" transform="matrix(0, -0.586263, 0.586263, 0, 13.234496, 473.927153)" fill="none" stroke-linejoin="miter" d="M 9.996785 -0.000206453 L 422.061094 -0.000206453 C 424.712954 -0.000206453 427.258206 1.052542 429.130498 2.931497 C 431.002791 4.80379 432.062202 7.349042 432.062202 10.000902 L 432.062202 958.640317 C 432.062202 961.292176 431.002791 963.837428 429.130498 965.709721 C 427.258206 967.588677 424.712954 968.641425 422.061094 968.641425 L 9.996785 968.641425 C 7.344926 968.641425 4.806337 967.588677 2.927381 965.709721 C 1.055088 963.837428 0.00234006 961.292176 0.00234006 958.640317 L 0.00234006 10.000902 C 0.00234006 7.349042 1.055088 4.80379 2.927381 2.931497 C 4.806337 1.052542 7.344926 -0.000206453 9.996785 -0.000206453 Z M 9.996785 -0.000206453 " stroke="#000000" stroke-width="10" stroke-opacity="1" stroke-miterlimit="4"/></g></g><path fill="#f5f5dc" d="M 410.988281 15.601562 L 426.550781 15.601562 L 426.550781 33.046875 L 410.988281 33.046875 Z M 410.988281 15.601562 " fill-opacity="1" fill-rule="nonzero"/><path fill="#000000" d="M 428.226562 34.726562 L 409.304688 34.726562 L 409.304688 13.925781 L 428.226562 13.925781 Z M 412.664062 31.371094 L 424.871094 31.371094 L 424.871094 17.28125 L 412.664062 17.28125 Z M 412.664062 31.371094 " fill-opacity="1" fill-rule="nonzero"/><path fill="#f5f5dc" d="M 464.144531 15.601562 L 479.707031 15.601562 L 479.707031 33.046875 L 464.144531 33.046875 Z M 464.144531 15.601562 " fill-opacity="1" fill-rule="nonzero"/><path fill="#000000" d="M 481.382812 34.726562 L 462.460938 34.726562 L 462.460938 13.925781 L 481.382812 13.925781 Z M 465.820312 31.371094 L 478.027344 31.371094 L 478.027344 17.28125 L 465.820312 17.28125 Z M 465.820312 31.371094 " fill-opacity="1" fill-rule="nonzero"/><path fill="#f5f5dc" d="M 507.621094 63.515625 L 518.695312 134.132812 C 521.570312 152.449219 512.027344 168.378906 497.175781 168.378906 L 393.316406 168.378906 C 378.460938 168.378906 368.921875 152.449219 371.792969 134.132812 L 382.871094 63.515625 C 385.554688 46.371094 399.988281 33.523438 415.308594 33.523438 L 475.1875 33.523438 C 490.5 33.523438 504.933594 46.371094 507.621094 63.515625 Z M 507.621094 63.515625 " fill-opacity="1" fill-rule="nonzero"/><g clip-path="url(#dca909f312)"><path fill="#000000" d="M 497.175781 170.0625 L 393.316406 170.0625 C 387 170.0625 381.160156 167.304688 376.878906 162.304688 C 370.949219 155.371094 368.429688 144.746094 370.136719 133.875 L 381.207031 63.257812 C 383.972656 45.644531 398.945312 31.847656 415.300781 31.847656 L 475.179688 31.847656 C 491.535156 31.847656 506.515625 45.644531 509.273438 63.257812 L 520.351562 133.878906 C 522.054688 144.75 519.535156 155.375 513.609375 162.308594 C 509.335938 167.304688 503.496094 170.0625 497.175781 170.0625 Z M 415.300781 35.199219 C 400.554688 35.199219 387.039062 47.753906 384.523438 63.777344 L 373.453125 134.390625 C 371.898438 144.304688 374.132812 153.925781 379.433594 160.117188 C 383.117188 164.425781 387.921875 166.707031 393.320312 166.707031 L 497.179688 166.707031 C 502.578125 166.707031 507.378906 164.425781 511.0625 160.121094 C 516.363281 153.933594 518.597656 144.3125 517.039062 134.398438 L 505.964844 63.777344 C 503.449219 47.753906 489.933594 35.199219 475.1875 35.199219 Z M 415.300781 35.199219 " fill-opacity="1" fill-rule="nonzero"/></g><path fill="#f5f5dc" d="M 507.246094 19.417969 C 505.917969 24.4375 500.730469 27.429688 495.625 26.332031 C 462.414062 19.195312 428.066406 19.195312 394.863281 26.332031 C 389.757812 27.429688 384.570312 24.4375 383.242188 19.417969 C 381.914062 14.402344 385.328125 9.152344 390.914062 7.953125 C 426.722656 0.261719 463.765625 0.261719 499.574219 7.953125 C 505.160156 9.152344 508.578125 14.402344 507.246094 19.417969 Z M 507.246094 19.417969 " fill-opacity="1" fill-rule="nonzero"/><g clip-path="url(#eebdc5f6de)"><path fill="#000000" d="M 497.78125 28.238281 C 496.953125 28.238281 496.117188 28.152344 495.273438 27.972656 C 462.074219 20.84375 428.40625 20.84375 395.214844 27.972656 C 389.144531 29.269531 383.167969 25.707031 381.621094 19.847656 C 380.886719 17.082031 381.332031 14.171875 382.875 11.664062 C 384.539062 8.957031 387.335938 7.007812 390.5625 6.316406 C 426.84375 -1.480469 463.636719 -1.480469 499.925781 6.3125 C 503.152344 7.003906 505.949219 8.949219 507.613281 11.65625 C 509.15625 14.171875 509.601562 17.074219 508.871094 19.839844 C 507.53125 24.894531 502.917969 28.238281 497.78125 28.238281 Z M 445.246094 19.269531 C 462.203125 19.269531 479.148438 21.078125 495.984375 24.695312 C 500.300781 25.621094 504.535156 23.113281 505.632812 18.992188 C 506.125 17.121094 505.816406 15.140625 504.761719 13.417969 C 503.578125 11.492188 501.5625 10.101562 499.230469 9.597656 C 463.40625 1.902344 427.089844 1.902344 391.273438 9.597656 C 388.941406 10.09375 386.925781 11.492188 385.742188 13.417969 C 384.683594 15.140625 384.378906 17.121094 384.871094 18.992188 C 385.960938 23.113281 390.203125 25.621094 394.519531 24.695312 C 411.339844 21.078125 428.292969 19.269531 445.246094 19.269531 Z M 445.246094 19.269531 " fill-opacity="1" fill-rule="nonzero"/></g><path fill="#f5f5dc" d="M 172.640625 669.394531 L 157.074219 669.394531 L 157.074219 651.949219 L 172.640625 651.949219 Z M 172.640625 669.394531 " fill-opacity="1" fill-rule="nonzero"/><path fill="#000000" d="M 155.398438 650.265625 L 174.320312 650.265625 L 174.320312 671.070312 L 155.398438 671.070312 Z M 170.964844 653.625 L 158.757812 653.625 L 158.757812 667.710938 L 170.964844 667.710938 Z M 170.964844 653.625 " fill-opacity="1" fill-rule="nonzero"/><path fill="#f5f5dc" d="M 119.480469 669.394531 L 103.917969 669.394531 L 103.917969 651.949219 L 119.480469 651.949219 Z M 119.480469 669.394531 " fill-opacity="1" fill-rule="nonzero"/><path fill="#000000" d="M 102.242188 650.265625 L 121.164062 650.265625 L 121.164062 671.070312 L 102.242188 671.070312 Z M 117.808594 653.625 L 105.601562 653.625 L 105.601562 667.710938 L 117.808594 667.710938 Z M 117.808594 653.625 " fill-opacity="1" fill-rule="nonzero"/><path fill="#f5f5dc" d="M 76.007812 621.476562 L 64.929688 550.859375 C 62.058594 532.542969 71.597656 516.613281 86.453125 516.613281 L 190.3125 516.613281 C 205.164062 516.613281 214.707031 532.542969 211.832031 550.859375 L 200.757812 621.476562 C 198.070312 638.625 183.636719 651.46875 168.316406 651.46875 L 108.4375 651.46875 C 93.125 651.46875 78.691406 638.625 76.007812 621.476562 Z M 76.007812 621.476562 " fill-opacity="1" fill-rule="nonzero"/><g clip-path="url(#8f0e563a70)"><path fill="#000000" d="M 86.453125 514.929688 L 190.3125 514.929688 C 196.628906 514.929688 202.464844 517.691406 206.746094 522.691406 C 212.675781 529.625 215.195312 540.25 213.488281 551.121094 L 202.417969 621.734375 C 199.652344 639.347656 184.679688 653.144531 168.324219 653.144531 L 108.445312 653.144531 C 92.089844 653.144531 77.109375 639.347656 74.351562 621.734375 L 63.273438 551.113281 C 61.570312 540.242188 64.089844 529.617188 70.015625 522.683594 C 74.289062 517.691406 80.128906 514.929688 86.453125 514.929688 Z M 168.324219 649.792969 C 183.070312 649.792969 196.585938 637.242188 199.101562 621.21875 L 210.171875 550.601562 C 211.726562 540.6875 209.492188 531.066406 204.195312 524.878906 C 200.511719 520.570312 195.703125 518.289062 190.304688 518.289062 L 86.445312 518.289062 C 81.046875 518.289062 76.246094 520.570312 72.5625 524.871094 C 67.261719 531.0625 65.027344 540.679688 66.585938 550.59375 L 77.660156 621.21875 C 80.175781 637.242188 93.691406 649.792969 108.4375 649.792969 Z M 168.324219 649.792969 " fill-opacity="1" fill-rule="nonzero"/></g><path fill="#f5f5dc" d="M 76.378906 665.578125 C 77.707031 660.558594 82.894531 657.566406 88 658.664062 C 121.210938 665.796875 155.558594 665.796875 188.761719 658.664062 C 193.867188 657.566406 199.054688 660.558594 200.382812 665.578125 C 201.714844 670.589844 198.296875 675.84375 192.710938 677.039062 C 156.902344 684.734375 119.859375 684.734375 84.050781 677.039062 C 78.464844 675.84375 75.050781 670.589844 76.378906 665.578125 Z M 76.378906 665.578125 " fill-opacity="1" fill-rule="nonzero"/><path fill="#000000" d="M 85.847656 656.753906 C 86.671875 656.753906 87.507812 656.839844 88.351562 657.019531 C 121.550781 664.148438 155.21875 664.148438 188.410156 657.019531 C 194.480469 655.722656 200.457031 659.289062 202.007812 665.144531 C 202.738281 667.910156 202.292969 670.824219 200.75 673.332031 C 199.085938 676.035156 196.289062 677.984375 193.0625 678.675781 C 156.78125 686.476562 119.988281 686.476562 83.699219 678.683594 C 80.472656 677.992188 77.675781 676.042969 76.011719 673.335938 C 74.46875 670.824219 74.023438 667.917969 74.757812 665.152344 C 76.09375 660.097656 80.707031 656.753906 85.847656 656.753906 Z M 138.378906 665.722656 C 121.421875 665.722656 104.476562 663.914062 87.640625 660.296875 C 83.328125 659.375 79.089844 661.882812 77.996094 666.003906 C 77.503906 667.871094 77.808594 669.851562 78.863281 671.574219 C 80.046875 673.503906 82.0625 674.894531 84.398438 675.398438 C 120.21875 683.089844 156.535156 683.089844 192.351562 675.398438 C 194.6875 674.898438 196.699219 673.503906 197.882812 671.574219 C 198.941406 669.851562 199.246094 667.871094 198.753906 666.003906 C 197.664062 661.882812 193.421875 659.375 189.109375 660.296875 C 172.285156 663.914062 155.332031 665.722656 138.378906 665.722656 Z M 138.378906 665.722656 " fill-opacity="1" fill-rule="nonzero"/><path fill="#f5f5dc" d="M 493.457031 674.222656 L 477.890625 674.222656 L 477.890625 656.773438 L 493.457031 656.773438 Z M 493.457031 674.222656 " fill-opacity="1" fill-rule="nonzero"/><path fill="#000000" d="M 476.21875 655.09375 L 495.140625 655.09375 L 495.140625 675.898438 L 476.21875 675.898438 Z M 491.78125 658.449219 L 479.574219 658.449219 L 479.574219 672.539062 L 491.78125 672.539062 Z M 491.78125 658.449219 " fill-opacity="1" fill-rule="nonzero"/><path fill="#f5f5dc" d="M 440.300781 674.222656 L 424.734375 674.222656 L 424.734375 656.773438 L 440.300781 656.773438 Z M 440.300781 674.222656 " fill-opacity="1" fill-rule="nonzero"/><path fill="#000000" d="M 423.058594 655.09375 L 441.984375 655.09375 L 441.984375 675.898438 L 423.058594 675.898438 Z M 438.625 658.449219 L 426.417969 658.449219 L 426.417969 672.539062 L 438.625 672.539062 Z M 438.625 658.449219 " fill-opacity="1" fill-rule="nonzero"/><path fill="#f5f5dc" d="M 396.824219 626.304688 L 385.746094 555.6875 C 382.875 537.371094 392.417969 521.441406 407.269531 521.441406 L 511.128906 521.441406 C 525.984375 521.441406 535.523438 537.371094 532.652344 555.6875 L 521.574219 626.304688 C 518.886719 643.449219 504.453125 656.296875 489.136719 656.296875 L 429.257812 656.296875 C 413.945312 656.296875 399.511719 643.449219 396.824219 626.304688 Z M 396.824219 626.304688 " fill-opacity="1" fill-rule="nonzero"/><g clip-path="url(#ec3c9a9abf)"><path fill="#000000" d="M 407.269531 519.757812 L 511.128906 519.757812 C 517.445312 519.757812 523.28125 522.515625 527.566406 527.515625 C 533.496094 534.453125 536.015625 545.078125 534.308594 555.945312 L 523.238281 626.5625 C 520.472656 644.175781 505.496094 657.972656 489.140625 657.972656 L 429.261719 657.972656 C 412.90625 657.972656 397.929688 644.175781 395.167969 626.5625 L 384.09375 555.941406 C 382.390625 545.070312 384.910156 534.445312 390.835938 527.511719 C 395.109375 522.515625 400.945312 519.757812 407.269531 519.757812 Z M 489.140625 654.621094 C 503.890625 654.621094 517.40625 642.066406 519.917969 626.042969 L 530.988281 555.429688 C 532.542969 545.515625 530.3125 535.894531 525.011719 529.703125 C 521.328125 525.394531 516.519531 523.117188 511.121094 523.117188 L 407.261719 523.117188 C 401.863281 523.117188 397.0625 525.394531 393.378906 529.699219 C 388.082031 535.886719 385.847656 545.507812 387.402344 555.421875 L 398.480469 626.042969 C 400.992188 642.066406 414.511719 654.621094 429.257812 654.621094 Z M 489.140625 654.621094 " fill-opacity="1" fill-rule="nonzero"/></g><path fill="#f5f5dc" d="M 397.195312 670.40625 C 398.527344 665.386719 403.710938 662.394531 408.820312 663.488281 C 442.027344 670.625 476.375 670.625 509.582031 663.488281 C 514.6875 662.394531 519.871094 665.386719 521.203125 670.40625 C 522.53125 675.417969 519.113281 680.671875 513.53125 681.867188 C 477.71875 689.558594 440.679688 689.558594 404.871094 681.867188 C 399.285156 680.671875 395.867188 675.417969 397.195312 670.40625 Z M 397.195312 670.40625 " fill-opacity="1" fill-rule="nonzero"/><g clip-path="url(#de92bcf502)"><path fill="#000000" d="M 406.664062 661.582031 C 407.488281 661.582031 408.328125 661.667969 409.171875 661.847656 C 442.367188 668.976562 476.039062 668.976562 509.226562 661.847656 C 515.296875 660.550781 521.273438 664.113281 522.824219 669.972656 C 523.554688 672.738281 523.109375 675.652344 521.566406 678.15625 C 519.90625 680.863281 517.105469 682.8125 513.882812 683.503906 C 477.601562 691.300781 440.804688 691.300781 404.515625 683.507812 C 401.292969 682.816406 398.492188 680.871094 396.832031 678.164062 C 395.289062 675.652344 394.84375 672.746094 395.574219 669.980469 C 396.910156 664.925781 401.523438 661.582031 406.664062 661.582031 Z M 459.195312 670.550781 C 442.242188 670.550781 425.292969 668.742188 408.460938 665.125 C 404.144531 664.203125 399.910156 666.707031 398.8125 670.832031 C 398.320312 672.699219 398.625 674.679688 399.683594 676.402344 C 400.867188 678.328125 402.882812 679.71875 405.214844 680.226562 C 441.039062 687.917969 477.355469 687.917969 513.171875 680.226562 C 515.503906 679.726562 517.519531 678.328125 518.703125 676.402344 C 519.757812 674.679688 520.066406 672.699219 519.574219 670.832031 C 518.484375 666.707031 514.242188 664.203125 509.925781 665.125 C 493.105469 668.742188 476.152344 670.550781 459.195312 670.550781 Z M 459.195312 670.550781 " fill-opacity="1" fill-rule="nonzero"/></g><path fill="#f5f5dc" d="M 89.199219 15.601562 L 104.761719 15.601562 L 104.761719 33.046875 L 89.199219 33.046875 Z M 89.199219 15.601562 " fill-opacity="1" fill-rule="nonzero"/><path fill="#000000" d="M 106.4375 34.726562 L 87.515625 34.726562 L 87.515625 13.925781 L 106.4375 13.925781 Z M 90.875 31.371094 L 103.082031 31.371094 L 103.082031 17.28125 L 90.875 17.28125 Z M 90.875 31.371094 " fill-opacity="1" fill-rule="nonzero"/><path fill="#f5f5dc" d="M 142.355469 15.601562 L 157.917969 15.601562 L 157.917969 33.046875 L 142.355469 33.046875 Z M 142.355469 15.601562 " fill-opacity="1" fill-rule="nonzero"/><path fill="#000000" d="M 159.59375 34.726562 L 140.671875 34.726562 L 140.671875 13.925781 L 159.59375 13.925781 Z M 144.03125 31.371094 L 156.238281 31.371094 L 156.238281 17.28125 L 144.03125 17.28125 Z M 144.03125 31.371094 " fill-opacity="1" fill-rule="nonzero"/><path fill="#f5f5dc" d="M 185.832031 63.515625 L 196.90625 134.132812 C 199.777344 152.449219 190.238281 168.378906 175.386719 168.378906 L 71.527344 168.378906 C 56.671875 168.378906 47.132812 152.449219 50.003906 134.132812 L 61.082031 63.515625 C 63.765625 46.371094 78.199219 33.523438 93.519531 33.523438 L 153.398438 33.523438 C 168.710938 33.523438 183.144531 46.371094 185.832031 63.515625 Z M 185.832031 63.515625 " fill-opacity="1" fill-rule="nonzero"/><g clip-path="url(#f118c828f2)"><path fill="#000000" d="M 175.386719 170.0625 L 71.527344 170.0625 C 65.210938 170.0625 59.371094 167.304688 55.089844 162.304688 C 49.160156 155.371094 46.640625 144.746094 48.347656 133.875 L 59.417969 63.257812 C 62.183594 45.644531 77.15625 31.847656 93.511719 31.847656 L 153.390625 31.847656 C 169.746094 31.847656 184.726562 45.644531 187.484375 63.257812 L 198.5625 133.878906 C 200.265625 144.75 197.746094 155.375 191.820312 162.308594 C 187.546875 167.304688 181.707031 170.0625 175.386719 170.0625 Z M 93.511719 35.199219 C 78.765625 35.199219 65.25 47.753906 62.734375 63.777344 L 51.664062 134.390625 C 50.109375 144.304688 52.34375 153.925781 57.644531 160.117188 C 61.328125 164.425781 66.132812 166.707031 71.53125 166.707031 L 175.390625 166.707031 C 180.789062 166.707031 185.589844 164.425781 189.273438 160.121094 C 194.574219 153.933594 196.808594 144.3125 195.25 134.398438 L 184.175781 63.777344 C 181.660156 47.753906 168.144531 35.199219 153.398438 35.199219 Z M 93.511719 35.199219 " fill-opacity="1" fill-rule="nonzero"/></g><path fill="#f5f5dc" d="M 185.457031 19.417969 C 184.128906 24.4375 178.941406 27.429688 173.835938 26.332031 C 140.625 19.195312 106.277344 19.195312 73.074219 26.332031 C 67.96875 27.429688 62.78125 24.4375 61.453125 19.417969 C 60.121094 14.402344 63.539062 9.152344 69.125 7.953125 C 104.933594 0.261719 141.976562 0.261719 177.785156 7.953125 C 183.371094 9.152344 186.789062 14.402344 185.457031 19.417969 Z M 185.457031 19.417969 " fill-opacity="1" fill-rule="nonzero"/><g clip-path="url(#f4d4c4a2fc)"><path fill="#000000" d="M 175.988281 28.238281 C 175.164062 28.238281 174.328125 28.152344 173.484375 27.972656 C 140.285156 20.84375 106.617188 20.84375 73.425781 27.972656 C 67.355469 29.269531 61.378906 25.707031 59.832031 19.847656 C 59.097656 17.082031 59.542969 14.171875 61.085938 11.664062 C 62.75 8.957031 65.546875 7.007812 68.773438 6.316406 C 105.054688 -1.480469 141.847656 -1.480469 178.136719 6.3125 C 181.363281 7.003906 184.160156 8.949219 185.824219 11.65625 C 187.367188 14.171875 187.8125 17.074219 187.082031 19.839844 C 185.742188 24.894531 181.128906 28.238281 175.988281 28.238281 Z M 123.457031 19.269531 C 140.414062 19.269531 157.359375 21.078125 174.195312 24.695312 C 178.511719 25.621094 182.746094 23.113281 183.84375 18.992188 C 184.335938 17.121094 184.027344 15.140625 182.972656 13.417969 C 181.789062 11.492188 179.773438 10.101562 177.441406 9.597656 C 141.617188 1.902344 105.300781 1.902344 69.484375 9.597656 C 67.152344 10.09375 65.136719 11.492188 63.953125 13.417969 C 62.894531 15.140625 62.589844 17.121094 63.082031 18.992188 C 64.171875 23.113281 68.414062 25.621094 72.730469 24.695312 C 89.550781 21.078125 106.503906 19.269531 123.457031 19.269531 Z M 123.457031 19.269531 " fill-opacity="1" fill-rule="nonzero"/></g></g></g></svg>