<svg xmlns="http://www.w3.org/2000/svg" xmlns:xlink="http://www.w3.org/1999/xlink" width="1920" zoomAndPan="magnify" viewBox="0 0 1440 809.999993" height="1080" preserveAspectRatio="xMidYMid meet" version="1.0"><defs><clipPath id="b5a9811871"><path d="M 0.121094 516 L 355 516 L 355 597 L 0.121094 597 Z M 0.121094 516 " clip-rule="nonzero"/></clipPath><clipPath id="3365313447"><path d="M 3 3.59375 L 351.410156 3.59375 L 351.410156 77.539062 L 3 77.539062 Z M 3 3.59375 " clip-rule="nonzero"/></clipPath><clipPath id="46ed101acf"><path d="M 351.410156 4.929688 L 351.410156 76.203125 C 351.410156 76.558594 351.269531 76.898438 351.019531 77.148438 C 350.769531 77.398438 350.429688 77.539062 350.074219 77.539062 L 4.398438 77.539062 C 4.042969 77.539062 3.703125 77.398438 3.453125 77.148438 C 3.203125 76.898438 3.0625 76.558594 3.0625 76.203125 L 3.0625 4.929688 C 3.0625 4.574219 3.203125 4.234375 3.453125 3.984375 C 3.703125 3.734375 4.042969 3.59375 4.398438 3.59375 L 350.074219 3.59375 C 350.429688 3.59375 350.769531 3.734375 351.019531 3.984375 C 351.269531 4.234375 351.410156 4.574219 351.410156 4.929688 Z M 351.410156 4.929688 " clip-rule="nonzero"/></clipPath><clipPath id="137cf170cd"><path d="M 0 0.59375 L 348.410156 0.59375 L 348.410156 74.539062 L 0 74.539062 Z M 0 0.59375 " clip-rule="nonzero"/></clipPath><clipPath id="cd57fdd2d3"><path d="M 348.410156 1.929688 L 348.410156 73.203125 C 348.410156 73.558594 348.269531 73.898438 348.019531 74.148438 C 347.769531 74.398438 347.429688 74.539062 347.074219 74.539062 L 1.398438 74.539062 C 1.042969 74.539062 0.703125 74.398438 0.453125 74.148438 C 0.203125 73.898438 0.0625 73.558594 0.0625 73.203125 L 0.0625 1.929688 C 0.0625 1.574219 0.203125 1.234375 0.453125 0.984375 C 0.703125 0.734375 1.042969 0.59375 1.398438 0.59375 L 347.074219 0.59375 C 347.429688 0.59375 347.769531 0.734375 348.019531 0.984375 C 348.269531 1.234375 348.410156 1.574219 348.410156 1.929688 Z M 348.410156 1.929688 " clip-rule="nonzero"/></clipPath><clipPath id="d7f51b70dd"><rect x="0" width="349" y="0" height="75"/></clipPath><clipPath id="4b1b2a8eb7"><path d="M 3.027344 3.59375 L 351.40625 3.59375 L 351.40625 77.542969 L 3.027344 77.542969 Z M 3.027344 3.59375 " clip-rule="nonzero"/></clipPath><clipPath id="51ca097985"><path d="M 351.40625 4.929688 L 351.40625 76.203125 C 351.40625 76.554688 351.265625 76.894531 351.015625 77.144531 C 350.765625 77.394531 350.425781 77.535156 350.070312 77.535156 L 4.402344 77.535156 C 4.046875 77.535156 3.707031 77.394531 3.457031 77.144531 C 3.207031 76.894531 3.066406 76.554688 3.066406 76.203125 L 3.066406 4.929688 C 3.066406 4.574219 3.207031 4.234375 3.457031 3.984375 C 3.707031 3.734375 4.046875 3.59375 4.402344 3.59375 L 350.070312 3.59375 C 350.425781 3.59375 350.765625 3.734375 351.015625 3.984375 C 351.265625 4.234375 351.40625 4.574219 351.40625 4.929688 Z M 351.40625 4.929688 " clip-rule="nonzero"/></clipPath><clipPath id="cff0703e91"><rect x="0" width="355" y="0" height="81"/></clipPath><clipPath id="92981f037d"><path d="M 14 476 L 51 476 L 51 509.742188 L 14 509.742188 Z M 14 476 " clip-rule="nonzero"/></clipPath><clipPath id="c0f5d9cba4"><path d="M 14 475 L 51.132812 475 L 51.132812 509.742188 L 14 509.742188 Z M 14 475 " clip-rule="nonzero"/></clipPath><clipPath id="6268aa5810"><path d="M 290 476 L 326.875 476 L 326.875 509.742188 L 290 509.742188 Z M 290 476 " clip-rule="nonzero"/></clipPath><clipPath id="ab2e3d30ca"><path d="M 289.488281 475 L 326.875 475 L 326.875 509.742188 L 289.488281 509.742188 Z M 289.488281 475 " clip-rule="nonzero"/></clipPath><clipPath id="f6a765e87f"><path d="M 101 476 L 138 476 L 138 509.742188 L 101 509.742188 Z M 101 476 " clip-rule="nonzero"/></clipPath><clipPath id="81f56031d1"><path d="M 101 475 L 138.28125 475 L 138.28125 509.742188 L 101 509.742188 Z M 101 475 " clip-rule="nonzero"/></clipPath><clipPath id="5aa01503f7"><path d="M 195.1875 476 L 232.578125 476 L 232.578125 509.742188 L 195.1875 509.742188 Z M 195.1875 476 " clip-rule="nonzero"/></clipPath><clipPath id="4d6b2cae88"><path d="M 195.1875 475 L 232.578125 475 L 232.578125 509.742188 L 195.1875 509.742188 Z M 195.1875 475 " clip-rule="nonzero"/></clipPath><clipPath id="8f23edcb69"><path d="M 0.121094 360 L 355 360 L 355 441 L 0.121094 441 Z M 0.121094 360 " clip-rule="nonzero"/></clipPath><clipPath id="73a52ddb49"><path d="M 3 3.859375 L 351.410156 3.859375 L 351.410156 77.804688 L 3 77.804688 Z M 3 3.859375 " clip-rule="nonzero"/></clipPath><clipPath id="68b1819377"><path d="M 351.410156 5.195312 L 351.410156 76.46875 C 351.410156 76.824219 351.269531 77.164062 351.019531 77.414062 C 350.769531 77.664062 350.429688 77.804688 350.074219 77.804688 L 4.398438 77.804688 C 4.042969 77.804688 3.703125 77.664062 3.453125 77.414062 C 3.203125 77.164062 3.0625 76.824219 3.0625 76.46875 L 3.0625 5.195312 C 3.0625 4.839844 3.203125 4.503906 3.453125 4.25 C 3.703125 4 4.042969 3.859375 4.398438 3.859375 L 350.074219 3.859375 C 350.429688 3.859375 350.769531 4 351.019531 4.25 C 351.269531 4.503906 351.410156 4.839844 351.410156 5.195312 Z M 351.410156 5.195312 " clip-rule="nonzero"/></clipPath><clipPath id="ed92068b5e"><path d="M 0 0.859375 L 348.410156 0.859375 L 348.410156 74.804688 L 0 74.804688 Z M 0 0.859375 " clip-rule="nonzero"/></clipPath><clipPath id="9c3bf0d7bc"><path d="M 348.410156 2.195312 L 348.410156 73.46875 C 348.410156 73.824219 348.269531 74.164062 348.019531 74.414062 C 347.769531 74.664062 347.429688 74.804688 347.074219 74.804688 L 1.398438 74.804688 C 1.042969 74.804688 0.703125 74.664062 0.453125 74.414062 C 0.203125 74.164062 0.0625 73.824219 0.0625 73.46875 L 0.0625 2.195312 C 0.0625 1.839844 0.203125 1.503906 0.453125 1.25 C 0.703125 1 1.042969 0.859375 1.398438 0.859375 L 347.074219 0.859375 C 347.429688 0.859375 347.769531 1 348.019531 1.25 C 348.269531 1.503906 348.410156 1.839844 348.410156 2.195312 Z M 348.410156 2.195312 " clip-rule="nonzero"/></clipPath><clipPath id="a0776ec9b8"><rect x="0" width="349" y="0" height="75"/></clipPath><clipPath id="42890a5574"><path d="M 3.027344 3.859375 L 351.40625 3.859375 L 351.40625 77.808594 L 3.027344 77.808594 Z M 3.027344 3.859375 " clip-rule="nonzero"/></clipPath><clipPath id="29776fa68f"><path d="M 351.40625 5.195312 L 351.40625 76.46875 C 351.40625 76.820312 351.265625 77.160156 351.015625 77.410156 C 350.765625 77.664062 350.425781 77.804688 350.070312 77.804688 L 4.402344 77.804688 C 4.046875 77.804688 3.707031 77.664062 3.457031 77.410156 C 3.207031 77.160156 3.066406 76.820312 3.066406 76.46875 L 3.066406 5.195312 C 3.066406 4.839844 3.207031 4.5 3.457031 4.25 C 3.707031 4 4.046875 3.859375 4.402344 3.859375 L 350.070312 3.859375 C 350.425781 3.859375 350.765625 4 351.015625 4.25 C 351.265625 4.5 351.40625 4.839844 351.40625 5.195312 Z M 351.40625 5.195312 " clip-rule="nonzero"/></clipPath><clipPath id="56c49f9b6b"><rect x="0" width="355" y="0" height="81"/></clipPath><clipPath id="b4f13d9f23"><path d="M 14 319 L 51.132812 319 L 51.132812 354 L 14 354 Z M 14 319 " clip-rule="nonzero"/></clipPath><clipPath id="678afd606e"><path d="M 290 320 L 326.875 320 L 326.875 354 L 290 354 Z M 290 320 " clip-rule="nonzero"/></clipPath><clipPath id="d031445f73"><path d="M 289.488281 319 L 326.875 319 L 326.875 354 L 289.488281 354 Z M 289.488281 319 " clip-rule="nonzero"/></clipPath><clipPath id="b166657ce0"><path d="M 101 319 L 138.28125 319 L 138.28125 354 L 101 354 Z M 101 319 " clip-rule="nonzero"/></clipPath><clipPath id="5c7a0f9b2f"><path d="M 195.1875 320 L 232.578125 320 L 232.578125 354 L 195.1875 354 Z M 195.1875 320 " clip-rule="nonzero"/></clipPath><clipPath id="cf65fd0e6c"><path d="M 195.1875 319 L 232.578125 319 L 232.578125 354 L 195.1875 354 Z M 195.1875 319 " clip-rule="nonzero"/></clipPath><clipPath id="bc94e6216f"><path d="M 0.121094 205 L 355 205 L 355 286 L 0.121094 286 Z M 0.121094 205 " clip-rule="nonzero"/></clipPath><clipPath id="11fb0012dd"><path d="M 3 3.089844 L 351.410156 3.089844 L 351.410156 77.035156 L 3 77.035156 Z M 3 3.089844 " clip-rule="nonzero"/></clipPath><clipPath id="3e0a3d7a00"><path d="M 351.410156 4.425781 L 351.410156 75.699219 C 351.410156 76.050781 351.269531 76.390625 351.019531 76.640625 C 350.769531 76.894531 350.429688 77.035156 350.074219 77.035156 L 4.398438 77.035156 C 4.042969 77.035156 3.703125 76.894531 3.453125 76.640625 C 3.203125 76.390625 3.0625 76.050781 3.0625 75.699219 L 3.0625 4.425781 C 3.0625 4.070312 3.203125 3.730469 3.453125 3.480469 C 3.703125 3.230469 4.042969 3.089844 4.398438 3.089844 L 350.074219 3.089844 C 350.429688 3.089844 350.769531 3.230469 351.019531 3.480469 C 351.269531 3.730469 351.410156 4.070312 351.410156 4.425781 Z M 351.410156 4.425781 " clip-rule="nonzero"/></clipPath><clipPath id="2a4525b7d3"><path d="M 0 0.0898438 L 348.410156 0.0898438 L 348.410156 74.035156 L 0 74.035156 Z M 0 0.0898438 " clip-rule="nonzero"/></clipPath><clipPath id="85d41de3ee"><path d="M 348.410156 1.425781 L 348.410156 72.699219 C 348.410156 73.050781 348.269531 73.390625 348.019531 73.640625 C 347.769531 73.894531 347.429688 74.035156 347.074219 74.035156 L 1.398438 74.035156 C 1.042969 74.035156 0.703125 73.894531 0.453125 73.640625 C 0.203125 73.390625 0.0625 73.050781 0.0625 72.699219 L 0.0625 1.425781 C 0.0625 1.070312 0.203125 0.730469 0.453125 0.480469 C 0.703125 0.230469 1.042969 0.0898438 1.398438 0.0898438 L 347.074219 0.0898438 C 347.429688 0.0898438 347.769531 0.230469 348.019531 0.480469 C 348.269531 0.730469 348.410156 1.070312 348.410156 1.425781 Z M 348.410156 1.425781 " clip-rule="nonzero"/></clipPath><clipPath id="537431f099"><rect x="0" width="349" y="0" height="75"/></clipPath><clipPath id="7ca5bfc531"><path d="M 3.027344 3.089844 L 351.40625 3.089844 L 351.40625 77.039062 L 3.027344 77.039062 Z M 3.027344 3.089844 " clip-rule="nonzero"/></clipPath><clipPath id="45a2b23ae4"><path d="M 351.40625 4.425781 L 351.40625 75.695312 C 351.40625 76.050781 351.265625 76.390625 351.015625 76.640625 C 350.765625 76.890625 350.425781 77.03125 350.070312 77.03125 L 4.402344 77.03125 C 4.046875 77.03125 3.707031 76.890625 3.457031 76.640625 C 3.207031 76.390625 3.066406 76.050781 3.066406 75.695312 L 3.066406 4.425781 C 3.066406 4.070312 3.207031 3.730469 3.457031 3.480469 C 3.707031 3.230469 4.046875 3.089844 4.402344 3.089844 L 350.070312 3.089844 C 350.425781 3.089844 350.765625 3.230469 351.015625 3.480469 C 351.265625 3.730469 351.40625 4.070312 351.40625 4.425781 Z M 351.40625 4.425781 " clip-rule="nonzero"/></clipPath><clipPath id="25de4ddd64"><rect x="0" width="355" y="0" height="81"/></clipPath><clipPath id="6283d51834"><path d="M 14 164 L 51.132812 164 L 51.132812 198.238281 L 14 198.238281 Z M 14 164 " clip-rule="nonzero"/></clipPath><clipPath id="73d80a4828"><path d="M 17 156.042969 L 48 156.042969 L 48 163 L 17 163 Z M 17 156.042969 " clip-rule="nonzero"/></clipPath><clipPath id="d3b510d32e"><path d="M 16 156.042969 L 49 156.042969 L 49 164 L 16 164 Z M 16 156.042969 " clip-rule="nonzero"/></clipPath><clipPath id="455b911a85"><path d="M 290 164 L 326.875 164 L 326.875 198 L 290 198 Z M 290 164 " clip-rule="nonzero"/></clipPath><clipPath id="409076cc60"><path d="M 289.488281 164 L 326.875 164 L 326.875 198.238281 L 289.488281 198.238281 Z M 289.488281 164 " clip-rule="nonzero"/></clipPath><clipPath id="55001ca22c"><path d="M 293 156.042969 L 324 156.042969 L 324 163 L 293 163 Z M 293 156.042969 " clip-rule="nonzero"/></clipPath><clipPath id="312821acf3"><path d="M 292 156.042969 L 324 156.042969 L 324 164 L 292 164 Z M 292 156.042969 " clip-rule="nonzero"/></clipPath><clipPath id="15248a6a45"><path d="M 101 164 L 138.28125 164 L 138.28125 198.238281 L 101 198.238281 Z M 101 164 " clip-rule="nonzero"/></clipPath><clipPath id="dd8e8e7a49"><path d="M 104 156.042969 L 135 156.042969 L 135 163 L 104 163 Z M 104 156.042969 " clip-rule="nonzero"/></clipPath><clipPath id="a0fa308ce0"><path d="M 104 156.042969 L 136 156.042969 L 136 164 L 104 164 Z M 104 156.042969 " clip-rule="nonzero"/></clipPath><clipPath id="d36b51b74c"><path d="M 195.1875 164 L 232.578125 164 L 232.578125 198 L 195.1875 198 Z M 195.1875 164 " clip-rule="nonzero"/></clipPath><clipPath id="f7e9342ec9"><path d="M 195.1875 164 L 232.578125 164 L 232.578125 198.238281 L 195.1875 198.238281 Z M 195.1875 164 " clip-rule="nonzero"/></clipPath><clipPath id="ee1809cab2"><path d="M 198 156.042969 L 230 156.042969 L 230 163 L 198 163 Z M 198 156.042969 " clip-rule="nonzero"/></clipPath><clipPath id="ec2ef9ed0c"><path d="M 198 156.042969 L 230 156.042969 L 230 164 L 198 164 Z M 198 156.042969 " clip-rule="nonzero"/></clipPath><clipPath id="3c3640a6a7"><path d="M 0.121094 49 L 355 49 L 355 130 L 0.121094 130 Z M 0.121094 49 " clip-rule="nonzero"/></clipPath><clipPath id="f14ffcff76"><path d="M 3 3.320312 L 351.410156 3.320312 L 351.410156 77.261719 L 3 77.261719 Z M 3 3.320312 " clip-rule="nonzero"/></clipPath><clipPath id="9a712f5ed5"><path d="M 351.410156 4.652344 L 351.410156 75.925781 C 351.410156 76.28125 351.269531 76.621094 351.019531 76.871094 C 350.769531 77.121094 350.429688 77.261719 350.074219 77.261719 L 4.398438 77.261719 C 4.042969 77.261719 3.703125 77.121094 3.453125 76.871094 C 3.203125 76.621094 3.0625 76.28125 3.0625 75.925781 L 3.0625 4.652344 C 3.0625 4.300781 3.203125 3.960938 3.453125 3.710938 C 3.703125 3.460938 4.042969 3.320312 4.398438 3.320312 L 350.074219 3.320312 C 350.429688 3.320312 350.769531 3.460938 351.019531 3.710938 C 351.269531 3.960938 351.410156 4.300781 351.410156 4.652344 Z M 351.410156 4.652344 " clip-rule="nonzero"/></clipPath><clipPath id="7975d399a5"><path d="M 0 0.320312 L 348.410156 0.320312 L 348.410156 74.261719 L 0 74.261719 Z M 0 0.320312 " clip-rule="nonzero"/></clipPath><clipPath id="13e8df1f32"><path d="M 348.410156 1.652344 L 348.410156 72.925781 C 348.410156 73.28125 348.269531 73.621094 348.019531 73.871094 C 347.769531 74.121094 347.429688 74.261719 347.074219 74.261719 L 1.398438 74.261719 C 1.042969 74.261719 0.703125 74.121094 0.453125 73.871094 C 0.203125 73.621094 0.0625 73.28125 0.0625 72.925781 L 0.0625 1.652344 C 0.0625 1.300781 0.203125 0.960938 0.453125 0.710938 C 0.703125 0.460938 1.042969 0.320312 1.398438 0.320312 L 347.074219 0.320312 C 347.429688 0.320312 347.769531 0.460938 348.019531 0.710938 C 348.269531 0.960938 348.410156 1.300781 348.410156 1.652344 Z M 348.410156 1.652344 " clip-rule="nonzero"/></clipPath><clipPath id="175e4c0303"><rect x="0" width="349" y="0" height="75"/></clipPath><clipPath id="abb19c9fff"><path d="M 3.027344 3.320312 L 351.40625 3.320312 L 351.40625 77.269531 L 3.027344 77.269531 Z M 3.027344 3.320312 " clip-rule="nonzero"/></clipPath><clipPath id="87432175cf"><path d="M 351.40625 4.652344 L 351.40625 75.925781 C 351.40625 76.28125 351.265625 76.621094 351.015625 76.871094 C 350.765625 77.121094 350.425781 77.261719 350.070312 77.261719 L 4.402344 77.261719 C 4.046875 77.261719 3.707031 77.121094 3.457031 76.871094 C 3.207031 76.621094 3.066406 76.28125 3.066406 75.925781 L 3.066406 4.652344 C 3.066406 4.300781 3.207031 3.960938 3.457031 3.710938 C 3.707031 3.460938 4.046875 3.320312 4.402344 3.320312 L 350.070312 3.320312 C 350.425781 3.320312 350.765625 3.460938 351.015625 3.710938 C 351.265625 3.960938 351.40625 4.300781 351.40625 4.652344 Z M 351.40625 4.652344 " clip-rule="nonzero"/></clipPath><clipPath id="00e0fcf24a"><rect x="0" width="355" y="0" height="81"/></clipPath><clipPath id="080a62f38b"><path d="M 14 8 L 51.132812 8 L 51.132812 42.46875 L 14 42.46875 Z M 14 8 " clip-rule="nonzero"/></clipPath><clipPath id="4d7b1524eb"><path d="M 16 0.679688 L 49 0.679688 L 49 8 L 16 8 Z M 16 0.679688 " clip-rule="nonzero"/></clipPath><clipPath id="7b9306c0e8"><path d="M 290 8 L 326.875 8 L 326.875 42 L 290 42 Z M 290 8 " clip-rule="nonzero"/></clipPath><clipPath id="6d8d027fae"><path d="M 289.488281 8 L 326.875 8 L 326.875 42.46875 L 289.488281 42.46875 Z M 289.488281 8 " clip-rule="nonzero"/></clipPath><clipPath id="597e879450"><path d="M 292 0.679688 L 324 0.679688 L 324 8 L 292 8 Z M 292 0.679688 " clip-rule="nonzero"/></clipPath><clipPath id="3713e4db03"><path d="M 101 8 L 138.28125 8 L 138.28125 42.46875 L 101 42.46875 Z M 101 8 " clip-rule="nonzero"/></clipPath><clipPath id="018126a710"><path d="M 104 0.679688 L 136 0.679688 L 136 8 L 104 8 Z M 104 0.679688 " clip-rule="nonzero"/></clipPath><clipPath id="2d1866e3ed"><path d="M 195.1875 8 L 232.578125 8 L 232.578125 42 L 195.1875 42 Z M 195.1875 8 " clip-rule="nonzero"/></clipPath><clipPath id="4faa533619"><path d="M 195.1875 8 L 232.578125 8 L 232.578125 42.46875 L 195.1875 42.46875 Z M 195.1875 8 " clip-rule="nonzero"/></clipPath><clipPath id="b75d9ca40f"><path d="M 198 0.679688 L 230 0.679688 L 230 8 L 198 8 Z M 198 0.679688 " clip-rule="nonzero"/></clipPath><clipPath id="727c1b18f7"><path d="M 360 632 L 433 632 L 433 786.441406 L 360 786.441406 Z M 360 632 " clip-rule="nonzero"/></clipPath><clipPath id="7a2e391e0b"><path d="M 3.269531 3.105469 L 69.480469 3.105469 L 69.480469 151.5625 L 3.269531 151.5625 Z M 3.269531 3.105469 " clip-rule="nonzero"/></clipPath><clipPath id="00b5e34f53"><path d="M 68.144531 151.5625 L 4.605469 151.5625 C 3.867188 151.5625 3.269531 150.964844 3.269531 150.226562 L 3.269531 4.457031 C 3.269531 3.722656 3.867188 3.125 4.605469 3.125 L 68.144531 3.125 C 68.882812 3.125 69.480469 3.722656 69.480469 4.457031 L 69.480469 150.226562 C 69.480469 150.964844 68.882812 151.5625 68.144531 151.5625 Z M 68.144531 151.5625 " clip-rule="nonzero"/></clipPath><clipPath id="8ae47a23d0"><path d="M 0.269531 0.105469 L 66.480469 0.105469 L 66.480469 148.5625 L 0.269531 148.5625 Z M 0.269531 0.105469 " clip-rule="nonzero"/></clipPath><clipPath id="1847579008"><path d="M 65.144531 148.5625 L 1.605469 148.5625 C 0.867188 148.5625 0.269531 147.964844 0.269531 147.226562 L 0.269531 1.457031 C 0.269531 0.722656 0.867188 0.125 1.605469 0.125 L 65.144531 0.125 C 65.882812 0.125 66.480469 0.722656 66.480469 1.457031 L 66.480469 147.226562 C 66.480469 147.964844 65.882812 148.5625 65.144531 148.5625 Z M 65.144531 148.5625 " clip-rule="nonzero"/></clipPath><clipPath id="ae52b9f8d5"><rect x="0" width="67" y="0" height="149"/></clipPath><clipPath id="3f22f0b99d"><path d="M 3.25 3.078125 L 69.480469 3.078125 L 69.480469 151.5625 L 3.25 151.5625 Z M 3.25 3.078125 " clip-rule="nonzero"/></clipPath><clipPath id="9a528283ba"><path d="M 68.144531 151.5625 L 4.605469 151.5625 C 3.871094 151.5625 3.273438 150.964844 3.273438 150.226562 L 3.273438 4.460938 C 3.273438 3.722656 3.871094 3.125 4.605469 3.125 L 68.144531 3.125 C 68.882812 3.125 69.480469 3.722656 69.480469 4.460938 L 69.480469 150.226562 C 69.480469 150.964844 68.882812 151.5625 68.144531 151.5625 Z M 68.144531 151.5625 " clip-rule="nonzero"/></clipPath><clipPath id="6ec9eec094"><rect x="0" width="73" y="0" height="155"/></clipPath><clipPath id="37412ec7f9"><path d="M 449.519531 690 L 486 690 L 486 729 L 449.519531 729 Z M 449.519531 690 " clip-rule="nonzero"/></clipPath><clipPath id="184d71eb8c"><path d="M 449.519531 689.25 L 486 689.25 L 486 729.308594 L 449.519531 729.308594 Z M 449.519531 689.25 " clip-rule="nonzero"/></clipPath><clipPath id="9c3e0a7767"><rect x="0" width="495" y="0" height="787"/></clipPath></defs><g transform="matrix(1, 0, 0, 1, 471, 13)"><g clip-path="url(#9c3e0a7767)"><g clip-path="url(#b5a9811871)"><g transform="matrix(1, 0, 0, 1, 0, 516)"><g clip-path="url(#cff0703e91)"><g clip-path="url(#3365313447)"><g clip-path="url(#46ed101acf)"><g transform="matrix(1, 0, 0, 1, 3, 3)"><g clip-path="url(#d7f51b70dd)"><g clip-path="url(#137cf170cd)"><g clip-path="url(#cd57fdd2d3)"><path fill="#f5f5dc" d="M 348.410156 0.59375 L 348.410156 74.539062 L 0.0664062 74.539062 L 0.0664062 0.59375 Z M 348.410156 0.59375 " fill-opacity="1" fill-rule="nonzero"/></g></g></g></g></g></g><g clip-path="url(#4b1b2a8eb7)"><g clip-path="url(#51ca097985)"><path stroke-linecap="butt" transform="matrix(0, 0.13353, -0.13353, 0, 351.406546, 3.594446)" fill="none" stroke-linejoin="miter" d="M 9.999536 0.00222008 L 543.761757 0.00222008 C 546.394586 0.00222008 548.939654 1.055352 550.811889 2.927586 C 552.684123 4.79982 553.737254 7.344888 553.737254 10.006971 L 553.737254 2598.692312 C 553.737254 2601.354395 552.684123 2603.899463 550.811889 2605.771697 C 548.939654 2607.643931 546.394586 2608.697063 543.761757 2608.697063 L 9.999536 2608.697063 C 7.337453 2608.697063 4.792385 2607.643931 2.920151 2605.771697 C 1.047917 2603.899463 -0.0052148 2601.354395 -0.0052148 2598.692312 L -0.0052148 10.006971 C -0.0052148 7.344888 1.047917 4.79982 2.920151 2.927586 C 4.792385 1.055352 7.337453 0.00222008 9.999536 0.00222008 Z M 9.999536 0.00222008 " stroke="#000000" stroke-width="10" stroke-opacity="1" stroke-miterlimit="4"/></g></g></g></g></g><path fill="#f5f5dc" d="M 24.175781 471.726562 L 27.988281 471.726562 L 27.988281 476 L 24.175781 476 Z M 24.175781 471.726562 " fill-opacity="1" fill-rule="nonzero"/><path fill="#000000" d="M 28.398438 476.410156 L 23.765625 476.410156 L 23.765625 471.316406 L 28.398438 471.316406 Z M 24.585938 475.589844 L 27.578125 475.589844 L 27.578125 472.136719 L 24.585938 472.136719 Z M 24.585938 475.589844 " fill-opacity="1" fill-rule="nonzero"/><path fill="#f5f5dc" d="M 37.195312 471.726562 L 41.007812 471.726562 L 41.007812 476 L 37.195312 476 Z M 37.195312 471.726562 " fill-opacity="1" fill-rule="nonzero"/><path fill="#000000" d="M 41.417969 476.410156 L 36.785156 476.410156 L 36.785156 471.316406 L 41.417969 471.316406 Z M 37.605469 475.589844 L 40.597656 475.589844 L 40.597656 472.136719 L 37.605469 472.136719 Z M 37.605469 475.589844 " fill-opacity="1" fill-rule="nonzero"/><g clip-path="url(#92981f037d)"><path fill="#f5f5dc" d="M 47.84375 483.460938 L 50.558594 500.757812 C 51.261719 505.242188 48.925781 509.144531 45.285156 509.144531 L 19.847656 509.144531 C 16.210938 509.144531 13.875 505.242188 14.578125 500.757812 L 17.292969 483.460938 C 17.949219 479.261719 21.484375 476.117188 25.234375 476.117188 L 39.902344 476.117188 C 43.652344 476.117188 47.1875 479.261719 47.84375 483.460938 Z M 47.84375 483.460938 " fill-opacity="1" fill-rule="nonzero"/></g><g clip-path="url(#c0f5d9cba4)"><path fill="#000000" d="M 45.285156 509.554688 L 19.847656 509.554688 C 18.300781 509.554688 16.871094 508.878906 15.824219 507.65625 C 14.371094 505.957031 13.753906 503.355469 14.171875 500.691406 L 16.882812 483.398438 C 17.5625 479.085938 21.230469 475.707031 25.234375 475.707031 L 39.898438 475.707031 C 43.90625 475.707031 47.574219 479.085938 48.25 483.398438 L 50.960938 500.695312 C 51.378906 503.355469 50.761719 505.960938 49.3125 507.65625 C 48.265625 508.878906 46.835938 509.554688 45.285156 509.554688 Z M 25.234375 476.527344 C 21.621094 476.527344 18.3125 479.601562 17.695312 483.523438 L 14.984375 500.820312 C 14.605469 503.246094 15.152344 505.605469 16.449219 507.121094 C 17.351562 508.175781 18.527344 508.734375 19.851562 508.734375 L 45.289062 508.734375 C 46.609375 508.734375 47.785156 508.175781 48.6875 507.121094 C 49.984375 505.605469 50.53125 503.25 50.152344 500.820312 L 47.4375 483.523438 C 46.824219 479.601562 43.511719 476.527344 39.902344 476.527344 Z M 25.234375 476.527344 " fill-opacity="1" fill-rule="nonzero"/></g><path fill="#f5f5dc" d="M 47.753906 472.660156 C 47.425781 473.890625 46.15625 474.621094 44.90625 474.355469 C 36.773438 472.605469 28.359375 472.605469 20.230469 474.355469 C 18.976562 474.621094 17.707031 473.890625 17.382812 472.660156 C 17.058594 471.433594 17.894531 470.148438 19.261719 469.851562 C 28.03125 467.96875 37.105469 467.96875 45.875 469.851562 C 47.242188 470.148438 48.078125 471.433594 47.753906 472.660156 Z M 47.753906 472.660156 " fill-opacity="1" fill-rule="nonzero"/><path fill="#000000" d="M 45.433594 474.820312 C 45.230469 474.820312 45.027344 474.800781 44.820312 474.757812 C 36.691406 473.011719 28.445312 473.011719 20.316406 474.757812 C 18.828125 475.074219 17.363281 474.199219 16.984375 472.765625 C 16.804688 472.089844 16.914062 471.375 17.292969 470.761719 C 17.699219 470.097656 18.386719 469.621094 19.175781 469.453125 C 28.0625 467.542969 37.074219 467.542969 45.960938 469.453125 C 46.75 469.621094 47.4375 470.097656 47.84375 470.761719 C 48.21875 471.375 48.328125 472.085938 48.152344 472.765625 C 47.824219 474.003906 46.691406 474.820312 45.433594 474.820312 Z M 32.570312 472.625 C 36.722656 472.625 40.871094 473.066406 44.996094 473.953125 C 46.050781 474.179688 47.089844 473.566406 47.355469 472.554688 C 47.476562 472.097656 47.402344 471.613281 47.144531 471.191406 C 46.855469 470.71875 46.359375 470.378906 45.789062 470.253906 C 37.015625 468.371094 28.121094 468.371094 19.347656 470.253906 C 18.777344 470.378906 18.285156 470.71875 17.996094 471.191406 C 17.734375 471.613281 17.660156 472.097656 17.78125 472.554688 C 18.046875 473.566406 19.085938 474.179688 20.144531 473.953125 C 24.265625 473.066406 28.417969 472.625 32.570312 472.625 Z M 32.570312 472.625 " fill-opacity="1" fill-rule="nonzero"/><path fill="#f5f5dc" d="M 299.921875 471.726562 L 303.734375 471.726562 L 303.734375 476 L 299.921875 476 Z M 299.921875 471.726562 " fill-opacity="1" fill-rule="nonzero"/><path fill="#000000" d="M 304.144531 476.410156 L 299.507812 476.410156 L 299.507812 471.316406 L 304.144531 471.316406 Z M 300.332031 475.589844 L 303.320312 475.589844 L 303.320312 472.136719 L 300.332031 472.136719 Z M 300.332031 475.589844 " fill-opacity="1" fill-rule="nonzero"/><path fill="#f5f5dc" d="M 312.941406 471.726562 L 316.753906 471.726562 L 316.753906 476 L 312.941406 476 Z M 312.941406 471.726562 " fill-opacity="1" fill-rule="nonzero"/><path fill="#000000" d="M 317.164062 476.410156 L 312.527344 476.410156 L 312.527344 471.316406 L 317.164062 471.316406 Z M 313.351562 475.589844 L 316.339844 475.589844 L 316.339844 472.136719 L 313.351562 472.136719 Z M 313.351562 475.589844 " fill-opacity="1" fill-rule="nonzero"/><g clip-path="url(#6268aa5810)"><path fill="#f5f5dc" d="M 323.589844 483.460938 L 326.300781 500.757812 C 327.003906 505.242188 324.667969 509.144531 321.03125 509.144531 L 295.59375 509.144531 C 291.957031 509.144531 289.617188 505.242188 290.320312 500.757812 L 293.035156 483.460938 C 293.691406 479.261719 297.226562 476.117188 300.980469 476.117188 L 315.644531 476.117188 C 319.394531 476.117188 322.929688 479.261719 323.589844 483.460938 Z M 323.589844 483.460938 " fill-opacity="1" fill-rule="nonzero"/></g><g clip-path="url(#ab2e3d30ca)"><path fill="#000000" d="M 321.03125 509.554688 L 295.59375 509.554688 C 294.046875 509.554688 292.617188 508.878906 291.566406 507.65625 C 290.113281 505.957031 289.5 503.355469 289.917969 500.691406 L 292.628906 483.398438 C 293.304688 479.085938 296.972656 475.707031 300.976562 475.707031 L 315.644531 475.707031 C 319.648438 475.707031 323.316406 479.085938 323.992188 483.398438 L 326.707031 500.695312 C 327.125 503.355469 326.507812 505.960938 325.054688 507.65625 C 324.007812 508.878906 322.578125 509.554688 321.03125 509.554688 Z M 300.976562 476.527344 C 297.367188 476.527344 294.054688 479.601562 293.441406 483.523438 L 290.730469 500.820312 C 290.347656 503.246094 290.894531 505.605469 292.191406 507.121094 C 293.09375 508.175781 294.273438 508.734375 295.59375 508.734375 L 321.03125 508.734375 C 322.355469 508.734375 323.53125 508.175781 324.429688 507.121094 C 325.730469 505.605469 326.277344 503.25 325.894531 500.820312 L 323.183594 483.523438 C 322.566406 479.601562 319.257812 476.527344 315.644531 476.527344 Z M 300.976562 476.527344 " fill-opacity="1" fill-rule="nonzero"/></g><path fill="#f5f5dc" d="M 323.496094 472.660156 C 323.171875 473.890625 321.902344 474.621094 320.652344 474.355469 C 312.515625 472.605469 304.105469 472.605469 295.972656 474.355469 C 294.722656 474.621094 293.453125 473.890625 293.125 472.660156 C 292.800781 471.433594 293.636719 470.148438 295.003906 469.851562 C 303.777344 467.96875 312.847656 467.96875 321.617188 469.851562 C 322.984375 470.148438 323.824219 471.433594 323.496094 472.660156 Z M 323.496094 472.660156 " fill-opacity="1" fill-rule="nonzero"/><path fill="#000000" d="M 321.179688 474.820312 C 320.976562 474.820312 320.769531 474.800781 320.5625 474.757812 C 312.433594 473.011719 304.1875 473.011719 296.058594 474.757812 C 294.570312 475.074219 293.109375 474.199219 292.730469 472.765625 C 292.550781 472.089844 292.660156 471.375 293.035156 470.761719 C 293.445312 470.097656 294.128906 469.621094 294.917969 469.453125 C 303.804688 467.542969 312.816406 467.542969 321.703125 469.453125 C 322.492188 469.621094 323.179688 470.097656 323.585938 470.761719 C 323.964844 471.375 324.074219 472.085938 323.894531 472.765625 C 323.566406 474.003906 322.4375 474.820312 321.179688 474.820312 Z M 308.3125 472.625 C 312.464844 472.625 316.617188 473.066406 320.738281 473.953125 C 321.796875 474.179688 322.832031 473.566406 323.101562 472.554688 C 323.222656 472.097656 323.148438 471.613281 322.886719 471.191406 C 322.597656 470.71875 322.105469 470.378906 321.53125 470.253906 C 312.757812 468.371094 303.863281 468.371094 295.09375 470.253906 C 294.523438 470.378906 294.027344 470.71875 293.738281 471.191406 C 293.480469 471.613281 293.40625 472.097656 293.523438 472.554688 C 293.792969 473.566406 294.832031 474.179688 295.886719 473.953125 C 300.007812 473.066406 304.160156 472.625 308.3125 472.625 Z M 308.3125 472.625 " fill-opacity="1" fill-rule="nonzero"/><path fill="#f5f5dc" d="M 111.324219 471.726562 L 115.136719 471.726562 L 115.136719 476 L 111.324219 476 Z M 111.324219 471.726562 " fill-opacity="1" fill-rule="nonzero"/><path fill="#000000" d="M 115.546875 476.410156 L 110.914062 476.410156 L 110.914062 471.316406 L 115.546875 471.316406 Z M 111.734375 475.589844 L 114.726562 475.589844 L 114.726562 472.136719 L 111.734375 472.136719 Z M 111.734375 475.589844 " fill-opacity="1" fill-rule="nonzero"/><path fill="#f5f5dc" d="M 124.34375 471.726562 L 128.15625 471.726562 L 128.15625 476 L 124.34375 476 Z M 124.34375 471.726562 " fill-opacity="1" fill-rule="nonzero"/><path fill="#000000" d="M 128.566406 476.410156 L 123.933594 476.410156 L 123.933594 471.316406 L 128.566406 471.316406 Z M 124.753906 475.589844 L 127.746094 475.589844 L 127.746094 472.136719 L 124.753906 472.136719 Z M 124.753906 475.589844 " fill-opacity="1" fill-rule="nonzero"/><g clip-path="url(#f6a765e87f)"><path fill="#f5f5dc" d="M 134.992188 483.460938 L 137.707031 500.757812 C 138.410156 505.242188 136.070312 509.144531 132.433594 509.144531 L 106.996094 509.144531 C 103.359375 509.144531 101.023438 505.242188 101.726562 500.757812 L 104.4375 483.460938 C 105.097656 479.261719 108.632812 476.117188 112.382812 476.117188 L 127.050781 476.117188 C 130.800781 476.117188 134.335938 479.261719 134.992188 483.460938 Z M 134.992188 483.460938 " fill-opacity="1" fill-rule="nonzero"/></g><g clip-path="url(#81f56031d1)"><path fill="#000000" d="M 132.433594 509.554688 L 106.996094 509.554688 C 105.449219 509.554688 104.019531 508.878906 102.972656 507.65625 C 101.519531 505.957031 100.902344 503.355469 101.320312 500.691406 L 104.03125 483.398438 C 104.710938 479.085938 108.375 475.707031 112.382812 475.707031 L 127.046875 475.707031 C 131.054688 475.707031 134.722656 479.085938 135.398438 483.398438 L 138.109375 500.695312 C 138.527344 503.355469 137.910156 505.960938 136.460938 507.65625 C 135.414062 508.878906 133.984375 509.554688 132.433594 509.554688 Z M 112.382812 476.527344 C 108.769531 476.527344 105.460938 479.601562 104.84375 483.523438 L 102.132812 500.820312 C 101.753906 503.246094 102.300781 505.605469 103.597656 507.121094 C 104.5 508.175781 105.675781 508.734375 107 508.734375 L 132.4375 508.734375 C 133.757812 508.734375 134.933594 508.175781 135.835938 507.121094 C 137.132812 505.605469 137.679688 503.25 137.300781 500.820312 L 134.585938 483.523438 C 133.972656 479.601562 130.660156 476.527344 127.050781 476.527344 Z M 112.382812 476.527344 " fill-opacity="1" fill-rule="nonzero"/></g><path fill="#f5f5dc" d="M 134.902344 472.660156 C 134.574219 473.890625 133.304688 474.621094 132.054688 474.355469 C 123.921875 472.605469 115.507812 472.605469 107.375 474.355469 C 106.125 474.621094 104.855469 473.890625 104.53125 472.660156 C 104.203125 471.433594 105.042969 470.148438 106.410156 469.851562 C 115.179688 467.96875 124.25 467.96875 133.023438 469.851562 C 134.390625 470.148438 135.226562 471.433594 134.902344 472.660156 Z M 134.902344 472.660156 " fill-opacity="1" fill-rule="nonzero"/><path fill="#000000" d="M 132.582031 474.820312 C 132.378906 474.820312 132.175781 474.800781 131.96875 474.757812 C 123.839844 473.011719 115.59375 473.011719 107.464844 474.757812 C 105.976562 475.074219 104.511719 474.199219 104.132812 472.765625 C 103.953125 472.089844 104.0625 471.375 104.441406 470.761719 C 104.847656 470.097656 105.535156 469.621094 106.324219 469.453125 C 115.210938 467.542969 124.222656 467.542969 133.109375 469.453125 C 133.898438 469.621094 134.582031 470.097656 134.992188 470.761719 C 135.367188 471.375 135.476562 472.085938 135.296875 472.765625 C 134.972656 474.003906 133.839844 474.820312 132.582031 474.820312 Z M 119.714844 472.625 C 123.867188 472.625 128.019531 473.066406 132.144531 473.953125 C 133.199219 474.179688 134.238281 473.566406 134.503906 472.554688 C 134.625 472.097656 134.550781 471.613281 134.292969 471.191406 C 134.003906 470.71875 133.507812 470.378906 132.9375 470.253906 C 124.164062 468.371094 115.269531 468.371094 106.496094 470.253906 C 105.925781 470.378906 105.433594 470.71875 105.144531 471.191406 C 104.882812 471.613281 104.808594 472.097656 104.929688 472.554688 C 105.195312 473.566406 106.234375 474.179688 107.292969 473.953125 C 111.410156 473.066406 115.5625 472.625 119.714844 472.625 Z M 119.714844 472.625 " fill-opacity="1" fill-rule="nonzero"/><path fill="#f5f5dc" d="M 205.625 471.726562 L 209.433594 471.726562 L 209.433594 476 L 205.625 476 Z M 205.625 471.726562 " fill-opacity="1" fill-rule="nonzero"/><path fill="#000000" d="M 209.847656 476.410156 L 205.210938 476.410156 L 205.210938 471.316406 L 209.847656 471.316406 Z M 206.035156 475.589844 L 209.023438 475.589844 L 209.023438 472.136719 L 206.035156 472.136719 Z M 206.035156 475.589844 " fill-opacity="1" fill-rule="nonzero"/><path fill="#f5f5dc" d="M 218.640625 471.726562 L 222.453125 471.726562 L 222.453125 476 L 218.640625 476 Z M 218.640625 471.726562 " fill-opacity="1" fill-rule="nonzero"/><path fill="#000000" d="M 222.863281 476.410156 L 218.230469 476.410156 L 218.230469 471.316406 L 222.863281 471.316406 Z M 219.050781 475.589844 L 222.042969 475.589844 L 222.042969 472.136719 L 219.050781 472.136719 Z M 219.050781 475.589844 " fill-opacity="1" fill-rule="nonzero"/><g clip-path="url(#5aa01503f7)"><path fill="#f5f5dc" d="M 229.289062 483.460938 L 232.003906 500.757812 C 232.707031 505.242188 230.371094 509.144531 226.730469 509.144531 L 201.296875 509.144531 C 197.65625 509.144531 195.320312 505.242188 196.023438 500.757812 L 198.738281 483.460938 C 199.394531 479.261719 202.929688 476.117188 206.683594 476.117188 L 221.347656 476.117188 C 225.097656 476.117188 228.632812 479.261719 229.289062 483.460938 Z M 229.289062 483.460938 " fill-opacity="1" fill-rule="nonzero"/></g><g clip-path="url(#4d6b2cae88)"><path fill="#000000" d="M 226.730469 509.554688 L 201.296875 509.554688 C 199.75 509.554688 198.320312 508.878906 197.269531 507.65625 C 195.816406 505.957031 195.199219 503.355469 195.617188 500.691406 L 198.328125 483.398438 C 199.007812 479.085938 202.675781 475.707031 206.679688 475.707031 L 221.34375 475.707031 C 225.351562 475.707031 229.019531 479.085938 229.695312 483.398438 L 232.410156 500.695312 C 232.824219 503.355469 232.207031 505.960938 230.757812 507.65625 C 229.710938 508.878906 228.28125 509.554688 226.730469 509.554688 Z M 206.679688 476.527344 C 203.070312 476.527344 199.757812 479.601562 199.140625 483.523438 L 196.429688 500.820312 C 196.050781 503.246094 196.597656 505.605469 197.894531 507.121094 C 198.796875 508.175781 199.976562 508.734375 201.296875 508.734375 L 226.734375 508.734375 C 228.054688 508.734375 229.230469 508.175781 230.132812 507.121094 C 231.429688 505.605469 231.980469 503.25 231.597656 500.820312 L 228.882812 483.523438 C 228.269531 479.601562 224.957031 476.527344 221.347656 476.527344 Z M 206.679688 476.527344 " fill-opacity="1" fill-rule="nonzero"/></g><path fill="#f5f5dc" d="M 229.199219 472.660156 C 228.875 473.890625 227.601562 474.621094 226.351562 474.355469 C 218.21875 472.605469 209.808594 472.605469 201.675781 474.355469 C 200.425781 474.621094 199.152344 473.890625 198.828125 472.660156 C 198.503906 471.433594 199.339844 470.148438 200.707031 469.851562 C 209.476562 467.96875 218.550781 467.96875 227.320312 469.851562 C 228.6875 470.148438 229.523438 471.433594 229.199219 472.660156 Z M 229.199219 472.660156 " fill-opacity="1" fill-rule="nonzero"/><path fill="#000000" d="M 226.878906 474.820312 C 226.679688 474.820312 226.472656 474.800781 226.265625 474.757812 C 218.136719 473.011719 209.890625 473.011719 201.761719 474.757812 C 200.273438 475.074219 198.808594 474.199219 198.429688 472.765625 C 198.25 472.089844 198.359375 471.375 198.738281 470.761719 C 199.144531 470.097656 199.832031 469.621094 200.621094 469.453125 C 209.507812 467.542969 218.519531 467.542969 227.40625 469.453125 C 228.195312 469.621094 228.882812 470.097656 229.289062 470.761719 C 229.667969 471.375 229.777344 472.085938 229.597656 472.765625 C 229.269531 474.003906 228.140625 474.820312 226.878906 474.820312 Z M 214.015625 472.625 C 218.167969 472.625 222.316406 473.066406 226.441406 473.953125 C 227.496094 474.179688 228.535156 473.566406 228.804688 472.554688 C 228.925781 472.097656 228.847656 471.613281 228.589844 471.191406 C 228.300781 470.71875 227.808594 470.378906 227.234375 470.253906 C 218.460938 468.371094 209.566406 468.371094 200.796875 470.253906 C 200.222656 470.378906 199.730469 470.71875 199.441406 471.191406 C 199.179688 471.613281 199.105469 472.097656 199.226562 472.554688 C 199.496094 473.566406 200.53125 474.179688 201.589844 473.953125 C 205.710938 473.066406 209.863281 472.625 214.015625 472.625 Z M 214.015625 472.625 " fill-opacity="1" fill-rule="nonzero"/><g clip-path="url(#8f23edcb69)"><g transform="matrix(1, 0, 0, 1, 0, 360)"><g clip-path="url(#56c49f9b6b)"><g clip-path="url(#73a52ddb49)"><g clip-path="url(#68b1819377)"><g transform="matrix(1, 0, 0, 1, 3, 3)"><g clip-path="url(#a0776ec9b8)"><g clip-path="url(#ed92068b5e)"><g clip-path="url(#9c3bf0d7bc)"><path fill="#f5f5dc" d="M 348.410156 0.859375 L 348.410156 74.804688 L 0.0664062 74.804688 L 0.0664062 0.859375 Z M 348.410156 0.859375 " fill-opacity="1" fill-rule="nonzero"/></g></g></g></g></g></g><g clip-path="url(#42890a5574)"><g clip-path="url(#29776fa68f)"><path stroke-linecap="butt" transform="matrix(0, 0.13353, -0.13353, 0, 351.406546, 3.860441)" fill="none" stroke-linejoin="miter" d="M 9.996771 0.00222008 L 543.758993 0.00222008 C 546.391822 0.00222008 548.93689 1.055352 550.809124 2.927586 C 552.710612 4.79982 553.763743 7.344888 553.763743 10.006971 L 553.763743 2598.692312 C 553.763743 2601.354395 552.710612 2603.899463 550.809124 2605.771697 C 548.93689 2607.643931 546.391822 2608.697063 543.758993 2608.697063 L 9.996771 2608.697063 C 7.334688 2608.697063 4.78962 2607.643931 2.917386 2605.771697 C 1.045152 2603.899463 -0.0079795 2601.354395 -0.0079795 2598.692312 L -0.0079795 10.006971 C -0.0079795 7.344888 1.045152 4.79982 2.917386 2.927586 C 4.78962 1.055352 7.334688 0.00222008 9.996771 0.00222008 Z M 9.996771 0.00222008 " stroke="#000000" stroke-width="10" stroke-opacity="1" stroke-miterlimit="4"/></g></g></g></g></g><path fill="#f5f5dc" d="M 24.175781 315.992188 L 27.988281 315.992188 L 27.988281 320.265625 L 24.175781 320.265625 Z M 24.175781 315.992188 " fill-opacity="1" fill-rule="nonzero"/><path fill="#000000" d="M 28.398438 320.675781 L 23.765625 320.675781 L 23.765625 315.582031 L 28.398438 315.582031 Z M 24.585938 319.855469 L 27.578125 319.855469 L 27.578125 316.402344 L 24.585938 316.402344 Z M 24.585938 319.855469 " fill-opacity="1" fill-rule="nonzero"/><path fill="#f5f5dc" d="M 37.195312 315.992188 L 41.007812 315.992188 L 41.007812 320.265625 L 37.195312 320.265625 Z M 37.195312 315.992188 " fill-opacity="1" fill-rule="nonzero"/><path fill="#000000" d="M 41.417969 320.675781 L 36.785156 320.675781 L 36.785156 315.582031 L 41.417969 315.582031 Z M 37.605469 319.855469 L 40.597656 319.855469 L 40.597656 316.402344 L 37.605469 316.402344 Z M 37.605469 319.855469 " fill-opacity="1" fill-rule="nonzero"/><path fill="#f5f5dc" d="M 47.84375 327.726562 L 50.558594 345.023438 C 51.261719 349.507812 48.925781 353.410156 45.285156 353.410156 L 19.847656 353.410156 C 16.210938 353.410156 13.875 349.507812 14.578125 345.023438 L 17.292969 327.726562 C 17.949219 323.527344 21.484375 320.382812 25.234375 320.382812 L 39.902344 320.382812 C 43.652344 320.382812 47.1875 323.527344 47.84375 327.726562 Z M 47.84375 327.726562 " fill-opacity="1" fill-rule="nonzero"/><g clip-path="url(#b4f13d9f23)"><path fill="#000000" d="M 45.285156 353.820312 L 19.847656 353.820312 C 18.300781 353.820312 16.871094 353.144531 15.824219 351.921875 C 14.371094 350.222656 13.753906 347.621094 14.171875 344.960938 L 16.882812 327.664062 C 17.5625 323.351562 21.230469 319.972656 25.234375 319.972656 L 39.898438 319.972656 C 43.90625 319.972656 47.574219 323.351562 48.25 327.664062 L 50.960938 344.960938 C 51.378906 347.621094 50.761719 350.226562 49.3125 351.921875 C 48.265625 353.144531 46.835938 353.820312 45.285156 353.820312 Z M 25.234375 320.792969 C 21.621094 320.792969 18.3125 323.867188 17.695312 327.792969 L 14.984375 345.085938 C 14.605469 347.515625 15.152344 349.871094 16.449219 351.386719 C 17.351562 352.441406 18.527344 353 19.851562 353 L 45.289062 353 C 46.609375 353 47.785156 352.441406 48.6875 351.386719 C 49.984375 349.871094 50.53125 347.515625 50.152344 345.085938 L 47.4375 327.792969 C 46.824219 323.867188 43.511719 320.792969 39.902344 320.792969 Z M 25.234375 320.792969 " fill-opacity="1" fill-rule="nonzero"/></g><path fill="#f5f5dc" d="M 47.753906 316.925781 C 47.425781 318.15625 46.15625 318.890625 44.90625 318.621094 C 36.773438 316.871094 28.359375 316.871094 20.230469 318.621094 C 18.976562 318.890625 17.707031 318.15625 17.382812 316.925781 C 17.058594 315.699219 17.894531 314.414062 19.261719 314.121094 C 28.03125 312.234375 37.105469 312.234375 45.875 314.121094 C 47.242188 314.414062 48.078125 315.699219 47.753906 316.925781 Z M 47.753906 316.925781 " fill-opacity="1" fill-rule="nonzero"/><path fill="#000000" d="M 45.433594 319.085938 C 45.230469 319.085938 45.027344 319.066406 44.820312 319.023438 C 36.691406 317.277344 28.445312 317.277344 20.316406 319.023438 C 18.828125 319.339844 17.363281 318.46875 16.984375 317.03125 C 16.804688 316.355469 16.914062 315.640625 17.292969 315.027344 C 17.699219 314.363281 18.386719 313.886719 19.175781 313.71875 C 28.0625 311.808594 37.074219 311.808594 45.960938 313.71875 C 46.75 313.886719 47.4375 314.363281 47.84375 315.027344 C 48.21875 315.640625 48.328125 316.351562 48.152344 317.03125 C 47.824219 318.269531 46.691406 319.085938 45.433594 319.085938 Z M 32.570312 316.890625 C 36.722656 316.890625 40.871094 317.332031 44.996094 318.21875 C 46.050781 318.445312 47.089844 317.832031 47.355469 316.824219 C 47.476562 316.363281 47.402344 315.878906 47.144531 315.457031 C 46.855469 314.984375 46.359375 314.644531 45.789062 314.523438 C 37.015625 312.636719 28.121094 312.636719 19.347656 314.523438 C 18.777344 314.644531 18.285156 314.984375 17.996094 315.457031 C 17.734375 315.878906 17.660156 316.363281 17.78125 316.824219 C 18.046875 317.832031 19.085938 318.445312 20.144531 318.21875 C 24.265625 317.332031 28.417969 316.890625 32.570312 316.890625 Z M 32.570312 316.890625 " fill-opacity="1" fill-rule="nonzero"/><path fill="#f5f5dc" d="M 299.921875 315.992188 L 303.734375 315.992188 L 303.734375 320.265625 L 299.921875 320.265625 Z M 299.921875 315.992188 " fill-opacity="1" fill-rule="nonzero"/><path fill="#000000" d="M 304.144531 320.675781 L 299.507812 320.675781 L 299.507812 315.582031 L 304.144531 315.582031 Z M 300.332031 319.855469 L 303.320312 319.855469 L 303.320312 316.402344 L 300.332031 316.402344 Z M 300.332031 319.855469 " fill-opacity="1" fill-rule="nonzero"/><path fill="#f5f5dc" d="M 312.941406 315.992188 L 316.753906 315.992188 L 316.753906 320.265625 L 312.941406 320.265625 Z M 312.941406 315.992188 " fill-opacity="1" fill-rule="nonzero"/><path fill="#000000" d="M 317.164062 320.675781 L 312.527344 320.675781 L 312.527344 315.582031 L 317.164062 315.582031 Z M 313.351562 319.855469 L 316.339844 319.855469 L 316.339844 316.402344 L 313.351562 316.402344 Z M 313.351562 319.855469 " fill-opacity="1" fill-rule="nonzero"/><g clip-path="url(#678afd606e)"><path fill="#f5f5dc" d="M 323.589844 327.726562 L 326.300781 345.023438 C 327.003906 349.507812 324.667969 353.410156 321.03125 353.410156 L 295.59375 353.410156 C 291.957031 353.410156 289.617188 349.507812 290.320312 345.023438 L 293.035156 327.726562 C 293.691406 323.527344 297.226562 320.382812 300.980469 320.382812 L 315.644531 320.382812 C 319.394531 320.382812 322.929688 323.527344 323.589844 327.726562 Z M 323.589844 327.726562 " fill-opacity="1" fill-rule="nonzero"/></g><g clip-path="url(#d031445f73)"><path fill="#000000" d="M 321.03125 353.820312 L 295.59375 353.820312 C 294.046875 353.820312 292.617188 353.144531 291.566406 351.921875 C 290.113281 350.222656 289.5 347.621094 289.917969 344.960938 L 292.628906 327.664062 C 293.304688 323.351562 296.972656 319.972656 300.976562 319.972656 L 315.644531 319.972656 C 319.648438 319.972656 323.316406 323.351562 323.992188 327.664062 L 326.707031 344.960938 C 327.125 347.621094 326.507812 350.226562 325.054688 351.921875 C 324.007812 353.144531 322.578125 353.820312 321.03125 353.820312 Z M 300.976562 320.792969 C 297.367188 320.792969 294.054688 323.867188 293.441406 327.792969 L 290.730469 345.085938 C 290.347656 347.515625 290.894531 349.871094 292.191406 351.386719 C 293.09375 352.441406 294.273438 353 295.59375 353 L 321.03125 353 C 322.355469 353 323.53125 352.441406 324.429688 351.386719 C 325.730469 349.871094 326.277344 347.515625 325.894531 345.085938 L 323.183594 327.792969 C 322.566406 323.867188 319.257812 320.792969 315.644531 320.792969 Z M 300.976562 320.792969 " fill-opacity="1" fill-rule="nonzero"/></g><path fill="#f5f5dc" d="M 323.496094 316.925781 C 323.171875 318.15625 321.902344 318.890625 320.652344 318.621094 C 312.515625 316.871094 304.105469 316.871094 295.972656 318.621094 C 294.722656 318.890625 293.453125 318.15625 293.125 316.925781 C 292.800781 315.699219 293.636719 314.414062 295.003906 314.121094 C 303.777344 312.234375 312.847656 312.234375 321.617188 314.121094 C 322.984375 314.414062 323.824219 315.699219 323.496094 316.925781 Z M 323.496094 316.925781 " fill-opacity="1" fill-rule="nonzero"/><path fill="#000000" d="M 321.179688 319.085938 C 320.976562 319.085938 320.769531 319.066406 320.5625 319.023438 C 312.433594 317.277344 304.1875 317.277344 296.058594 319.023438 C 294.570312 319.339844 293.109375 318.46875 292.730469 317.03125 C 292.550781 316.355469 292.660156 315.640625 293.035156 315.027344 C 293.445312 314.363281 294.128906 313.886719 294.917969 313.71875 C 303.804688 311.808594 312.816406 311.808594 321.703125 313.71875 C 322.492188 313.886719 323.179688 314.363281 323.585938 315.027344 C 323.964844 315.640625 324.074219 316.351562 323.894531 317.03125 C 323.566406 318.269531 322.4375 319.085938 321.179688 319.085938 Z M 308.3125 316.890625 C 312.464844 316.890625 316.617188 317.332031 320.738281 318.21875 C 321.796875 318.445312 322.832031 317.832031 323.101562 316.824219 C 323.222656 316.363281 323.148438 315.878906 322.886719 315.457031 C 322.597656 314.984375 322.105469 314.644531 321.53125 314.523438 C 312.757812 312.636719 303.863281 312.636719 295.09375 314.523438 C 294.523438 314.644531 294.027344 314.984375 293.738281 315.457031 C 293.480469 315.878906 293.40625 316.363281 293.523438 316.824219 C 293.792969 317.832031 294.832031 318.445312 295.886719 318.21875 C 300.007812 317.332031 304.160156 316.890625 308.3125 316.890625 Z M 308.3125 316.890625 " fill-opacity="1" fill-rule="nonzero"/><path fill="#f5f5dc" d="M 111.324219 315.992188 L 115.136719 315.992188 L 115.136719 320.265625 L 111.324219 320.265625 Z M 111.324219 315.992188 " fill-opacity="1" fill-rule="nonzero"/><path fill="#000000" d="M 115.546875 320.675781 L 110.914062 320.675781 L 110.914062 315.582031 L 115.546875 315.582031 Z M 111.734375 319.855469 L 114.726562 319.855469 L 114.726562 316.402344 L 111.734375 316.402344 Z M 111.734375 319.855469 " fill-opacity="1" fill-rule="nonzero"/><path fill="#f5f5dc" d="M 124.34375 315.992188 L 128.15625 315.992188 L 128.15625 320.265625 L 124.34375 320.265625 Z M 124.34375 315.992188 " fill-opacity="1" fill-rule="nonzero"/><path fill="#000000" d="M 128.566406 320.675781 L 123.933594 320.675781 L 123.933594 315.582031 L 128.566406 315.582031 Z M 124.753906 319.855469 L 127.746094 319.855469 L 127.746094 316.402344 L 124.753906 316.402344 Z M 124.753906 319.855469 " fill-opacity="1" fill-rule="nonzero"/><path fill="#f5f5dc" d="M 134.992188 327.726562 L 137.707031 345.023438 C 138.410156 349.507812 136.070312 353.410156 132.433594 353.410156 L 106.996094 353.410156 C 103.359375 353.410156 101.023438 349.507812 101.726562 345.023438 L 104.4375 327.726562 C 105.097656 323.527344 108.632812 320.382812 112.382812 320.382812 L 127.050781 320.382812 C 130.800781 320.382812 134.335938 323.527344 134.992188 327.726562 Z M 134.992188 327.726562 " fill-opacity="1" fill-rule="nonzero"/><g clip-path="url(#b166657ce0)"><path fill="#000000" d="M 132.433594 353.820312 L 106.996094 353.820312 C 105.449219 353.820312 104.019531 353.144531 102.972656 351.921875 C 101.519531 350.222656 100.902344 347.621094 101.320312 344.960938 L 104.03125 327.664062 C 104.710938 323.351562 108.375 319.972656 112.382812 319.972656 L 127.046875 319.972656 C 131.054688 319.972656 134.722656 323.351562 135.398438 327.664062 L 138.109375 344.960938 C 138.527344 347.621094 137.910156 350.226562 136.460938 351.921875 C 135.414062 353.144531 133.984375 353.820312 132.433594 353.820312 Z M 112.382812 320.792969 C 108.769531 320.792969 105.460938 323.867188 104.84375 327.792969 L 102.132812 345.085938 C 101.753906 347.515625 102.300781 349.871094 103.597656 351.386719 C 104.5 352.441406 105.675781 353 107 353 L 132.4375 353 C 133.757812 353 134.933594 352.441406 135.835938 351.386719 C 137.132812 349.871094 137.679688 347.515625 137.300781 345.085938 L 134.585938 327.792969 C 133.972656 323.867188 130.660156 320.792969 127.050781 320.792969 Z M 112.382812 320.792969 " fill-opacity="1" fill-rule="nonzero"/></g><path fill="#f5f5dc" d="M 134.902344 316.925781 C 134.574219 318.15625 133.304688 318.890625 132.054688 318.621094 C 123.921875 316.871094 115.507812 316.871094 107.375 318.621094 C 106.125 318.890625 104.855469 318.15625 104.53125 316.925781 C 104.203125 315.699219 105.042969 314.414062 106.410156 314.121094 C 115.179688 312.234375 124.25 312.234375 133.023438 314.121094 C 134.390625 314.414062 135.226562 315.699219 134.902344 316.925781 Z M 134.902344 316.925781 " fill-opacity="1" fill-rule="nonzero"/><path fill="#000000" d="M 132.582031 319.085938 C 132.378906 319.085938 132.175781 319.066406 131.96875 319.023438 C 123.839844 317.277344 115.59375 317.277344 107.464844 319.023438 C 105.976562 319.339844 104.511719 318.46875 104.132812 317.03125 C 103.953125 316.355469 104.0625 315.640625 104.441406 315.027344 C 104.847656 314.363281 105.535156 313.886719 106.324219 313.71875 C 115.210938 311.808594 124.222656 311.808594 133.109375 313.71875 C 133.898438 313.886719 134.582031 314.363281 134.992188 315.027344 C 135.367188 315.640625 135.476562 316.351562 135.296875 317.03125 C 134.972656 318.269531 133.839844 319.085938 132.582031 319.085938 Z M 119.714844 316.890625 C 123.867188 316.890625 128.019531 317.332031 132.144531 318.21875 C 133.199219 318.445312 134.238281 317.832031 134.503906 316.824219 C 134.625 316.363281 134.550781 315.878906 134.292969 315.457031 C 134.003906 314.984375 133.507812 314.644531 132.9375 314.523438 C 124.164062 312.636719 115.269531 312.636719 106.496094 314.523438 C 105.925781 314.644531 105.433594 314.984375 105.144531 315.457031 C 104.882812 315.878906 104.808594 316.363281 104.929688 316.824219 C 105.195312 317.832031 106.234375 318.445312 107.292969 318.21875 C 111.410156 317.332031 115.5625 316.890625 119.714844 316.890625 Z M 119.714844 316.890625 " fill-opacity="1" fill-rule="nonzero"/><path fill="#f5f5dc" d="M 205.625 315.992188 L 209.433594 315.992188 L 209.433594 320.265625 L 205.625 320.265625 Z M 205.625 315.992188 " fill-opacity="1" fill-rule="nonzero"/><path fill="#000000" d="M 209.847656 320.675781 L 205.210938 320.675781 L 205.210938 315.582031 L 209.847656 315.582031 Z M 206.035156 319.855469 L 209.023438 319.855469 L 209.023438 316.402344 L 206.035156 316.402344 Z M 206.035156 319.855469 " fill-opacity="1" fill-rule="nonzero"/><path fill="#f5f5dc" d="M 218.640625 315.992188 L 222.453125 315.992188 L 222.453125 320.265625 L 218.640625 320.265625 Z M 218.640625 315.992188 " fill-opacity="1" fill-rule="nonzero"/><path fill="#000000" d="M 222.863281 320.675781 L 218.230469 320.675781 L 218.230469 315.582031 L 222.863281 315.582031 Z M 219.050781 319.855469 L 222.042969 319.855469 L 222.042969 316.402344 L 219.050781 316.402344 Z M 219.050781 319.855469 " fill-opacity="1" fill-rule="nonzero"/><g clip-path="url(#5c7a0f9b2f)"><path fill="#f5f5dc" d="M 229.289062 327.726562 L 232.003906 345.023438 C 232.707031 349.507812 230.371094 353.410156 226.730469 353.410156 L 201.296875 353.410156 C 197.65625 353.410156 195.320312 349.507812 196.023438 345.023438 L 198.738281 327.726562 C 199.394531 323.527344 202.929688 320.382812 206.683594 320.382812 L 221.347656 320.382812 C 225.097656 320.382812 228.632812 323.527344 229.289062 327.726562 Z M 229.289062 327.726562 " fill-opacity="1" fill-rule="nonzero"/></g><g clip-path="url(#cf65fd0e6c)"><path fill="#000000" d="M 226.730469 353.820312 L 201.296875 353.820312 C 199.75 353.820312 198.320312 353.144531 197.269531 351.921875 C 195.816406 350.222656 195.199219 347.621094 195.617188 344.960938 L 198.328125 327.664062 C 199.007812 323.351562 202.675781 319.972656 206.679688 319.972656 L 221.34375 319.972656 C 225.351562 319.972656 229.019531 323.351562 229.695312 327.664062 L 232.410156 344.960938 C 232.824219 347.621094 232.207031 350.226562 230.757812 351.921875 C 229.710938 353.144531 228.28125 353.820312 226.730469 353.820312 Z M 206.679688 320.792969 C 203.070312 320.792969 199.757812 323.867188 199.140625 327.792969 L 196.429688 345.085938 C 196.050781 347.515625 196.597656 349.871094 197.894531 351.386719 C 198.796875 352.441406 199.976562 353 201.296875 353 L 226.734375 353 C 228.054688 353 229.230469 352.441406 230.132812 351.386719 C 231.429688 349.871094 231.980469 347.515625 231.597656 345.085938 L 228.882812 327.792969 C 228.269531 323.867188 224.957031 320.792969 221.347656 320.792969 Z M 206.679688 320.792969 " fill-opacity="1" fill-rule="nonzero"/></g><path fill="#f5f5dc" d="M 229.199219 316.925781 C 228.875 318.15625 227.601562 318.890625 226.351562 318.621094 C 218.21875 316.871094 209.808594 316.871094 201.675781 318.621094 C 200.425781 318.890625 199.152344 318.15625 198.828125 316.925781 C 198.503906 315.699219 199.339844 314.414062 200.707031 314.121094 C 209.476562 312.234375 218.550781 312.234375 227.320312 314.121094 C 228.6875 314.414062 229.523438 315.699219 229.199219 316.925781 Z M 229.199219 316.925781 " fill-opacity="1" fill-rule="nonzero"/><path fill="#000000" d="M 226.878906 319.085938 C 226.679688 319.085938 226.472656 319.066406 226.265625 319.023438 C 218.136719 317.277344 209.890625 317.277344 201.761719 319.023438 C 200.273438 319.339844 198.808594 318.46875 198.429688 317.03125 C 198.25 316.355469 198.359375 315.640625 198.738281 315.027344 C 199.144531 314.363281 199.832031 313.886719 200.621094 313.71875 C 209.507812 311.808594 218.519531 311.808594 227.40625 313.71875 C 228.195312 313.886719 228.882812 314.363281 229.289062 315.027344 C 229.667969 315.640625 229.777344 316.351562 229.597656 317.03125 C 229.269531 318.269531 228.140625 319.085938 226.878906 319.085938 Z M 214.015625 316.890625 C 218.167969 316.890625 222.316406 317.332031 226.441406 318.21875 C 227.496094 318.445312 228.535156 317.832031 228.804688 316.824219 C 228.925781 316.363281 228.847656 315.878906 228.589844 315.457031 C 228.300781 314.984375 227.808594 314.644531 227.234375 314.523438 C 218.460938 312.636719 209.566406 312.636719 200.796875 314.523438 C 200.222656 314.644531 199.730469 314.984375 199.441406 315.457031 C 199.179688 315.878906 199.105469 316.363281 199.226562 316.824219 C 199.496094 317.832031 200.53125 318.445312 201.589844 318.21875 C 205.710938 317.332031 209.863281 316.890625 214.015625 316.890625 Z M 214.015625 316.890625 " fill-opacity="1" fill-rule="nonzero"/><g clip-path="url(#bc94e6216f)"><g transform="matrix(1, 0, 0, 1, 0, 205)"><g clip-path="url(#25de4ddd64)"><g clip-path="url(#11fb0012dd)"><g clip-path="url(#3e0a3d7a00)"><g transform="matrix(1, 0, 0, 1, 3, 3)"><g clip-path="url(#537431f099)"><g clip-path="url(#2a4525b7d3)"><g clip-path="url(#85d41de3ee)"><path fill="#f5f5dc" d="M 348.410156 0.0898438 L 348.410156 74.035156 L 0.0664062 74.035156 L 0.0664062 0.0898438 Z M 348.410156 0.0898438 " fill-opacity="1" fill-rule="nonzero"/></g></g></g></g></g></g><g clip-path="url(#7ca5bfc531)"><g clip-path="url(#45a2b23ae4)"><path stroke-linecap="butt" transform="matrix(0, 0.13353, -0.13353, 0, 351.406546, 3.089652)" fill="none" stroke-linejoin="miter" d="M 10.006183 0.00222008 L 543.739151 0.00222008 C 546.401234 0.00222008 548.946302 1.055352 550.818536 2.927586 C 552.69077 4.79982 553.743902 7.344888 553.743902 10.006971 L 553.743902 2598.692312 C 553.743902 2601.354395 552.69077 2603.899463 550.818536 2605.771697 C 548.946302 2607.643931 546.401234 2608.697063 543.739151 2608.697063 L 10.006183 2608.697063 C 7.344101 2608.697063 4.799033 2607.643931 2.926799 2605.771697 C 1.054564 2603.899463 0.00143285 2601.354395 0.00143285 2598.692312 L 0.00143285 10.006971 C 0.00143285 7.344888 1.054564 4.79982 2.926799 2.927586 C 4.799033 1.055352 7.344101 0.00222008 10.006183 0.00222008 Z M 10.006183 0.00222008 " stroke="#000000" stroke-width="10" stroke-opacity="1" stroke-miterlimit="4"/></g></g></g></g></g><path fill="#f5f5dc" d="M 24.175781 160.222656 L 27.988281 160.222656 L 27.988281 164.492188 L 24.175781 164.492188 Z M 24.175781 160.222656 " fill-opacity="1" fill-rule="nonzero"/><path fill="#000000" d="M 28.398438 164.90625 L 23.765625 164.90625 L 23.765625 159.8125 L 28.398438 159.8125 Z M 24.585938 164.082031 L 27.578125 164.082031 L 27.578125 160.632812 L 24.585938 160.632812 Z M 24.585938 164.082031 " fill-opacity="1" fill-rule="nonzero"/><path fill="#f5f5dc" d="M 37.195312 160.222656 L 41.007812 160.222656 L 41.007812 164.492188 L 37.195312 164.492188 Z M 37.195312 160.222656 " fill-opacity="1" fill-rule="nonzero"/><path fill="#000000" d="M 41.417969 164.90625 L 36.785156 164.90625 L 36.785156 159.8125 L 41.417969 159.8125 Z M 37.605469 164.082031 L 40.597656 164.082031 L 40.597656 160.632812 L 37.605469 160.632812 Z M 37.605469 164.082031 " fill-opacity="1" fill-rule="nonzero"/><path fill="#f5f5dc" d="M 47.84375 171.957031 L 50.558594 189.25 C 51.261719 193.738281 48.925781 197.640625 45.285156 197.640625 L 19.847656 197.640625 C 16.210938 197.640625 13.875 193.738281 14.578125 189.25 L 17.292969 171.957031 C 17.949219 167.757812 21.484375 164.609375 25.234375 164.609375 L 39.902344 164.609375 C 43.652344 164.609375 47.1875 167.757812 47.84375 171.957031 Z M 47.84375 171.957031 " fill-opacity="1" fill-rule="nonzero"/><g clip-path="url(#6283d51834)"><path fill="#000000" d="M 45.285156 198.050781 L 19.847656 198.050781 C 18.300781 198.050781 16.871094 197.375 15.824219 196.152344 C 14.371094 194.453125 13.753906 191.851562 14.171875 189.1875 L 16.882812 171.894531 C 17.5625 167.578125 21.230469 164.199219 25.234375 164.199219 L 39.898438 164.199219 C 43.90625 164.199219 47.574219 167.578125 48.25 171.894531 L 50.960938 189.191406 C 51.378906 191.851562 50.761719 194.453125 49.3125 196.152344 C 48.265625 197.375 46.835938 198.050781 45.285156 198.050781 Z M 25.234375 165.023438 C 21.621094 165.023438 18.3125 168.097656 17.695312 172.019531 L 14.984375 189.316406 C 14.605469 191.742188 15.152344 194.097656 16.449219 195.617188 C 17.351562 196.671875 18.527344 197.230469 19.851562 197.230469 L 45.289062 197.230469 C 46.609375 197.230469 47.785156 196.671875 48.6875 195.617188 C 49.984375 194.101562 50.53125 191.746094 50.152344 189.316406 L 47.4375 172.019531 C 46.824219 168.097656 43.511719 165.023438 39.902344 165.023438 Z M 25.234375 165.023438 " fill-opacity="1" fill-rule="nonzero"/></g><g clip-path="url(#73d80a4828)"><path fill="#f5f5dc" d="M 47.753906 161.15625 C 47.425781 162.386719 46.15625 163.117188 44.90625 162.847656 C 36.773438 161.101562 28.359375 161.101562 20.230469 162.847656 C 18.976562 163.117188 17.707031 162.386719 17.382812 161.15625 C 17.058594 159.929688 17.894531 158.640625 19.261719 158.347656 C 28.03125 156.464844 37.105469 156.464844 45.875 158.347656 C 47.242188 158.640625 48.078125 159.929688 47.753906 161.15625 Z M 47.753906 161.15625 " fill-opacity="1" fill-rule="nonzero"/></g><g clip-path="url(#d3b510d32e)"><path fill="#000000" d="M 45.433594 163.316406 C 45.230469 163.316406 45.027344 163.296875 44.820312 163.25 C 36.691406 161.507812 28.445312 161.507812 20.316406 163.25 C 18.828125 163.570312 17.363281 162.695312 16.984375 161.261719 C 16.804688 160.585938 16.914062 159.871094 17.292969 159.257812 C 17.699219 158.59375 18.386719 158.117188 19.175781 157.949219 C 28.0625 156.039062 37.074219 156.039062 45.960938 157.945312 C 46.75 158.117188 47.4375 158.59375 47.84375 159.253906 C 48.21875 159.871094 48.328125 160.582031 48.152344 161.261719 C 47.824219 162.496094 46.691406 163.316406 45.433594 163.316406 Z M 32.570312 161.121094 C 36.722656 161.121094 40.871094 161.5625 44.996094 162.449219 C 46.050781 162.675781 47.089844 162.0625 47.355469 161.050781 C 47.476562 160.59375 47.402344 160.109375 47.144531 159.6875 C 46.855469 159.214844 46.359375 158.875 45.789062 158.75 C 37.015625 156.867188 28.121094 156.867188 19.347656 158.75 C 18.777344 158.871094 18.285156 159.214844 17.996094 159.6875 C 17.734375 160.109375 17.660156 160.59375 17.78125 161.050781 C 18.046875 162.0625 19.085938 162.675781 20.144531 162.449219 C 24.265625 161.5625 28.417969 161.121094 32.570312 161.121094 Z M 32.570312 161.121094 " fill-opacity="1" fill-rule="nonzero"/></g><path fill="#f5f5dc" d="M 299.921875 160.222656 L 303.734375 160.222656 L 303.734375 164.492188 L 299.921875 164.492188 Z M 299.921875 160.222656 " fill-opacity="1" fill-rule="nonzero"/><path fill="#000000" d="M 304.144531 164.90625 L 299.507812 164.90625 L 299.507812 159.8125 L 304.144531 159.8125 Z M 300.332031 164.082031 L 303.320312 164.082031 L 303.320312 160.632812 L 300.332031 160.632812 Z M 300.332031 164.082031 " fill-opacity="1" fill-rule="nonzero"/><path fill="#f5f5dc" d="M 312.941406 160.222656 L 316.753906 160.222656 L 316.753906 164.492188 L 312.941406 164.492188 Z M 312.941406 160.222656 " fill-opacity="1" fill-rule="nonzero"/><path fill="#000000" d="M 317.164062 164.90625 L 312.527344 164.90625 L 312.527344 159.8125 L 317.164062 159.8125 Z M 313.351562 164.082031 L 316.339844 164.082031 L 316.339844 160.632812 L 313.351562 160.632812 Z M 313.351562 164.082031 " fill-opacity="1" fill-rule="nonzero"/><g clip-path="url(#455b911a85)"><path fill="#f5f5dc" d="M 323.589844 171.957031 L 326.300781 189.25 C 327.003906 193.738281 324.667969 197.640625 321.03125 197.640625 L 295.59375 197.640625 C 291.957031 197.640625 289.617188 193.738281 290.320312 189.25 L 293.035156 171.957031 C 293.691406 167.757812 297.226562 164.609375 300.980469 164.609375 L 315.644531 164.609375 C 319.394531 164.609375 322.929688 167.757812 323.589844 171.957031 Z M 323.589844 171.957031 " fill-opacity="1" fill-rule="nonzero"/></g><g clip-path="url(#409076cc60)"><path fill="#000000" d="M 321.03125 198.050781 L 295.59375 198.050781 C 294.046875 198.050781 292.617188 197.375 291.566406 196.152344 C 290.113281 194.453125 289.5 191.851562 289.917969 189.1875 L 292.628906 171.894531 C 293.304688 167.578125 296.972656 164.199219 300.976562 164.199219 L 315.644531 164.199219 C 319.648438 164.199219 323.316406 167.578125 323.992188 171.894531 L 326.707031 189.191406 C 327.125 191.851562 326.507812 194.453125 325.054688 196.152344 C 324.007812 197.375 322.578125 198.050781 321.03125 198.050781 Z M 300.976562 165.023438 C 297.367188 165.023438 294.054688 168.097656 293.441406 172.019531 L 290.730469 189.316406 C 290.347656 191.742188 290.894531 194.097656 292.191406 195.617188 C 293.09375 196.671875 294.273438 197.230469 295.59375 197.230469 L 321.03125 197.230469 C 322.355469 197.230469 323.53125 196.671875 324.429688 195.617188 C 325.730469 194.101562 326.277344 191.746094 325.894531 189.316406 L 323.183594 172.019531 C 322.566406 168.097656 319.257812 165.023438 315.644531 165.023438 Z M 300.976562 165.023438 " fill-opacity="1" fill-rule="nonzero"/></g><g clip-path="url(#55001ca22c)"><path fill="#f5f5dc" d="M 323.496094 161.15625 C 323.171875 162.386719 321.902344 163.117188 320.652344 162.847656 C 312.515625 161.101562 304.105469 161.101562 295.972656 162.847656 C 294.722656 163.117188 293.453125 162.386719 293.125 161.15625 C 292.800781 159.929688 293.636719 158.640625 295.003906 158.347656 C 303.777344 156.464844 312.847656 156.464844 321.617188 158.347656 C 322.984375 158.640625 323.824219 159.929688 323.496094 161.15625 Z M 323.496094 161.15625 " fill-opacity="1" fill-rule="nonzero"/></g><g clip-path="url(#312821acf3)"><path fill="#000000" d="M 321.179688 163.316406 C 320.976562 163.316406 320.769531 163.296875 320.5625 163.25 C 312.433594 161.507812 304.1875 161.507812 296.058594 163.25 C 294.570312 163.570312 293.109375 162.695312 292.730469 161.261719 C 292.550781 160.585938 292.660156 159.871094 293.035156 159.257812 C 293.445312 158.59375 294.128906 158.117188 294.917969 157.949219 C 303.804688 156.039062 312.816406 156.039062 321.703125 157.945312 C 322.492188 158.117188 323.179688 158.59375 323.585938 159.253906 C 323.964844 159.871094 324.074219 160.582031 323.894531 161.261719 C 323.566406 162.496094 322.4375 163.316406 321.179688 163.316406 Z M 308.3125 161.121094 C 312.464844 161.121094 316.617188 161.5625 320.738281 162.449219 C 321.796875 162.675781 322.832031 162.0625 323.101562 161.050781 C 323.222656 160.59375 323.148438 160.109375 322.886719 159.6875 C 322.597656 159.214844 322.105469 158.875 321.53125 158.75 C 312.757812 156.867188 303.863281 156.867188 295.09375 158.75 C 294.523438 158.871094 294.027344 159.214844 293.738281 159.6875 C 293.480469 160.109375 293.40625 160.59375 293.523438 161.050781 C 293.792969 162.0625 294.832031 162.675781 295.886719 162.449219 C 300.007812 161.5625 304.160156 161.121094 308.3125 161.121094 Z M 308.3125 161.121094 " fill-opacity="1" fill-rule="nonzero"/></g><path fill="#f5f5dc" d="M 111.324219 160.222656 L 115.136719 160.222656 L 115.136719 164.492188 L 111.324219 164.492188 Z M 111.324219 160.222656 " fill-opacity="1" fill-rule="nonzero"/><path fill="#000000" d="M 115.546875 164.90625 L 110.914062 164.90625 L 110.914062 159.8125 L 115.546875 159.8125 Z M 111.734375 164.082031 L 114.726562 164.082031 L 114.726562 160.632812 L 111.734375 160.632812 Z M 111.734375 164.082031 " fill-opacity="1" fill-rule="nonzero"/><path fill="#f5f5dc" d="M 124.34375 160.222656 L 128.15625 160.222656 L 128.15625 164.492188 L 124.34375 164.492188 Z M 124.34375 160.222656 " fill-opacity="1" fill-rule="nonzero"/><path fill="#000000" d="M 128.566406 164.90625 L 123.933594 164.90625 L 123.933594 159.8125 L 128.566406 159.8125 Z M 124.753906 164.082031 L 127.746094 164.082031 L 127.746094 160.632812 L 124.753906 160.632812 Z M 124.753906 164.082031 " fill-opacity="1" fill-rule="nonzero"/><path fill="#f5f5dc" d="M 134.992188 171.957031 L 137.707031 189.25 C 138.410156 193.738281 136.070312 197.640625 132.433594 197.640625 L 106.996094 197.640625 C 103.359375 197.640625 101.023438 193.738281 101.726562 189.25 L 104.4375 171.957031 C 105.097656 167.757812 108.632812 164.609375 112.382812 164.609375 L 127.050781 164.609375 C 130.800781 164.609375 134.335938 167.757812 134.992188 171.957031 Z M 134.992188 171.957031 " fill-opacity="1" fill-rule="nonzero"/><g clip-path="url(#15248a6a45)"><path fill="#000000" d="M 132.433594 198.050781 L 106.996094 198.050781 C 105.449219 198.050781 104.019531 197.375 102.972656 196.152344 C 101.519531 194.453125 100.902344 191.851562 101.320312 189.1875 L 104.03125 171.894531 C 104.710938 167.578125 108.375 164.199219 112.382812 164.199219 L 127.046875 164.199219 C 131.054688 164.199219 134.722656 167.578125 135.398438 171.894531 L 138.109375 189.191406 C 138.527344 191.851562 137.910156 194.453125 136.460938 196.152344 C 135.414062 197.375 133.984375 198.050781 132.433594 198.050781 Z M 112.382812 165.023438 C 108.769531 165.023438 105.460938 168.097656 104.84375 172.019531 L 102.132812 189.316406 C 101.753906 191.742188 102.300781 194.097656 103.597656 195.617188 C 104.5 196.671875 105.675781 197.230469 107 197.230469 L 132.4375 197.230469 C 133.757812 197.230469 134.933594 196.671875 135.835938 195.617188 C 137.132812 194.101562 137.679688 191.746094 137.300781 189.316406 L 134.585938 172.019531 C 133.972656 168.097656 130.660156 165.023438 127.050781 165.023438 Z M 112.382812 165.023438 " fill-opacity="1" fill-rule="nonzero"/></g><g clip-path="url(#dd8e8e7a49)"><path fill="#f5f5dc" d="M 134.902344 161.15625 C 134.574219 162.386719 133.304688 163.117188 132.054688 162.847656 C 123.921875 161.101562 115.507812 161.101562 107.375 162.847656 C 106.125 163.117188 104.855469 162.386719 104.53125 161.15625 C 104.203125 159.929688 105.042969 158.640625 106.410156 158.347656 C 115.179688 156.464844 124.25 156.464844 133.023438 158.347656 C 134.390625 158.640625 135.226562 159.929688 134.902344 161.15625 Z M 134.902344 161.15625 " fill-opacity="1" fill-rule="nonzero"/></g><g clip-path="url(#a0fa308ce0)"><path fill="#000000" d="M 132.582031 163.316406 C 132.378906 163.316406 132.175781 163.296875 131.96875 163.25 C 123.839844 161.507812 115.59375 161.507812 107.464844 163.25 C 105.976562 163.570312 104.511719 162.695312 104.132812 161.261719 C 103.953125 160.585938 104.0625 159.871094 104.441406 159.257812 C 104.847656 158.59375 105.535156 158.117188 106.324219 157.949219 C 115.210938 156.039062 124.222656 156.039062 133.109375 157.945312 C 133.898438 158.117188 134.582031 158.59375 134.992188 159.253906 C 135.367188 159.871094 135.476562 160.582031 135.296875 161.261719 C 134.972656 162.496094 133.839844 163.316406 132.582031 163.316406 Z M 119.714844 161.121094 C 123.867188 161.121094 128.019531 161.5625 132.144531 162.449219 C 133.199219 162.675781 134.238281 162.0625 134.503906 161.050781 C 134.625 160.59375 134.550781 160.109375 134.292969 159.6875 C 134.003906 159.214844 133.507812 158.875 132.9375 158.75 C 124.164062 156.867188 115.269531 156.867188 106.496094 158.75 C 105.925781 158.871094 105.433594 159.214844 105.144531 159.6875 C 104.882812 160.109375 104.808594 160.59375 104.929688 161.050781 C 105.195312 162.0625 106.234375 162.675781 107.292969 162.449219 C 111.410156 161.5625 115.5625 161.121094 119.714844 161.121094 Z M 119.714844 161.121094 " fill-opacity="1" fill-rule="nonzero"/></g><path fill="#f5f5dc" d="M 205.625 160.222656 L 209.433594 160.222656 L 209.433594 164.492188 L 205.625 164.492188 Z M 205.625 160.222656 " fill-opacity="1" fill-rule="nonzero"/><path fill="#000000" d="M 209.847656 164.90625 L 205.210938 164.90625 L 205.210938 159.8125 L 209.847656 159.8125 Z M 206.035156 164.082031 L 209.023438 164.082031 L 209.023438 160.632812 L 206.035156 160.632812 Z M 206.035156 164.082031 " fill-opacity="1" fill-rule="nonzero"/><path fill="#f5f5dc" d="M 218.640625 160.222656 L 222.453125 160.222656 L 222.453125 164.492188 L 218.640625 164.492188 Z M 218.640625 160.222656 " fill-opacity="1" fill-rule="nonzero"/><path fill="#000000" d="M 222.863281 164.90625 L 218.230469 164.90625 L 218.230469 159.8125 L 222.863281 159.8125 Z M 219.050781 164.082031 L 222.042969 164.082031 L 222.042969 160.632812 L 219.050781 160.632812 Z M 219.050781 164.082031 " fill-opacity="1" fill-rule="nonzero"/><g clip-path="url(#d36b51b74c)"><path fill="#f5f5dc" d="M 229.289062 171.957031 L 232.003906 189.25 C 232.707031 193.738281 230.371094 197.640625 226.730469 197.640625 L 201.296875 197.640625 C 197.65625 197.640625 195.320312 193.738281 196.023438 189.25 L 198.738281 171.957031 C 199.394531 167.757812 202.929688 164.609375 206.683594 164.609375 L 221.347656 164.609375 C 225.097656 164.609375 228.632812 167.757812 229.289062 171.957031 Z M 229.289062 171.957031 " fill-opacity="1" fill-rule="nonzero"/></g><g clip-path="url(#f7e9342ec9)"><path fill="#000000" d="M 226.730469 198.050781 L 201.296875 198.050781 C 199.75 198.050781 198.320312 197.375 197.269531 196.152344 C 195.816406 194.453125 195.199219 191.851562 195.617188 189.1875 L 198.328125 171.894531 C 199.007812 167.578125 202.675781 164.199219 206.679688 164.199219 L 221.34375 164.199219 C 225.351562 164.199219 229.019531 167.578125 229.695312 171.894531 L 232.410156 189.191406 C 232.824219 191.851562 232.207031 194.453125 230.757812 196.152344 C 229.710938 197.375 228.28125 198.050781 226.730469 198.050781 Z M 206.679688 165.023438 C 203.070312 165.023438 199.757812 168.097656 199.140625 172.019531 L 196.429688 189.316406 C 196.050781 191.742188 196.597656 194.097656 197.894531 195.617188 C 198.796875 196.671875 199.976562 197.230469 201.296875 197.230469 L 226.734375 197.230469 C 228.054688 197.230469 229.230469 196.671875 230.132812 195.617188 C 231.429688 194.101562 231.980469 191.746094 231.597656 189.316406 L 228.882812 172.019531 C 228.269531 168.097656 224.957031 165.023438 221.347656 165.023438 Z M 206.679688 165.023438 " fill-opacity="1" fill-rule="nonzero"/></g><g clip-path="url(#ee1809cab2)"><path fill="#f5f5dc" d="M 229.199219 161.15625 C 228.875 162.386719 227.601562 163.117188 226.351562 162.847656 C 218.21875 161.101562 209.808594 161.101562 201.675781 162.847656 C 200.425781 163.117188 199.152344 162.386719 198.828125 161.15625 C 198.503906 159.929688 199.339844 158.640625 200.707031 158.347656 C 209.476562 156.464844 218.550781 156.464844 227.320312 158.347656 C 228.6875 158.640625 229.523438 159.929688 229.199219 161.15625 Z M 229.199219 161.15625 " fill-opacity="1" fill-rule="nonzero"/></g><g clip-path="url(#ec2ef9ed0c)"><path fill="#000000" d="M 226.878906 163.316406 C 226.679688 163.316406 226.472656 163.296875 226.265625 163.25 C 218.136719 161.507812 209.890625 161.507812 201.761719 163.25 C 200.273438 163.570312 198.808594 162.695312 198.429688 161.261719 C 198.25 160.585938 198.359375 159.871094 198.738281 159.257812 C 199.144531 158.59375 199.832031 158.117188 200.621094 157.949219 C 209.507812 156.039062 218.519531 156.039062 227.40625 157.945312 C 228.195312 158.117188 228.882812 158.59375 229.289062 159.253906 C 229.667969 159.871094 229.777344 160.582031 229.597656 161.261719 C 229.269531 162.496094 228.140625 163.316406 226.878906 163.316406 Z M 214.015625 161.121094 C 218.167969 161.121094 222.316406 161.5625 226.441406 162.449219 C 227.496094 162.675781 228.535156 162.0625 228.804688 161.050781 C 228.925781 160.59375 228.847656 160.109375 228.589844 159.6875 C 228.300781 159.214844 227.808594 158.875 227.234375 158.75 C 218.460938 156.867188 209.566406 156.867188 200.796875 158.75 C 200.222656 158.871094 199.730469 159.214844 199.441406 159.6875 C 199.179688 160.109375 199.105469 160.59375 199.226562 161.050781 C 199.496094 162.0625 200.53125 162.675781 201.589844 162.449219 C 205.710938 161.5625 209.863281 161.121094 214.015625 161.121094 Z M 214.015625 161.121094 " fill-opacity="1" fill-rule="nonzero"/></g><g clip-path="url(#3c3640a6a7)"><g transform="matrix(1, 0, 0, 1, 0, 49)"><g clip-path="url(#00e0fcf24a)"><g clip-path="url(#f14ffcff76)"><g clip-path="url(#9a712f5ed5)"><g transform="matrix(1, 0, 0, 1, 3, 3)"><g clip-path="url(#175e4c0303)"><g clip-path="url(#7975d399a5)"><g clip-path="url(#13e8df1f32)"><path fill="#f5f5dc" d="M 348.410156 0.320312 L 348.410156 74.261719 L 0.0664062 74.261719 L 0.0664062 0.320312 Z M 348.410156 0.320312 " fill-opacity="1" fill-rule="nonzero"/></g></g></g></g></g></g><g clip-path="url(#abb19c9fff)"><g clip-path="url(#87432175cf)"><path stroke-linecap="butt" transform="matrix(0, 0.13353, -0.13353, 0, 351.406546, 3.318835)" fill="none" stroke-linejoin="miter" d="M 9.986561 0.00222008 L 543.748783 0.00222008 C 546.410865 0.00222008 548.955934 1.055352 550.828168 2.927586 C 552.700402 4.79982 553.753533 7.344888 553.753533 10.006971 L 553.753533 2598.692312 C 553.753533 2601.354395 552.700402 2603.899463 550.828168 2605.771697 C 548.955934 2607.643931 546.410865 2608.697063 543.748783 2608.697063 L 9.986561 2608.697063 C 7.353732 2608.697063 4.808664 2607.643931 2.93643 2605.771697 C 1.064196 2603.899463 0.0110643 2601.354395 0.0110643 2598.692312 L 0.0110643 10.006971 C 0.0110643 7.344888 1.064196 4.79982 2.93643 2.927586 C 4.808664 1.055352 7.353732 0.00222008 9.986561 0.00222008 Z M 9.986561 0.00222008 " stroke="#000000" stroke-width="10" stroke-opacity="1" stroke-miterlimit="4"/></g></g></g></g></g><path fill="#f5f5dc" d="M 24.175781 4.449219 L 27.988281 4.449219 L 27.988281 8.722656 L 24.175781 8.722656 Z M 24.175781 4.449219 " fill-opacity="1" fill-rule="nonzero"/><path fill="#000000" d="M 28.398438 9.136719 L 23.765625 9.136719 L 23.765625 4.039062 L 28.398438 4.039062 Z M 24.585938 8.3125 L 27.578125 8.3125 L 27.578125 4.863281 L 24.585938 4.863281 Z M 24.585938 8.3125 " fill-opacity="1" fill-rule="nonzero"/><path fill="#f5f5dc" d="M 37.195312 4.449219 L 41.007812 4.449219 L 41.007812 8.722656 L 37.195312 8.722656 Z M 37.195312 4.449219 " fill-opacity="1" fill-rule="nonzero"/><path fill="#000000" d="M 41.417969 9.136719 L 36.785156 9.136719 L 36.785156 4.039062 L 41.417969 4.039062 Z M 37.605469 8.3125 L 40.597656 8.3125 L 40.597656 4.863281 L 37.605469 4.863281 Z M 37.605469 8.3125 " fill-opacity="1" fill-rule="nonzero"/><path fill="#f5f5dc" d="M 47.84375 16.1875 L 50.558594 33.480469 C 51.261719 37.96875 48.925781 41.867188 45.285156 41.867188 L 19.847656 41.867188 C 16.210938 41.867188 13.875 37.96875 14.578125 33.480469 L 17.292969 16.1875 C 17.949219 11.988281 21.484375 8.839844 25.234375 8.839844 L 39.902344 8.839844 C 43.652344 8.839844 47.1875 11.988281 47.84375 16.1875 Z M 47.84375 16.1875 " fill-opacity="1" fill-rule="nonzero"/><g clip-path="url(#080a62f38b)"><path fill="#000000" d="M 45.285156 42.28125 L 19.847656 42.28125 C 18.300781 42.28125 16.871094 41.605469 15.824219 40.378906 C 14.371094 38.683594 13.753906 36.078125 14.171875 33.417969 L 16.882812 16.121094 C 17.5625 11.808594 21.230469 8.429688 25.234375 8.429688 L 39.898438 8.429688 C 43.90625 8.429688 47.574219 11.808594 48.25 16.121094 L 50.960938 33.417969 C 51.378906 36.082031 50.761719 38.683594 49.3125 40.382812 C 48.265625 41.605469 46.835938 42.28125 45.285156 42.28125 Z M 25.234375 9.25 C 21.621094 9.25 18.3125 12.324219 17.695312 16.25 L 14.984375 33.542969 C 14.605469 35.972656 15.152344 38.328125 16.449219 39.84375 C 17.351562 40.898438 18.527344 41.457031 19.851562 41.457031 L 45.289062 41.457031 C 46.609375 41.457031 47.785156 40.898438 48.6875 39.847656 C 49.984375 38.332031 50.53125 35.972656 50.152344 33.546875 L 47.4375 16.25 C 46.824219 12.324219 43.511719 9.25 39.902344 9.25 Z M 25.234375 9.25 " fill-opacity="1" fill-rule="nonzero"/></g><path fill="#f5f5dc" d="M 47.753906 5.386719 C 47.425781 6.613281 46.15625 7.347656 44.90625 7.078125 C 36.773438 5.332031 28.359375 5.332031 20.230469 7.078125 C 18.976562 7.347656 17.707031 6.613281 17.382812 5.386719 C 17.058594 4.15625 17.894531 2.871094 19.261719 2.578125 C 28.03125 0.695312 37.105469 0.695312 45.875 2.578125 C 47.242188 2.871094 48.078125 4.15625 47.753906 5.386719 Z M 47.753906 5.386719 " fill-opacity="1" fill-rule="nonzero"/><g clip-path="url(#4d7b1524eb)"><path fill="#000000" d="M 45.433594 7.546875 C 45.230469 7.546875 45.027344 7.523438 44.820312 7.480469 C 36.691406 5.734375 28.445312 5.734375 20.316406 7.480469 C 18.828125 7.796875 17.363281 6.925781 16.984375 5.492188 C 16.804688 4.8125 16.914062 4.101562 17.292969 3.488281 C 17.699219 2.824219 18.386719 2.347656 19.175781 2.175781 C 28.0625 0.265625 37.074219 0.265625 45.960938 2.175781 C 46.75 2.34375 47.4375 2.820312 47.84375 3.484375 C 48.21875 4.101562 48.328125 4.8125 48.152344 5.488281 C 47.824219 6.726562 46.691406 7.546875 45.433594 7.546875 Z M 32.570312 5.347656 C 36.722656 5.347656 40.871094 5.792969 44.996094 6.679688 C 46.050781 6.90625 47.089844 6.289062 47.355469 5.28125 C 47.476562 4.824219 47.402344 4.339844 47.144531 3.917969 C 46.855469 3.445312 46.359375 3.105469 45.789062 2.980469 C 37.015625 1.097656 28.121094 1.097656 19.347656 2.980469 C 18.777344 3.101562 18.285156 3.445312 17.996094 3.917969 C 17.734375 4.339844 17.660156 4.824219 17.78125 5.28125 C 18.046875 6.289062 19.085938 6.90625 20.144531 6.679688 C 24.265625 5.792969 28.417969 5.347656 32.570312 5.347656 Z M 32.570312 5.347656 " fill-opacity="1" fill-rule="nonzero"/></g><path fill="#f5f5dc" d="M 299.921875 4.449219 L 303.734375 4.449219 L 303.734375 8.722656 L 299.921875 8.722656 Z M 299.921875 4.449219 " fill-opacity="1" fill-rule="nonzero"/><path fill="#000000" d="M 304.144531 9.136719 L 299.507812 9.136719 L 299.507812 4.039062 L 304.144531 4.039062 Z M 300.332031 8.3125 L 303.320312 8.3125 L 303.320312 4.863281 L 300.332031 4.863281 Z M 300.332031 8.3125 " fill-opacity="1" fill-rule="nonzero"/><path fill="#f5f5dc" d="M 312.941406 4.449219 L 316.753906 4.449219 L 316.753906 8.722656 L 312.941406 8.722656 Z M 312.941406 4.449219 " fill-opacity="1" fill-rule="nonzero"/><path fill="#000000" d="M 317.164062 9.136719 L 312.527344 9.136719 L 312.527344 4.039062 L 317.164062 4.039062 Z M 313.351562 8.3125 L 316.339844 8.3125 L 316.339844 4.863281 L 313.351562 4.863281 Z M 313.351562 8.3125 " fill-opacity="1" fill-rule="nonzero"/><g clip-path="url(#7b9306c0e8)"><path fill="#f5f5dc" d="M 323.589844 16.1875 L 326.300781 33.480469 C 327.003906 37.96875 324.667969 41.867188 321.03125 41.867188 L 295.59375 41.867188 C 291.957031 41.867188 289.617188 37.96875 290.320312 33.480469 L 293.035156 16.1875 C 293.691406 11.988281 297.226562 8.839844 300.980469 8.839844 L 315.644531 8.839844 C 319.394531 8.839844 322.929688 11.988281 323.589844 16.1875 Z M 323.589844 16.1875 " fill-opacity="1" fill-rule="nonzero"/></g><g clip-path="url(#6d8d027fae)"><path fill="#000000" d="M 321.03125 42.28125 L 295.59375 42.28125 C 294.046875 42.28125 292.617188 41.605469 291.566406 40.378906 C 290.113281 38.683594 289.5 36.078125 289.917969 33.417969 L 292.628906 16.121094 C 293.304688 11.808594 296.972656 8.429688 300.976562 8.429688 L 315.644531 8.429688 C 319.648438 8.429688 323.316406 11.808594 323.992188 16.121094 L 326.707031 33.417969 C 327.125 36.082031 326.507812 38.683594 325.054688 40.382812 C 324.007812 41.605469 322.578125 42.28125 321.03125 42.28125 Z M 300.976562 9.25 C 297.367188 9.25 294.054688 12.324219 293.441406 16.25 L 290.730469 33.542969 C 290.347656 35.972656 290.894531 38.328125 292.191406 39.84375 C 293.09375 40.898438 294.273438 41.457031 295.59375 41.457031 L 321.03125 41.457031 C 322.355469 41.457031 323.53125 40.898438 324.429688 39.847656 C 325.730469 38.332031 326.277344 35.972656 325.894531 33.546875 L 323.183594 16.25 C 322.566406 12.324219 319.257812 9.25 315.644531 9.25 Z M 300.976562 9.25 " fill-opacity="1" fill-rule="nonzero"/></g><path fill="#f5f5dc" d="M 323.496094 5.386719 C 323.171875 6.613281 321.902344 7.347656 320.652344 7.078125 C 312.515625 5.332031 304.105469 5.332031 295.972656 7.078125 C 294.722656 7.347656 293.453125 6.613281 293.125 5.386719 C 292.800781 4.15625 293.636719 2.871094 295.003906 2.578125 C 303.777344 0.695312 312.847656 0.695312 321.617188 2.578125 C 322.984375 2.871094 323.824219 4.15625 323.496094 5.386719 Z M 323.496094 5.386719 " fill-opacity="1" fill-rule="nonzero"/><g clip-path="url(#597e879450)"><path fill="#000000" d="M 321.179688 7.546875 C 320.976562 7.546875 320.769531 7.523438 320.5625 7.480469 C 312.433594 5.734375 304.1875 5.734375 296.058594 7.480469 C 294.570312 7.796875 293.109375 6.925781 292.730469 5.492188 C 292.550781 4.8125 292.660156 4.101562 293.035156 3.488281 C 293.445312 2.824219 294.128906 2.347656 294.917969 2.175781 C 303.804688 0.265625 312.816406 0.265625 321.703125 2.175781 C 322.492188 2.34375 323.179688 2.820312 323.585938 3.484375 C 323.964844 4.101562 324.074219 4.8125 323.894531 5.488281 C 323.566406 6.726562 322.4375 7.546875 321.179688 7.546875 Z M 308.3125 5.347656 C 312.464844 5.347656 316.617188 5.792969 320.738281 6.679688 C 321.796875 6.90625 322.832031 6.289062 323.101562 5.28125 C 323.222656 4.824219 323.148438 4.339844 322.886719 3.917969 C 322.597656 3.445312 322.105469 3.105469 321.53125 2.980469 C 312.757812 1.097656 303.863281 1.097656 295.09375 2.980469 C 294.523438 3.101562 294.027344 3.445312 293.738281 3.917969 C 293.480469 4.339844 293.40625 4.824219 293.523438 5.28125 C 293.792969 6.289062 294.832031 6.90625 295.886719 6.679688 C 300.007812 5.792969 304.160156 5.347656 308.3125 5.347656 Z M 308.3125 5.347656 " fill-opacity="1" fill-rule="nonzero"/></g><path fill="#f5f5dc" d="M 111.324219 4.449219 L 115.136719 4.449219 L 115.136719 8.722656 L 111.324219 8.722656 Z M 111.324219 4.449219 " fill-opacity="1" fill-rule="nonzero"/><path fill="#000000" d="M 115.546875 9.136719 L 110.914062 9.136719 L 110.914062 4.039062 L 115.546875 4.039062 Z M 111.734375 8.3125 L 114.726562 8.3125 L 114.726562 4.863281 L 111.734375 4.863281 Z M 111.734375 8.3125 " fill-opacity="1" fill-rule="nonzero"/><path fill="#f5f5dc" d="M 124.34375 4.449219 L 128.15625 4.449219 L 128.15625 8.722656 L 124.34375 8.722656 Z M 124.34375 4.449219 " fill-opacity="1" fill-rule="nonzero"/><path fill="#000000" d="M 128.566406 9.136719 L 123.933594 9.136719 L 123.933594 4.039062 L 128.566406 4.039062 Z M 124.753906 8.3125 L 127.746094 8.3125 L 127.746094 4.863281 L 124.753906 4.863281 Z M 124.753906 8.3125 " fill-opacity="1" fill-rule="nonzero"/><path fill="#f5f5dc" d="M 134.992188 16.1875 L 137.707031 33.480469 C 138.410156 37.96875 136.070312 41.867188 132.433594 41.867188 L 106.996094 41.867188 C 103.359375 41.867188 101.023438 37.96875 101.726562 33.480469 L 104.4375 16.1875 C 105.097656 11.988281 108.632812 8.839844 112.382812 8.839844 L 127.050781 8.839844 C 130.800781 8.839844 134.335938 11.988281 134.992188 16.1875 Z M 134.992188 16.1875 " fill-opacity="1" fill-rule="nonzero"/><g clip-path="url(#3713e4db03)"><path fill="#000000" d="M 132.433594 42.28125 L 106.996094 42.28125 C 105.449219 42.28125 104.019531 41.605469 102.972656 40.378906 C 101.519531 38.683594 100.902344 36.078125 101.320312 33.417969 L 104.03125 16.121094 C 104.710938 11.808594 108.375 8.429688 112.382812 8.429688 L 127.046875 8.429688 C 131.054688 8.429688 134.722656 11.808594 135.398438 16.121094 L 138.109375 33.417969 C 138.527344 36.082031 137.910156 38.683594 136.460938 40.382812 C 135.414062 41.605469 133.984375 42.28125 132.433594 42.28125 Z M 112.382812 9.25 C 108.769531 9.25 105.460938 12.324219 104.84375 16.25 L 102.132812 33.542969 C 101.753906 35.972656 102.300781 38.328125 103.597656 39.84375 C 104.5 40.898438 105.675781 41.457031 107 41.457031 L 132.4375 41.457031 C 133.757812 41.457031 134.933594 40.898438 135.835938 39.847656 C 137.132812 38.332031 137.679688 35.972656 137.300781 33.546875 L 134.585938 16.25 C 133.972656 12.324219 130.660156 9.25 127.050781 9.25 Z M 112.382812 9.25 " fill-opacity="1" fill-rule="nonzero"/></g><path fill="#f5f5dc" d="M 134.902344 5.386719 C 134.574219 6.613281 133.304688 7.347656 132.054688 7.078125 C 123.921875 5.332031 115.507812 5.332031 107.375 7.078125 C 106.125 7.347656 104.855469 6.613281 104.53125 5.386719 C 104.203125 4.15625 105.042969 2.871094 106.410156 2.578125 C 115.179688 0.695312 124.25 0.695312 133.023438 2.578125 C 134.390625 2.871094 135.226562 4.15625 134.902344 5.386719 Z M 134.902344 5.386719 " fill-opacity="1" fill-rule="nonzero"/><g clip-path="url(#018126a710)"><path fill="#000000" d="M 132.582031 7.546875 C 132.378906 7.546875 132.175781 7.523438 131.96875 7.480469 C 123.839844 5.734375 115.59375 5.734375 107.464844 7.480469 C 105.976562 7.796875 104.511719 6.925781 104.132812 5.492188 C 103.953125 4.8125 104.0625 4.101562 104.441406 3.488281 C 104.847656 2.824219 105.535156 2.347656 106.324219 2.175781 C 115.210938 0.265625 124.222656 0.265625 133.109375 2.175781 C 133.898438 2.34375 134.582031 2.820312 134.992188 3.484375 C 135.367188 4.101562 135.476562 4.8125 135.296875 5.488281 C 134.972656 6.726562 133.839844 7.546875 132.582031 7.546875 Z M 119.714844 5.347656 C 123.867188 5.347656 128.019531 5.792969 132.144531 6.679688 C 133.199219 6.90625 134.238281 6.289062 134.503906 5.28125 C 134.625 4.824219 134.550781 4.339844 134.292969 3.917969 C 134.003906 3.445312 133.507812 3.105469 132.9375 2.980469 C 124.164062 1.097656 115.269531 1.097656 106.496094 2.980469 C 105.925781 3.101562 105.433594 3.445312 105.144531 3.917969 C 104.882812 4.339844 104.808594 4.824219 104.929688 5.28125 C 105.195312 6.289062 106.234375 6.90625 107.292969 6.679688 C 111.410156 5.792969 115.5625 5.347656 119.714844 5.347656 Z M 119.714844 5.347656 " fill-opacity="1" fill-rule="nonzero"/></g><path fill="#f5f5dc" d="M 205.625 4.449219 L 209.433594 4.449219 L 209.433594 8.722656 L 205.625 8.722656 Z M 205.625 4.449219 " fill-opacity="1" fill-rule="nonzero"/><path fill="#000000" d="M 209.847656 9.136719 L 205.210938 9.136719 L 205.210938 4.039062 L 209.847656 4.039062 Z M 206.035156 8.3125 L 209.023438 8.3125 L 209.023438 4.863281 L 206.035156 4.863281 Z M 206.035156 8.3125 " fill-opacity="1" fill-rule="nonzero"/><path fill="#f5f5dc" d="M 218.640625 4.449219 L 222.453125 4.449219 L 222.453125 8.722656 L 218.640625 8.722656 Z M 218.640625 4.449219 " fill-opacity="1" fill-rule="nonzero"/><path fill="#000000" d="M 222.863281 9.136719 L 218.230469 9.136719 L 218.230469 4.039062 L 222.863281 4.039062 Z M 219.050781 8.3125 L 222.042969 8.3125 L 222.042969 4.863281 L 219.050781 4.863281 Z M 219.050781 8.3125 " fill-opacity="1" fill-rule="nonzero"/><g clip-path="url(#2d1866e3ed)"><path fill="#f5f5dc" d="M 229.289062 16.1875 L 232.003906 33.480469 C 232.707031 37.96875 230.371094 41.867188 226.730469 41.867188 L 201.296875 41.867188 C 197.65625 41.867188 195.320312 37.96875 196.023438 33.480469 L 198.738281 16.1875 C 199.394531 11.988281 202.929688 8.839844 206.683594 8.839844 L 221.347656 8.839844 C 225.097656 8.839844 228.632812 11.988281 229.289062 16.1875 Z M 229.289062 16.1875 " fill-opacity="1" fill-rule="nonzero"/></g><g clip-path="url(#4faa533619)"><path fill="#000000" d="M 226.730469 42.28125 L 201.296875 42.28125 C 199.75 42.28125 198.320312 41.605469 197.269531 40.378906 C 195.816406 38.683594 195.199219 36.078125 195.617188 33.417969 L 198.328125 16.121094 C 199.007812 11.808594 202.675781 8.429688 206.679688 8.429688 L 221.34375 8.429688 C 225.351562 8.429688 229.019531 11.808594 229.695312 16.121094 L 232.410156 33.417969 C 232.824219 36.082031 232.207031 38.683594 230.757812 40.382812 C 229.710938 41.605469 228.28125 42.28125 226.730469 42.28125 Z M 206.679688 9.25 C 203.070312 9.25 199.757812 12.324219 199.140625 16.25 L 196.429688 33.542969 C 196.050781 35.972656 196.597656 38.328125 197.894531 39.84375 C 198.796875 40.898438 199.976562 41.457031 201.296875 41.457031 L 226.734375 41.457031 C 228.054688 41.457031 229.230469 40.898438 230.132812 39.847656 C 231.429688 38.332031 231.980469 35.972656 231.597656 33.546875 L 228.882812 16.25 C 228.269531 12.324219 224.957031 9.25 221.347656 9.25 Z M 206.679688 9.25 " fill-opacity="1" fill-rule="nonzero"/></g><path fill="#f5f5dc" d="M 229.199219 5.386719 C 228.875 6.613281 227.601562 7.347656 226.351562 7.078125 C 218.21875 5.332031 209.808594 5.332031 201.675781 7.078125 C 200.425781 7.347656 199.152344 6.613281 198.828125 5.386719 C 198.503906 4.15625 199.339844 2.871094 200.707031 2.578125 C 209.476562 0.695312 218.550781 0.695312 227.320312 2.578125 C 228.6875 2.871094 229.523438 4.15625 229.199219 5.386719 Z M 229.199219 5.386719 " fill-opacity="1" fill-rule="nonzero"/><g clip-path="url(#b75d9ca40f)"><path fill="#000000" d="M 226.878906 7.546875 C 226.679688 7.546875 226.472656 7.523438 226.265625 7.480469 C 218.136719 5.734375 209.890625 5.734375 201.761719 7.480469 C 200.273438 7.796875 198.808594 6.925781 198.429688 5.492188 C 198.25 4.8125 198.359375 4.101562 198.738281 3.488281 C 199.144531 2.824219 199.832031 2.347656 200.621094 2.175781 C 209.507812 0.265625 218.519531 0.265625 227.40625 2.175781 C 228.195312 2.34375 228.882812 2.820312 229.289062 3.484375 C 229.667969 4.101562 229.777344 4.8125 229.597656 5.488281 C 229.269531 6.726562 228.140625 7.546875 226.878906 7.546875 Z M 214.015625 5.347656 C 218.167969 5.347656 222.316406 5.792969 226.441406 6.679688 C 227.496094 6.90625 228.535156 6.289062 228.804688 5.28125 C 228.925781 4.824219 228.847656 4.339844 228.589844 3.917969 C 228.300781 3.445312 227.808594 3.105469 227.234375 2.980469 C 218.460938 1.097656 209.566406 1.097656 200.796875 2.980469 C 200.222656 3.101562 199.730469 3.445312 199.441406 3.917969 C 199.179688 4.339844 199.105469 4.824219 199.226562 5.28125 C 199.496094 6.289062 200.53125 6.90625 201.589844 6.679688 C 205.710938 5.792969 209.863281 5.347656 214.015625 5.347656 Z M 214.015625 5.347656 " fill-opacity="1" fill-rule="nonzero"/></g><g clip-path="url(#727c1b18f7)"><g transform="matrix(1, 0, 0, 1, 360, 632)"><g clip-path="url(#6ec9eec094)"><g clip-path="url(#7a2e391e0b)"><g clip-path="url(#00b5e34f53)"><g transform="matrix(1, 0, 0, 1, 3, 3)"><g clip-path="url(#ae52b9f8d5)"><g clip-path="url(#8ae47a23d0)"><g clip-path="url(#1847579008)"><path fill="#f5f5dc" d="M 66.480469 148.5625 L 0.269531 148.5625 L 0.269531 0.105469 L 66.480469 0.105469 Z M 66.480469 148.5625 " fill-opacity="1" fill-rule="nonzero"/></g></g></g></g></g></g><g clip-path="url(#3f22f0b99d)"><g clip-path="url(#9a528283ba)"><path stroke-linecap="butt" transform="matrix(-0.13353, 0, 0, -0.13353, 69.481718, 151.5625)" fill="none" stroke-linejoin="miter" d="M 10.014104 -0.000000554021 L 485.854085 -0.000000554021 C 491.353773 -0.000000554021 495.829582 4.475809 495.829582 10.00475 L 495.829582 1101.634206 C 495.829582 1107.163147 491.353773 1111.638957 485.854085 1111.638957 L 10.014104 1111.638957 C 4.485163 1111.638957 0.00935346 1107.163147 0.00935346 1101.634206 L 0.00935346 10.00475 C 0.00935346 4.475809 4.485163 -0.000000554021 10.014104 -0.000000554021 Z M 10.014104 -0.000000554021 " stroke="#000000" stroke-width="10" stroke-opacity="1" stroke-miterlimit="4"/></g></g></g></g></g><path fill="#f5f5dc" d="M 489.925781 700.390625 L 489.925781 704.457031 L 485.367188 704.457031 L 485.367188 700.390625 Z M 489.925781 700.390625 " fill-opacity="1" fill-rule="nonzero"/><path fill="#000000" d="M 484.929688 704.894531 L 484.929688 699.949219 L 490.363281 699.949219 L 490.363281 704.894531 Z M 485.804688 700.828125 L 485.804688 704.019531 L 489.488281 704.019531 L 489.488281 700.828125 Z M 485.804688 700.828125 " fill-opacity="1" fill-rule="nonzero"/><path fill="#f5f5dc" d="M 489.925781 714.285156 L 489.925781 718.351562 L 485.367188 718.351562 L 485.367188 714.285156 Z M 489.925781 714.285156 " fill-opacity="1" fill-rule="nonzero"/><path fill="#000000" d="M 484.929688 718.789062 L 484.929688 713.84375 L 490.363281 713.84375 L 490.363281 718.789062 Z M 485.804688 714.722656 L 485.804688 717.910156 L 489.488281 717.910156 L 489.488281 714.722656 Z M 485.804688 714.722656 " fill-opacity="1" fill-rule="nonzero"/><g clip-path="url(#37412ec7f9)"><path fill="#f5f5dc" d="M 477.402344 725.644531 L 458.949219 728.542969 C 454.160156 729.292969 449.996094 726.796875 449.996094 722.917969 L 449.996094 695.773438 C 449.996094 691.890625 454.160156 689.394531 458.949219 690.148438 L 477.402344 693.042969 C 481.886719 693.742188 485.242188 697.515625 485.242188 701.519531 L 485.242188 717.167969 C 485.242188 721.171875 481.886719 724.945312 477.402344 725.644531 Z M 477.402344 725.644531 " fill-opacity="1" fill-rule="nonzero"/></g><g clip-path="url(#184d71eb8c)"><path fill="#000000" d="M 449.558594 722.917969 L 449.558594 695.773438 C 449.558594 694.121094 450.277344 692.59375 451.585938 691.476562 C 453.398438 689.925781 456.175781 689.265625 459.015625 689.714844 L 477.472656 692.605469 C 482.074219 693.332031 485.679688 697.242188 485.679688 701.519531 L 485.679688 717.167969 C 485.679688 721.441406 482.074219 725.359375 477.472656 726.078125 L 459.011719 728.972656 C 456.171875 729.417969 453.394531 728.761719 451.582031 727.210938 C 450.277344 726.09375 449.558594 724.570312 449.558594 722.917969 Z M 484.804688 701.519531 C 484.804688 697.664062 481.523438 694.132812 477.335938 693.472656 L 458.878906 690.582031 C 456.289062 690.175781 453.773438 690.757812 452.15625 692.144531 C 451.03125 693.105469 450.433594 694.363281 450.433594 695.773438 L 450.433594 722.917969 C 450.433594 724.328125 451.03125 725.582031 452.15625 726.546875 C 453.773438 727.929688 456.285156 728.515625 458.878906 728.109375 L 477.335938 725.214844 C 481.523438 724.558594 484.804688 721.023438 484.804688 717.167969 Z M 484.804688 701.519531 " fill-opacity="1" fill-rule="nonzero"/></g><path fill="#f5f5dc" d="M 488.929688 725.550781 C 487.617188 725.203125 486.835938 723.847656 487.121094 722.511719 C 488.988281 713.832031 488.988281 704.855469 487.121094 696.175781 C 486.835938 694.84375 487.617188 693.488281 488.929688 693.140625 C 490.238281 692.792969 491.613281 693.683594 491.925781 695.144531 C 493.9375 704.503906 493.9375 714.183594 491.925781 723.542969 C 491.613281 725.003906 490.238281 725.898438 488.929688 725.550781 Z M 488.929688 725.550781 " fill-opacity="1" fill-rule="nonzero"/><path fill="#000000" d="M 486.625 723.074219 C 486.625 722.859375 486.644531 722.640625 486.691406 722.417969 C 488.554688 713.742188 488.554688 704.945312 486.691406 696.269531 C 486.355469 694.683594 487.285156 693.121094 488.816406 692.714844 C 489.539062 692.523438 490.300781 692.640625 490.957031 693.042969 C 491.664062 693.476562 492.171875 694.210938 492.351562 695.050781 C 494.390625 704.535156 494.390625 714.152344 492.355469 723.636719 C 492.175781 724.480469 491.664062 725.210938 490.957031 725.644531 C 490.300781 726.046875 489.542969 726.164062 488.820312 725.972656 C 487.496094 725.625 486.625 724.417969 486.625 723.074219 Z M 488.96875 709.34375 C 488.96875 713.777344 488.496094 718.207031 487.550781 722.605469 C 487.308594 723.734375 487.964844 724.839844 489.039062 725.125 C 489.527344 725.253906 490.046875 725.175781 490.496094 724.898438 C 491 724.589844 491.363281 724.0625 491.496094 723.453125 C 493.507812 714.089844 493.507812 704.597656 491.496094 695.238281 C 491.367188 694.628906 491 694.101562 490.496094 693.792969 C 490.046875 693.515625 489.527344 693.4375 489.039062 693.566406 C 487.964844 693.851562 487.308594 694.957031 487.550781 696.085938 C 488.496094 700.484375 488.96875 704.914062 488.96875 709.34375 Z M 488.96875 709.34375 " fill-opacity="1" fill-rule="nonzero"/></g></g></svg>