<svg xmlns="http://www.w3.org/2000/svg" xmlns:xlink="http://www.w3.org/1999/xlink" width="1920" zoomAndPan="magnify" viewBox="0 0 1440 809.999993" height="1080" preserveAspectRatio="xMidYMid meet" version="1.0"><defs><clipPath id="8af08b1d39"><path d="M 14.476562 331.316406 L 776.417969 331.316406 L 776.417969 671.136719 L 14.476562 671.136719 Z M 14.476562 331.316406 " clip-rule="nonzero"/></clipPath><clipPath id="24c6faae63"><path d="M 776.417969 338.167969 L 776.417969 664.28125 C 776.417969 668.066406 773.347656 671.136719 769.5625 671.136719 L 21.421875 671.136719 C 17.636719 671.136719 14.570312 668.066406 14.570312 664.28125 L 14.570312 338.167969 C 14.570312 334.382812 17.636719 331.316406 21.421875 331.316406 L 769.5625 331.316406 C 773.347656 331.316406 776.417969 334.382812 776.417969 338.167969 Z M 776.417969 338.167969 " clip-rule="nonzero"/></clipPath><clipPath id="2ed76effce"><path d="M 0.476562 0.316406 L 762.417969 0.316406 L 762.417969 340.136719 L 0.476562 340.136719 Z M 0.476562 0.316406 " clip-rule="nonzero"/></clipPath><clipPath id="586dbd916b"><path d="M 762.417969 7.167969 L 762.417969 333.28125 C 762.417969 337.066406 759.347656 340.136719 755.5625 340.136719 L 7.421875 340.136719 C 3.636719 340.136719 0.570312 337.066406 0.570312 333.28125 L 0.570312 7.167969 C 0.570312 3.382812 3.636719 0.316406 7.421875 0.316406 L 755.5625 0.316406 C 759.347656 0.316406 762.417969 3.382812 762.417969 7.167969 Z M 762.417969 7.167969 " clip-rule="nonzero"/></clipPath><clipPath id="1c8c454c4a"><rect x="0" width="763" y="0" height="341"/></clipPath><clipPath id="40ec4f6201"><path d="M 14.328125 331.316406 L 776.417969 331.316406 L 776.417969 671.238281 L 14.328125 671.238281 Z M 14.328125 331.316406 " clip-rule="nonzero"/></clipPath><clipPath id="ca48741985"><path d="M 776.417969 338.167969 L 776.417969 664.28125 C 776.417969 668.0625 773.347656 671.132812 769.5625 671.132812 L 21.429688 671.132812 C 17.644531 671.132812 14.578125 668.0625 14.578125 664.28125 L 14.578125 338.167969 C 14.578125 334.382812 17.644531 331.316406 21.429688 331.316406 L 769.5625 331.316406 C 773.347656 331.316406 776.417969 334.382812 776.417969 338.167969 Z M 776.417969 338.167969 " clip-rule="nonzero"/></clipPath><clipPath id="130c36403a"><path d="M 294 42 L 497 42 L 497 228.476562 L 294 228.476562 Z M 294 42 " clip-rule="nonzero"/></clipPath><clipPath id="224f00608d"><path d="M 309 0.558594 L 482 0.558594 L 482 39 L 309 39 Z M 309 0.558594 " clip-rule="nonzero"/></clipPath><clipPath id="9137609333"><rect x="0" width="791" y="0" height="686"/></clipPath></defs><g transform="matrix(1, 0, 0, 1, 324, 70)"><g clip-path="url(#9137609333)"><g clip-path="url(#8af08b1d39)"><g clip-path="url(#24c6faae63)"><g transform="matrix(1, 0, 0, 1, 14, 331)"><g clip-path="url(#1c8c454c4a)"><g clip-path="url(#2ed76effce)"><g clip-path="url(#586dbd916b)"><path fill="#f5f5dc" d="M 762.417969 0.316406 L 762.417969 340.136719 L 0.476562 340.136719 L 0.476562 0.316406 Z M 762.417969 0.316406 " fill-opacity="1" fill-rule="nonzero"/></g></g></g></g></g></g><g clip-path="url(#40ec4f6201)"><g clip-path="url(#ca48741985)"><path stroke-linecap="butt" transform="matrix(0, 0.685331, -0.685331, 0, 776.417303, 331.315743)" fill="none" stroke-linejoin="miter" d="M 9.998424 -0.000971631 L 485.846551 -0.000971631 C 491.363961 -0.000971631 495.844007 4.479074 495.844007 10.002184 L 495.844007 1101.640023 C 495.844007 1107.163133 491.363961 1111.637479 485.846551 1111.637479 L 9.998424 1111.637479 C 4.475314 1111.637479 0.000967766 1107.163133 0.000967766 1101.640023 L 0.000967766 10.002184 C 0.000967766 4.479074 4.475314 -0.000971631 9.998424 -0.000971631 Z M 9.998424 -0.000971631 " stroke="#000000" stroke-width="10" stroke-opacity="1" stroke-miterlimit="4"/></g></g><path fill="#f5f5dc" d="M 349.542969 21.089844 L 370.425781 21.089844 L 370.425781 44.496094 L 349.542969 44.496094 Z M 349.542969 21.089844 " fill-opacity="1" fill-rule="nonzero"/><path fill="#000000" d="M 372.671875 46.753906 L 347.289062 46.753906 L 347.289062 18.84375 L 372.671875 18.84375 Z M 351.792969 42.246094 L 368.167969 42.246094 L 368.167969 23.347656 L 351.792969 23.347656 Z M 351.792969 42.246094 " fill-opacity="1" fill-rule="nonzero"/><path fill="#f5f5dc" d="M 420.855469 21.089844 L 441.734375 21.089844 L 441.734375 44.496094 L 420.855469 44.496094 Z M 420.855469 21.089844 " fill-opacity="1" fill-rule="nonzero"/><path fill="#000000" d="M 443.984375 46.753906 L 418.597656 46.753906 L 418.597656 18.84375 L 443.984375 18.84375 Z M 423.101562 42.246094 L 439.476562 42.246094 L 439.476562 23.347656 L 423.101562 23.347656 Z M 423.101562 42.246094 " fill-opacity="1" fill-rule="nonzero"/><path fill="#f5f5dc" d="M 479.179688 85.375 L 494.039062 180.105469 C 497.890625 204.679688 485.09375 226.050781 465.167969 226.050781 L 325.835938 226.050781 C 305.910156 226.050781 293.109375 204.679688 296.964844 180.105469 L 311.824219 85.375 C 315.425781 62.371094 334.792969 45.136719 355.339844 45.136719 L 435.667969 45.136719 C 456.210938 45.136719 475.574219 62.371094 479.179688 85.375 Z M 479.179688 85.375 " fill-opacity="1" fill-rule="nonzero"/><g clip-path="url(#130c36403a)"><path fill="#000000" d="M 465.167969 228.308594 L 325.835938 228.308594 C 317.363281 228.308594 309.53125 224.605469 303.789062 217.898438 C 295.832031 208.59375 292.449219 194.339844 294.742188 179.757812 L 309.59375 85.023438 C 313.304688 61.398438 333.390625 42.890625 355.332031 42.890625 L 435.660156 42.890625 C 457.601562 42.890625 477.699219 61.398438 481.398438 85.023438 L 496.257812 179.765625 C 498.542969 194.351562 495.164062 208.605469 487.214844 217.90625 C 481.480469 224.605469 473.648438 228.308594 465.167969 228.308594 Z M 355.332031 47.386719 C 335.550781 47.386719 317.414062 64.226562 314.042969 85.722656 L 299.195312 180.453125 C 297.105469 193.753906 300.101562 206.660156 307.210938 214.964844 C 312.152344 220.742188 318.601562 223.800781 325.84375 223.800781 L 465.175781 223.800781 C 472.417969 223.800781 478.859375 220.742188 483.800781 214.972656 C 490.90625 206.667969 493.90625 193.761719 491.816406 180.464844 L 476.957031 85.722656 C 473.585938 64.226562 455.453125 47.386719 435.667969 47.386719 Z M 355.332031 47.386719 " fill-opacity="1" fill-rule="nonzero"/></g><path fill="#f5f5dc" d="M 478.679688 26.210938 C 476.894531 32.945312 469.9375 36.957031 463.089844 35.488281 C 418.535156 25.917969 372.457031 25.917969 327.914062 35.488281 C 321.0625 36.957031 314.105469 32.945312 312.324219 26.210938 C 310.539062 19.484375 315.125 12.4375 322.617188 10.832031 C 370.65625 0.515625 420.347656 0.515625 468.386719 10.832031 C 475.878906 12.4375 480.464844 19.484375 478.679688 26.210938 Z M 478.679688 26.210938 " fill-opacity="1" fill-rule="nonzero"/><g clip-path="url(#224f00608d)"><path fill="#000000" d="M 465.976562 38.046875 C 464.871094 38.046875 463.75 37.929688 462.617188 37.691406 C 418.082031 28.128906 372.914062 28.128906 328.386719 37.691406 C 320.242188 39.429688 312.226562 34.648438 310.148438 26.789062 C 309.164062 23.078125 309.761719 19.171875 311.832031 15.808594 C 314.0625 12.179688 317.816406 9.566406 322.144531 8.640625 C 370.816406 -1.824219 420.175781 -1.824219 468.859375 8.628906 C 473.183594 9.558594 476.941406 12.171875 479.167969 15.800781 C 481.238281 19.171875 481.835938 23.070312 480.855469 26.78125 C 479.0625 33.558594 472.871094 38.046875 465.976562 38.046875 Z M 395.503906 26.015625 C 418.25 26.015625 440.984375 28.441406 463.570312 33.292969 C 469.359375 34.53125 475.039062 31.167969 476.511719 25.640625 C 477.171875 23.132812 476.761719 20.476562 475.34375 18.164062 C 473.753906 15.578125 471.054688 13.714844 467.921875 13.035156 C 419.863281 2.714844 371.148438 2.714844 323.097656 13.035156 C 319.96875 13.707031 317.265625 15.578125 315.675781 18.164062 C 314.257812 20.476562 313.847656 23.132812 314.507812 25.640625 C 315.972656 31.167969 321.660156 34.53125 327.449219 33.292969 C 350.015625 28.441406 372.761719 26.015625 395.503906 26.015625 Z M 395.503906 26.015625 " fill-opacity="1" fill-rule="nonzero"/></g></g></g></svg>