<svg xmlns="http://www.w3.org/2000/svg" xmlns:xlink="http://www.w3.org/1999/xlink" width="1920" zoomAndPan="magnify" viewBox="0 0 1440 809.999993" height="1080" preserveAspectRatio="xMidYMid meet" version="1.0"><defs><clipPath id="e15beef366"><path d="M 136.25 10.09375 L 522 10.09375 L 522 182.800781 L 136.25 182.800781 Z M 136.25 10.09375 " clip-rule="nonzero"/></clipPath><clipPath id="6c9294f8f3"><path d="M 136.25 178.734375 L 136.25 14.164062 C 136.25 11.914062 138.070312 10.09375 140.316406 10.09375 L 517.683594 10.09375 C 519.929688 10.09375 521.75 11.914062 521.75 14.164062 L 521.75 178.734375 C 521.75 180.980469 519.929688 182.800781 517.683594 182.800781 L 140.316406 182.800781 C 138.070312 182.800781 136.25 180.980469 136.25 178.734375 Z M 136.25 178.734375 " clip-rule="nonzero"/></clipPath><clipPath id="5ce02227fb"><path d="M 0.25 0.09375 L 385.878906 0.09375 L 385.878906 172.800781 L 0.25 172.800781 Z M 0.25 0.09375 " clip-rule="nonzero"/></clipPath><clipPath id="6c377a726a"><path d="M 0.25 168.734375 L 0.25 4.164062 C 0.25 1.914062 2.070312 0.09375 4.316406 0.09375 L 381.683594 0.09375 C 383.929688 0.09375 385.75 1.914062 385.75 4.164062 L 385.75 168.734375 C 385.75 170.980469 383.929688 172.800781 381.683594 172.800781 L 4.316406 172.800781 C 2.070312 172.800781 0.25 170.980469 0.25 168.734375 Z M 0.25 168.734375 " clip-rule="nonzero"/></clipPath><clipPath id="cf49a25686"><rect x="0" width="386" y="0" height="173"/></clipPath><clipPath id="d86172354f"><path d="M 136.25 10 L 521.890625 10 L 521.890625 182.800781 L 136.25 182.800781 Z M 136.25 10 " clip-rule="nonzero"/></clipPath><clipPath id="debad54fa8"><path d="M 136.25 178.734375 L 136.25 14.164062 C 136.25 11.917969 138.070312 10.097656 140.316406 10.097656 L 517.679688 10.097656 C 519.925781 10.097656 521.746094 11.917969 521.746094 14.164062 L 521.746094 178.734375 C 521.746094 180.980469 519.925781 182.800781 517.679688 182.800781 L 140.316406 182.800781 C 138.070312 182.800781 136.25 180.980469 136.25 178.734375 Z M 136.25 178.734375 " clip-rule="nonzero"/></clipPath><clipPath id="b6244a13a9"><path d="M 10.171875 10 L 182.878906 10 L 182.878906 613.96875 L 10.171875 613.96875 Z M 10.171875 10 " clip-rule="nonzero"/></clipPath><clipPath id="7ccc2d3069"><path d="M 178.8125 613.96875 L 14.238281 613.96875 C 11.992188 613.96875 10.171875 612.148438 10.171875 609.902344 L 10.171875 14.164062 C 10.171875 11.914062 11.992188 10.09375 14.238281 10.09375 L 178.8125 10.09375 C 181.058594 10.09375 182.878906 11.914062 182.878906 14.164062 L 182.878906 609.902344 C 182.878906 612.148438 181.058594 613.96875 178.8125 613.96875 Z M 178.8125 613.96875 " clip-rule="nonzero"/></clipPath><clipPath id="95ffce6e7e"><path d="M 0.171875 0 L 172.878906 0 L 172.878906 603.96875 L 0.171875 603.96875 Z M 0.171875 0 " clip-rule="nonzero"/></clipPath><clipPath id="43ca5f54d8"><path d="M 168.8125 603.96875 L 4.238281 603.96875 C 1.992188 603.96875 0.171875 602.148438 0.171875 599.902344 L 0.171875 4.164062 C 0.171875 1.914062 1.992188 0.09375 4.238281 0.09375 L 168.8125 0.09375 C 171.058594 0.09375 172.878906 1.914062 172.878906 4.164062 L 172.878906 599.902344 C 172.878906 602.148438 171.058594 603.96875 168.8125 603.96875 Z M 168.8125 603.96875 " clip-rule="nonzero"/></clipPath><clipPath id="e5571a731b"><rect x="0" width="173" y="0" height="604"/></clipPath><clipPath id="d3a7d511b8"><path d="M 10 10.28125 L 182.878906 10.28125 L 182.878906 613.96875 L 10 613.96875 Z M 10 10.28125 " clip-rule="nonzero"/></clipPath><clipPath id="9867c1e753"><path d="M 178.8125 613.96875 L 14.242188 613.96875 C 11.996094 613.96875 10.175781 612.148438 10.175781 609.898438 L 10.175781 14.167969 C 10.175781 11.921875 11.996094 10.101562 14.242188 10.101562 L 178.8125 10.101562 C 181.058594 10.101562 182.878906 11.921875 182.878906 14.167969 L 182.878906 609.898438 C 182.878906 612.148438 181.058594 613.96875 178.8125 613.96875 Z M 178.8125 613.96875 " clip-rule="nonzero"/></clipPath><clipPath id="de9a9fd01a"><path d="M 10.128906 558.117188 L 661.828125 558.117188 L 661.828125 730.824219 L 10.128906 730.824219 Z M 10.128906 558.117188 " clip-rule="nonzero"/></clipPath><clipPath id="4e2b4be43d"><path d="M 661.828125 562.183594 L 661.828125 726.753906 C 661.828125 729.003906 660.007812 730.824219 657.761719 730.824219 L 14.238281 730.824219 C 11.992188 730.824219 10.167969 729.003906 10.167969 726.753906 L 10.167969 562.183594 C 10.167969 559.9375 11.992188 558.117188 14.238281 558.117188 L 657.761719 558.117188 C 660.007812 558.117188 661.828125 559.9375 661.828125 562.183594 Z M 661.828125 562.183594 " clip-rule="nonzero"/></clipPath><clipPath id="48a8d44af1"><path d="M 0.128906 0.117188 L 651.828125 0.117188 L 651.828125 172.824219 L 0.128906 172.824219 Z M 0.128906 0.117188 " clip-rule="nonzero"/></clipPath><clipPath id="c8ff8ccb29"><path d="M 651.828125 4.183594 L 651.828125 168.753906 C 651.828125 171.003906 650.007812 172.824219 647.761719 172.824219 L 4.238281 172.824219 C 1.992188 172.824219 0.167969 171.003906 0.167969 168.753906 L 0.167969 4.183594 C 0.167969 1.9375 1.992188 0.117188 4.238281 0.117188 L 647.761719 0.117188 C 650.007812 0.117188 651.828125 1.9375 651.828125 4.183594 Z M 651.828125 4.183594 " clip-rule="nonzero"/></clipPath><clipPath id="80be548779"><rect x="0" width="652" y="0" height="173"/></clipPath><clipPath id="423453c7c0"><path d="M 10.136719 558.117188 L 661.828125 558.117188 L 661.828125 731 L 10.136719 731 Z M 10.136719 558.117188 " clip-rule="nonzero"/></clipPath><clipPath id="af9f5d8994"><path d="M 661.828125 562.183594 L 661.828125 726.753906 C 661.828125 729 660.003906 730.820312 657.757812 730.820312 L 14.246094 730.820312 C 12 730.820312 10.175781 729 10.175781 726.753906 L 10.175781 562.183594 C 10.175781 559.9375 12 558.117188 14.246094 558.117188 L 657.757812 558.117188 C 660.003906 558.117188 661.828125 559.9375 661.828125 562.183594 Z M 661.828125 562.183594 " clip-rule="nonzero"/></clipPath><clipPath id="255b524971"><path d="M 268 192.367188 L 328 192.367188 L 328 247 L 268 247 Z M 268 192.367188 " clip-rule="nonzero"/></clipPath><clipPath id="25f208f2ed"><path d="M 268 192.367188 L 328.996094 192.367188 L 328.996094 248 L 268 248 Z M 268 192.367188 " clip-rule="nonzero"/></clipPath><clipPath id="957eb4097f"><path d="M 430 195.003906 L 490 195.003906 L 490 250 L 430 250 Z M 430 195.003906 " clip-rule="nonzero"/></clipPath><clipPath id="712b4ad01b"><path d="M 430 195.003906 L 490.878906 195.003906 L 490.878906 251 L 430 251 Z M 430 195.003906 " clip-rule="nonzero"/></clipPath><clipPath id="3ba7382a51"><path d="M 542 489 L 602 489 L 602 543.792969 L 542 543.792969 Z M 542 489 " clip-rule="nonzero"/></clipPath><clipPath id="b11c82ecbc"><path d="M 541.160156 488 L 602 488 L 602 543.792969 L 541.160156 543.792969 Z M 541.160156 488 " clip-rule="nonzero"/></clipPath><clipPath id="ce1b00173b"><path d="M 379.273438 486 L 440.699219 486 L 440.699219 541.15625 L 379.273438 541.15625 Z M 379.273438 486 " clip-rule="nonzero"/></clipPath><clipPath id="93f6c44ab2"><path d="M 212.476562 459.351562 L 268 459.351562 L 268 520.777344 L 212.476562 520.777344 Z M 212.476562 459.351562 " clip-rule="nonzero"/></clipPath><clipPath id="d029ee3736"><path d="M 268 464 L 280.820312 464 L 280.820312 516 L 268 516 Z M 268 464 " clip-rule="nonzero"/></clipPath><clipPath id="487650f32a"><path d="M 215.113281 298 L 270 298 L 270 358 L 215.113281 358 Z M 215.113281 298 " clip-rule="nonzero"/></clipPath><clipPath id="9753abf386"><path d="M 215.113281 297.46875 L 271 297.46875 L 271 358.894531 L 215.113281 358.894531 Z M 215.113281 297.46875 " clip-rule="nonzero"/></clipPath><clipPath id="09cbb6368d"><path d="M 521.839844 2.058594 L 666.25 2.058594 L 666.25 151.351562 L 521.839844 151.351562 Z M 521.839844 2.058594 " clip-rule="nonzero"/></clipPath><clipPath id="e4e908112f"><path d="M 0.839844 0.078125 L 145.164062 0.078125 L 145.164062 36 L 0.839844 36 Z M 0.839844 0.078125 " clip-rule="nonzero"/></clipPath><clipPath id="de0f649e34"><path d="M 7 32 L 10 32 L 10 149.351562 L 7 149.351562 Z M 7 32 " clip-rule="nonzero"/></clipPath><clipPath id="987ab7fbe5"><path d="M 7 33 L 139 33 L 139 149.351562 L 7 149.351562 Z M 7 33 " clip-rule="nonzero"/></clipPath><clipPath id="ba1025730a"><rect x="0" width="146" y="0" height="150"/></clipPath><clipPath id="67c83f567c"><rect x="0" width="672" y="0" height="741"/></clipPath></defs><g transform="matrix(1, 0, 0, 1, 381, 38)"><g clip-path="url(#67c83f567c)"><g clip-path="url(#e15beef366)"><g clip-path="url(#6c9294f8f3)"><g transform="matrix(1, 0, 0, 1, 136, 10)"><g clip-path="url(#cf49a25686)"><g clip-path="url(#5ce02227fb)"><g clip-path="url(#6c377a726a)"><path fill="#f5f5dc" d="M 0.25 172.800781 L 0.25 0.09375 L 385.464844 0.09375 L 385.464844 172.800781 Z M 0.25 172.800781 " fill-opacity="1" fill-rule="nonzero"/></g></g></g></g></g></g><g clip-path="url(#d86172354f)"><g clip-path="url(#debad54fa8)"><path stroke-linecap="butt" transform="matrix(0, -0.406798, 0.406798, 0, 136.248731, 182.801533)" fill="none" stroke-linejoin="miter" d="M 9.997975 0.0031185 L 414.548243 0.0031185 C 420.069638 0.0031185 424.544369 4.47785 424.544369 9.999245 L 424.544369 937.641748 C 424.544369 943.163144 420.069638 947.637875 414.548243 947.637875 L 9.997975 947.637875 C 4.476579 947.637875 0.0018477 943.163144 0.0018477 937.641748 L 0.0018477 9.999245 C 0.0018477 4.47785 4.476579 0.0031185 9.997975 0.0031185 Z M 9.997975 0.0031185 " stroke="#000000" stroke-width="10" stroke-opacity="1" stroke-miterlimit="4"/></g></g><g clip-path="url(#b6244a13a9)"><g clip-path="url(#7ccc2d3069)"><g transform="matrix(1, 0, 0, 1, 10, 10)"><g clip-path="url(#e5571a731b)"><g clip-path="url(#95ffce6e7e)"><g clip-path="url(#43ca5f54d8)"><path fill="#f5f5dc" d="M 172.878906 603.96875 L 0.171875 603.96875 L 0.171875 0.171875 L 172.878906 0.171875 Z M 172.878906 603.96875 " fill-opacity="1" fill-rule="nonzero"/></g></g></g></g></g></g><g clip-path="url(#d3a7d511b8)"><g clip-path="url(#9867c1e753)"><path stroke-linecap="butt" transform="matrix(-0.406798, 0, 0, -0.406798, 182.878807, 613.967907)" fill="none" stroke-linejoin="miter" d="M 9.995882 -0.00207179 L 414.54615 -0.00207179 C 420.067546 -0.00207179 424.542277 4.472659 424.542277 10.003658 L 424.542277 1474.441059 C 424.542277 1479.962454 420.067546 1484.437186 414.54615 1484.437186 L 9.995882 1484.437186 C 4.474486 1484.437186 -0.000244828 1479.962454 -0.000244828 1474.441059 L -0.000244828 10.003658 C -0.000244828 4.472659 4.474486 -0.00207179 9.995882 -0.00207179 Z M 9.995882 -0.00207179 " stroke="#000000" stroke-width="10" stroke-opacity="1" stroke-miterlimit="4"/></g></g><g clip-path="url(#de9a9fd01a)"><g clip-path="url(#4e2b4be43d)"><g transform="matrix(1, 0, 0, 1, 10, 558)"><g clip-path="url(#80be548779)"><g clip-path="url(#48a8d44af1)"><g clip-path="url(#c8ff8ccb29)"><path fill="#f5f5dc" d="M 651.828125 0.117188 L 651.828125 172.824219 L 0.128906 172.824219 L 0.128906 0.117188 Z M 651.828125 0.117188 " fill-opacity="1" fill-rule="nonzero"/></g></g></g></g></g></g><g clip-path="url(#423453c7c0)"><g clip-path="url(#af9f5d8994)"><path stroke-linecap="butt" transform="matrix(0, 0.406798, -0.406798, 0, 661.826906, 558.116286)" fill="none" stroke-linejoin="miter" d="M 9.998343 -0.00299716 L 414.548611 -0.00299716 C 420.070007 -0.00299716 424.544738 4.481336 424.544738 10.002732 L 424.544738 1591.897026 C 424.544738 1597.418421 420.070007 1601.902755 414.548611 1601.902755 L 9.998343 1601.902755 C 4.476947 1601.902755 0.00221606 1597.418421 0.00221606 1591.897026 L 0.00221606 10.002732 C 0.00221606 4.481336 4.476947 -0.00299716 9.998343 -0.00299716 Z M 9.998343 -0.00299716 " stroke="#000000" stroke-width="10" stroke-opacity="1" stroke-miterlimit="4"/></g></g><path fill="#f5f5dc" d="M 311.992188 253.90625 L 305.785156 253.90625 L 305.785156 246.945312 L 311.992188 246.945312 Z M 311.992188 253.90625 " fill-opacity="1" fill-rule="nonzero"/><path fill="#000000" d="M 305.117188 246.273438 L 312.664062 246.273438 L 312.664062 254.574219 L 305.117188 254.574219 Z M 311.324219 247.613281 L 306.457031 247.613281 L 306.457031 253.234375 L 311.324219 253.234375 Z M 311.324219 247.613281 " fill-opacity="1" fill-rule="nonzero"/><path fill="#f5f5dc" d="M 290.789062 253.90625 L 284.578125 253.90625 L 284.578125 246.945312 L 290.789062 246.945312 Z M 290.789062 253.90625 " fill-opacity="1" fill-rule="nonzero"/><path fill="#000000" d="M 283.910156 246.273438 L 291.460938 246.273438 L 291.460938 254.574219 L 283.910156 254.574219 Z M 290.121094 247.613281 L 285.25 247.613281 L 285.25 253.234375 L 290.121094 253.234375 Z M 290.121094 247.613281 " fill-opacity="1" fill-rule="nonzero"/><g clip-path="url(#255b524971)"><path fill="#f5f5dc" d="M 273.445312 234.789062 L 269.027344 206.617188 C 267.878906 199.3125 271.6875 192.957031 277.609375 192.957031 L 319.042969 192.957031 C 324.96875 192.957031 328.773438 199.3125 327.628906 206.617188 L 323.210938 234.789062 C 322.140625 241.628906 316.378906 246.753906 310.269531 246.753906 L 286.382812 246.753906 C 280.273438 246.753906 274.515625 241.628906 273.445312 234.789062 Z M 273.445312 234.789062 " fill-opacity="1" fill-rule="nonzero"/></g><g clip-path="url(#25f208f2ed)"><path fill="#000000" d="M 277.609375 192.285156 L 319.042969 192.285156 C 321.5625 192.285156 323.890625 193.386719 325.601562 195.378906 C 327.964844 198.144531 328.972656 202.386719 328.289062 206.722656 L 323.875 234.890625 C 322.769531 241.917969 316.796875 247.421875 310.273438 247.421875 L 286.386719 247.421875 C 279.859375 247.421875 273.882812 241.917969 272.785156 234.890625 L 268.363281 206.71875 C 267.6875 202.382812 268.691406 198.144531 271.054688 195.378906 C 272.761719 193.386719 275.089844 192.285156 277.609375 192.285156 Z M 310.273438 246.085938 C 316.15625 246.085938 321.546875 241.078125 322.550781 234.683594 L 326.964844 206.515625 C 327.585938 202.558594 326.695312 198.722656 324.582031 196.253906 C 323.113281 194.535156 321.195312 193.625 319.042969 193.625 L 277.609375 193.625 C 275.453125 193.625 273.539062 194.535156 272.070312 196.25 C 269.957031 198.71875 269.066406 202.558594 269.6875 206.511719 L 274.105469 234.683594 C 275.105469 241.078125 280.5 246.085938 286.382812 246.085938 Z M 310.273438 246.085938 " fill-opacity="1" fill-rule="nonzero"/></g><path fill="#f5f5dc" d="M 273.59375 252.382812 C 274.125 250.378906 276.191406 249.1875 278.230469 249.625 C 291.476562 252.46875 305.179688 252.46875 318.425781 249.625 C 320.460938 249.1875 322.53125 250.378906 323.0625 252.382812 C 323.59375 254.382812 322.230469 256.476562 320 256.953125 C 305.714844 260.023438 290.9375 260.023438 276.652344 256.953125 C 274.425781 256.476562 273.0625 254.382812 273.59375 252.382812 Z M 273.59375 252.382812 " fill-opacity="1" fill-rule="nonzero"/><path fill="#000000" d="M 277.371094 248.863281 C 277.699219 248.863281 278.03125 248.898438 278.371094 248.96875 C 291.613281 251.8125 305.042969 251.8125 318.285156 248.96875 C 320.707031 248.453125 323.089844 249.871094 323.710938 252.210938 C 324 253.3125 323.824219 254.476562 323.207031 255.476562 C 322.542969 256.554688 321.429688 257.332031 320.140625 257.605469 C 305.667969 260.71875 290.988281 260.71875 276.511719 257.609375 C 275.226562 257.335938 274.109375 256.558594 273.445312 255.476562 C 272.832031 254.476562 272.652344 253.316406 272.945312 252.210938 C 273.480469 250.195312 275.320312 248.863281 277.371094 248.863281 Z M 298.324219 252.441406 C 291.5625 252.441406 284.800781 251.71875 278.085938 250.277344 C 276.363281 249.90625 274.675781 250.90625 274.238281 252.550781 C 274.042969 253.296875 274.164062 254.085938 274.585938 254.773438 C 275.058594 255.542969 275.859375 256.097656 276.792969 256.300781 C 291.082031 259.367188 305.570312 259.367188 319.859375 256.300781 C 320.789062 256.101562 321.59375 255.542969 322.066406 254.773438 C 322.488281 254.085938 322.609375 253.296875 322.414062 252.550781 C 321.976562 250.90625 320.285156 249.90625 318.5625 250.277344 C 311.851562 251.71875 305.089844 252.441406 298.324219 252.441406 Z M 298.324219 252.441406 " fill-opacity="1" fill-rule="nonzero"/><path fill="#f5f5dc" d="M 473.878906 256.539062 L 467.667969 256.539062 L 467.667969 249.578125 L 473.878906 249.578125 Z M 473.878906 256.539062 " fill-opacity="1" fill-rule="nonzero"/><path fill="#000000" d="M 467 248.910156 L 474.550781 248.910156 L 474.550781 257.207031 L 467 257.207031 Z M 473.210938 250.246094 L 468.339844 250.246094 L 468.339844 255.867188 L 473.210938 255.867188 Z M 473.210938 250.246094 " fill-opacity="1" fill-rule="nonzero"/><path fill="#f5f5dc" d="M 452.671875 256.539062 L 446.464844 256.539062 L 446.464844 249.578125 L 452.671875 249.578125 Z M 452.671875 256.539062 " fill-opacity="1" fill-rule="nonzero"/><path fill="#000000" d="M 445.796875 248.910156 L 453.34375 248.910156 L 453.34375 257.207031 L 445.796875 257.207031 Z M 452.003906 250.246094 L 447.136719 250.246094 L 447.136719 255.867188 L 452.003906 255.867188 Z M 452.003906 250.246094 " fill-opacity="1" fill-rule="nonzero"/><g clip-path="url(#957eb4097f)"><path fill="#f5f5dc" d="M 435.328125 237.421875 L 430.910156 209.253906 C 429.765625 201.945312 433.570312 195.589844 439.496094 195.589844 L 480.929688 195.589844 C 486.855469 195.589844 490.660156 201.945312 489.515625 209.253906 L 485.097656 237.421875 C 484.023438 244.265625 478.265625 249.386719 472.15625 249.386719 L 448.269531 249.386719 C 442.160156 249.386719 436.402344 244.265625 435.328125 237.421875 Z M 435.328125 237.421875 " fill-opacity="1" fill-rule="nonzero"/></g><g clip-path="url(#712b4ad01b)"><path fill="#000000" d="M 439.496094 194.917969 L 480.929688 194.917969 C 483.449219 194.917969 485.777344 196.019531 487.484375 198.015625 C 489.851562 200.78125 490.855469 205.019531 490.175781 209.355469 L 485.757812 237.527344 C 484.65625 244.554688 478.683594 250.058594 472.15625 250.058594 L 448.269531 250.058594 C 441.746094 250.058594 435.769531 244.554688 434.667969 237.527344 L 430.25 209.355469 C 429.570312 205.015625 430.578125 200.777344 432.941406 198.011719 C 434.644531 196.019531 436.972656 194.917969 439.496094 194.917969 Z M 472.15625 248.71875 C 478.039062 248.71875 483.433594 243.710938 484.433594 237.320312 L 488.851562 209.148438 C 489.472656 205.195312 488.582031 201.355469 486.46875 198.886719 C 484.996094 197.167969 483.078125 196.257812 480.925781 196.257812 L 439.492188 196.257812 C 437.339844 196.257812 435.425781 197.167969 433.957031 198.886719 C 431.839844 201.355469 430.949219 205.191406 431.570312 209.148438 L 435.988281 237.320312 C 436.992188 243.710938 442.382812 248.71875 448.269531 248.71875 Z M 472.15625 248.71875 " fill-opacity="1" fill-rule="nonzero"/></g><path fill="#f5f5dc" d="M 435.476562 255.015625 C 436.007812 253.015625 438.078125 251.820312 440.113281 252.257812 C 453.363281 255.105469 467.066406 255.105469 480.3125 252.257812 C 482.347656 251.820312 484.417969 253.015625 484.949219 255.015625 C 485.476562 257.015625 484.113281 259.113281 481.886719 259.589844 C 467.601562 262.660156 452.824219 262.660156 438.539062 259.589844 C 436.3125 259.113281 434.949219 257.015625 435.476562 255.015625 Z M 435.476562 255.015625 " fill-opacity="1" fill-rule="nonzero"/><path fill="#000000" d="M 439.253906 251.496094 C 439.582031 251.496094 439.917969 251.53125 440.253906 251.601562 C 453.5 254.445312 466.929688 254.445312 480.171875 251.601562 C 482.59375 251.085938 484.976562 252.507812 485.59375 254.84375 C 485.886719 255.949219 485.707031 257.109375 485.09375 258.109375 C 484.429688 259.1875 483.3125 259.964844 482.027344 260.242188 C 467.554688 263.351562 452.875 263.351562 438.398438 260.246094 C 437.113281 259.96875 435.996094 259.191406 435.332031 258.113281 C 434.714844 257.109375 434.539062 255.949219 434.832031 254.847656 C 435.363281 252.832031 437.203125 251.496094 439.253906 251.496094 Z M 460.210938 255.074219 C 453.449219 255.074219 446.6875 254.355469 439.972656 252.910156 C 438.25 252.542969 436.558594 253.542969 436.121094 255.1875 C 435.925781 255.933594 436.046875 256.722656 436.46875 257.410156 C 436.941406 258.179688 437.746094 258.734375 438.675781 258.933594 C 452.96875 262.003906 467.453125 262.003906 481.742188 258.933594 C 482.675781 258.734375 483.476562 258.179688 483.949219 257.410156 C 484.371094 256.722656 484.492188 255.933594 484.296875 255.1875 C 483.863281 253.542969 482.171875 252.542969 480.449219 252.910156 C 473.738281 254.355469 466.976562 255.074219 460.210938 255.074219 Z M 460.210938 255.074219 " fill-opacity="1" fill-rule="nonzero"/><path fill="#f5f5dc" d="M 558.160156 482.257812 L 564.367188 482.257812 L 564.367188 489.214844 L 558.160156 489.214844 Z M 558.160156 482.257812 " fill-opacity="1" fill-rule="nonzero"/><path fill="#000000" d="M 565.035156 489.886719 L 557.488281 489.886719 L 557.488281 481.589844 L 565.035156 481.589844 Z M 558.828125 488.546875 L 563.699219 488.546875 L 563.699219 482.925781 L 558.828125 482.925781 Z M 558.828125 488.546875 " fill-opacity="1" fill-rule="nonzero"/><path fill="#f5f5dc" d="M 579.363281 482.257812 L 585.574219 482.257812 L 585.574219 489.214844 L 579.363281 489.214844 Z M 579.363281 482.257812 " fill-opacity="1" fill-rule="nonzero"/><path fill="#000000" d="M 586.242188 489.886719 L 578.695312 489.886719 L 578.695312 481.589844 L 586.242188 481.589844 Z M 580.035156 488.546875 L 584.902344 488.546875 L 584.902344 482.925781 L 580.035156 482.925781 Z M 580.035156 488.546875 " fill-opacity="1" fill-rule="nonzero"/><g clip-path="url(#3ba7382a51)"><path fill="#f5f5dc" d="M 596.707031 501.371094 L 601.128906 529.542969 C 602.273438 536.851562 598.46875 543.203125 592.542969 543.203125 L 551.109375 543.203125 C 545.183594 543.203125 541.378906 536.851562 542.523438 529.542969 L 546.941406 501.371094 C 548.015625 494.53125 553.773438 489.40625 559.882812 489.40625 L 583.769531 489.40625 C 589.878906 489.40625 595.636719 494.53125 596.707031 501.371094 Z M 596.707031 501.371094 " fill-opacity="1" fill-rule="nonzero"/></g><g clip-path="url(#b11c82ecbc)"><path fill="#000000" d="M 592.542969 543.875 L 551.109375 543.875 C 548.589844 543.875 546.261719 542.773438 544.550781 540.78125 C 542.1875 538.015625 541.179688 533.777344 541.863281 529.4375 L 546.277344 501.269531 C 547.382812 494.242188 553.355469 488.738281 559.878906 488.738281 L 583.769531 488.738281 C 590.292969 488.738281 596.269531 494.242188 597.367188 501.269531 L 601.789062 529.441406 C 602.46875 533.777344 601.460938 538.015625 599.097656 540.785156 C 597.394531 542.773438 595.0625 543.875 592.542969 543.875 Z M 559.878906 490.074219 C 553.996094 490.074219 548.605469 495.082031 547.601562 501.476562 L 543.1875 529.644531 C 542.566406 533.601562 543.457031 537.4375 545.570312 539.90625 C 547.039062 541.625 548.957031 542.535156 551.113281 542.535156 L 592.542969 542.535156 C 594.699219 542.535156 596.613281 541.625 598.082031 539.910156 C 600.195312 537.441406 601.085938 533.601562 600.46875 529.648438 L 596.046875 501.476562 C 595.046875 495.082031 589.652344 490.074219 583.769531 490.074219 Z M 559.878906 490.074219 " fill-opacity="1" fill-rule="nonzero"/></g><path fill="#f5f5dc" d="M 596.558594 483.777344 C 596.03125 485.78125 593.960938 486.976562 591.921875 486.539062 C 578.675781 483.691406 564.972656 483.691406 551.726562 486.539062 C 549.691406 486.976562 547.621094 485.78125 547.089844 483.777344 C 546.558594 481.777344 547.921875 479.683594 550.152344 479.207031 C 564.4375 476.136719 579.214844 476.136719 593.5 479.207031 C 595.726562 479.683594 597.089844 481.777344 596.558594 483.777344 Z M 596.558594 483.777344 " fill-opacity="1" fill-rule="nonzero"/><path fill="#000000" d="M 592.78125 487.296875 C 592.453125 487.296875 592.121094 487.265625 591.785156 487.191406 C 578.539062 484.347656 565.109375 484.347656 551.867188 487.191406 C 549.445312 487.710938 547.0625 486.289062 546.445312 483.949219 C 546.152344 482.847656 546.328125 481.6875 546.945312 480.6875 C 547.609375 479.605469 548.726562 478.828125 550.011719 478.554688 C 564.484375 475.441406 579.164062 475.441406 593.640625 478.550781 C 594.925781 478.828125 596.042969 479.605469 596.707031 480.683594 C 597.320312 481.6875 597.5 482.84375 597.207031 483.949219 C 596.675781 485.964844 594.832031 487.296875 592.78125 487.296875 Z M 571.828125 483.71875 C 578.589844 483.71875 585.351562 484.441406 592.066406 485.882812 C 593.789062 486.253906 595.476562 485.253906 595.914062 483.609375 C 596.113281 482.863281 595.988281 482.074219 595.566406 481.386719 C 595.097656 480.617188 594.292969 480.0625 593.363281 479.859375 C 579.070312 476.792969 564.582031 476.792969 550.292969 479.859375 C 549.363281 480.058594 548.558594 480.617188 548.089844 481.386719 C 547.667969 482.074219 547.542969 482.863281 547.742188 483.609375 C 548.175781 485.253906 549.867188 486.253906 551.589844 485.882812 C 558.300781 484.441406 565.0625 483.71875 571.828125 483.71875 Z M 571.828125 483.71875 " fill-opacity="1" fill-rule="nonzero"/><path fill="#f5f5dc" d="M 396.273438 479.621094 L 402.484375 479.621094 L 402.484375 486.582031 L 396.273438 486.582031 Z M 396.273438 479.621094 " fill-opacity="1" fill-rule="nonzero"/><path fill="#000000" d="M 403.152344 487.253906 L 395.601562 487.253906 L 395.601562 478.953125 L 403.152344 478.953125 Z M 396.941406 485.914062 L 401.8125 485.914062 L 401.8125 480.292969 L 396.941406 480.292969 Z M 396.941406 485.914062 " fill-opacity="1" fill-rule="nonzero"/><path fill="#f5f5dc" d="M 417.480469 479.621094 L 423.6875 479.621094 L 423.6875 486.582031 L 417.480469 486.582031 Z M 417.480469 479.621094 " fill-opacity="1" fill-rule="nonzero"/><path fill="#000000" d="M 424.355469 487.253906 L 416.808594 487.253906 L 416.808594 478.953125 L 424.355469 478.953125 Z M 418.148438 485.914062 L 423.019531 485.914062 L 423.019531 480.292969 L 418.148438 480.292969 Z M 418.148438 485.914062 " fill-opacity="1" fill-rule="nonzero"/><path fill="#f5f5dc" d="M 434.824219 498.738281 L 439.242188 526.90625 C 440.386719 534.214844 436.582031 540.570312 430.65625 540.570312 L 389.222656 540.570312 C 383.296875 540.570312 379.492188 534.214844 380.636719 526.90625 L 385.058594 498.738281 C 386.128906 491.898438 391.886719 486.773438 397.996094 486.773438 L 421.886719 486.773438 C 427.992188 486.773438 433.75 491.898438 434.824219 498.738281 Z M 434.824219 498.738281 " fill-opacity="1" fill-rule="nonzero"/><g clip-path="url(#ce1b00173b)"><path fill="#000000" d="M 430.65625 541.242188 L 389.222656 541.242188 C 386.703125 541.242188 384.375 540.140625 382.667969 538.144531 C 380.300781 535.378906 379.296875 531.140625 379.976562 526.804688 L 384.394531 498.632812 C 385.496094 491.605469 391.46875 486.105469 397.996094 486.105469 L 421.882812 486.105469 C 428.40625 486.105469 434.382812 491.605469 435.484375 498.632812 L 439.902344 526.808594 C 440.582031 531.144531 439.578125 535.382812 437.214844 538.148438 C 435.507812 540.140625 433.179688 541.242188 430.65625 541.242188 Z M 397.996094 487.441406 C 392.113281 487.441406 386.71875 492.449219 385.71875 498.839844 L 381.300781 527.011719 C 380.679688 530.964844 381.570312 534.804688 383.6875 537.273438 C 385.15625 538.992188 387.074219 539.902344 389.226562 539.902344 L 430.660156 539.902344 C 432.8125 539.902344 434.726562 538.992188 436.199219 537.277344 C 438.3125 534.804688 439.203125 530.96875 438.582031 527.015625 L 434.164062 498.839844 C 433.160156 492.449219 427.769531 487.441406 421.886719 487.441406 Z M 397.996094 487.441406 " fill-opacity="1" fill-rule="nonzero"/></g><path fill="#f5f5dc" d="M 434.675781 481.144531 C 434.144531 483.144531 432.074219 484.339844 430.039062 483.902344 C 416.789062 481.054688 403.085938 481.054688 389.84375 483.902344 C 387.804688 484.339844 385.734375 483.144531 385.207031 481.144531 C 384.675781 479.144531 386.039062 477.046875 388.265625 476.570312 C 402.550781 473.503906 417.328125 473.503906 431.613281 476.570312 C 433.84375 477.046875 435.207031 479.144531 434.675781 481.144531 Z M 434.675781 481.144531 " fill-opacity="1" fill-rule="nonzero"/><path fill="#000000" d="M 430.898438 484.664062 C 430.570312 484.664062 430.234375 484.628906 429.898438 484.558594 C 416.65625 481.714844 403.222656 481.714844 389.984375 484.558594 C 387.5625 485.074219 385.175781 483.652344 384.558594 481.316406 C 384.265625 480.210938 384.445312 479.050781 385.058594 478.050781 C 385.722656 476.972656 386.839844 476.195312 388.125 475.917969 C 402.601562 472.808594 417.277344 472.808594 431.753906 475.914062 C 433.042969 476.191406 434.15625 476.96875 434.820312 478.046875 C 435.4375 479.050781 435.613281 480.210938 435.320312 481.3125 C 434.789062 483.328125 432.949219 484.664062 430.898438 484.664062 Z M 409.941406 481.085938 C 416.707031 481.085938 423.464844 481.808594 430.183594 483.25 C 431.902344 483.617188 433.59375 482.617188 434.03125 480.972656 C 434.226562 480.230469 434.105469 479.4375 433.683594 478.75 C 433.210938 477.980469 432.40625 477.429688 431.476562 477.226562 C 417.183594 474.15625 402.699219 474.15625 388.410156 477.226562 C 387.480469 477.425781 386.675781 477.980469 386.203125 478.75 C 385.78125 479.4375 385.660156 480.230469 385.855469 480.972656 C 386.289062 482.617188 387.984375 483.617188 389.703125 483.25 C 396.414062 481.808594 403.179688 481.085938 409.941406 481.085938 Z M 409.941406 481.085938 " fill-opacity="1" fill-rule="nonzero"/><path fill="#f5f5dc" d="M 274.015625 476.351562 L 274.015625 482.5625 L 267.054688 482.5625 L 267.054688 476.351562 Z M 274.015625 476.351562 " fill-opacity="1" fill-rule="nonzero"/><path fill="#000000" d="M 266.382812 483.230469 L 266.382812 475.683594 L 274.683594 475.683594 L 274.683594 483.230469 Z M 267.722656 477.019531 L 267.722656 481.890625 L 273.34375 481.890625 L 273.34375 477.019531 Z M 267.722656 477.019531 " fill-opacity="1" fill-rule="nonzero"/><path fill="#f5f5dc" d="M 274.015625 497.558594 L 274.015625 503.769531 L 267.054688 503.769531 L 267.054688 497.558594 Z M 274.015625 497.558594 " fill-opacity="1" fill-rule="nonzero"/><path fill="#000000" d="M 266.382812 504.4375 L 266.382812 496.886719 L 274.683594 496.886719 L 274.683594 504.4375 Z M 267.722656 498.226562 L 267.722656 503.097656 L 273.34375 503.097656 L 273.34375 498.226562 Z M 267.722656 498.226562 " fill-opacity="1" fill-rule="nonzero"/><path fill="#f5f5dc" d="M 254.898438 514.902344 L 226.726562 519.320312 C 219.421875 520.46875 213.066406 516.660156 213.066406 510.734375 L 213.066406 469.304688 C 213.066406 463.378906 219.421875 459.570312 226.726562 460.71875 L 254.898438 465.136719 C 261.738281 466.207031 266.863281 471.964844 266.863281 478.078125 L 266.863281 501.964844 C 266.863281 508.074219 261.738281 513.832031 254.898438 514.902344 Z M 254.898438 514.902344 " fill-opacity="1" fill-rule="nonzero"/><g clip-path="url(#93f6c44ab2)"><path fill="#000000" d="M 212.394531 510.734375 L 212.394531 469.304688 C 212.394531 466.785156 213.496094 464.453125 215.488281 462.746094 C 218.257812 460.378906 222.496094 459.375 226.832031 460.058594 L 255 464.472656 C 262.027344 465.578125 267.53125 471.550781 267.53125 478.074219 L 267.53125 501.960938 C 267.53125 508.488281 262.027344 514.460938 255 515.5625 L 226.828125 519.980469 C 222.492188 520.660156 218.253906 519.65625 215.488281 517.292969 C 213.496094 515.585938 212.394531 513.257812 212.394531 510.734375 Z M 266.195312 478.074219 C 266.195312 472.191406 261.1875 466.800781 254.796875 465.796875 L 226.625 461.378906 C 222.667969 460.757812 218.832031 461.652344 216.363281 463.765625 C 214.644531 465.234375 213.734375 467.152344 213.734375 469.304688 L 213.734375 510.738281 C 213.734375 512.890625 214.644531 514.808594 216.359375 516.277344 C 218.828125 518.390625 222.667969 519.28125 226.621094 518.660156 L 254.796875 514.242188 C 261.1875 513.238281 266.195312 507.847656 266.195312 501.964844 Z M 266.195312 478.074219 " fill-opacity="1" fill-rule="nonzero"/></g><path fill="#f5f5dc" d="M 272.492188 514.753906 C 270.488281 514.222656 269.296875 512.15625 269.734375 510.117188 C 272.578125 496.867188 272.578125 483.167969 269.734375 469.921875 C 269.296875 467.882812 270.488281 465.816406 272.492188 465.285156 C 274.492188 464.753906 276.585938 466.117188 277.0625 468.34375 C 280.132812 482.632812 280.132812 497.40625 277.0625 511.691406 C 276.585938 513.921875 274.492188 515.285156 272.492188 514.753906 Z M 272.492188 514.753906 " fill-opacity="1" fill-rule="nonzero"/><g clip-path="url(#d029ee3736)"><path fill="#000000" d="M 268.972656 510.976562 C 268.972656 510.648438 269.007812 510.3125 269.078125 509.976562 C 271.921875 496.734375 271.921875 483.300781 269.078125 470.0625 C 268.5625 467.640625 269.980469 465.253906 272.320312 464.636719 C 273.421875 464.347656 274.585938 464.523438 275.585938 465.140625 C 276.664062 465.800781 277.441406 466.917969 277.714844 468.203125 C 280.828125 482.679688 280.828125 497.355469 277.71875 511.832031 C 277.445312 513.121094 276.667969 514.238281 275.585938 514.898438 C 274.585938 515.515625 273.425781 515.691406 272.320312 515.402344 C 270.304688 514.867188 268.972656 513.027344 268.972656 510.976562 Z M 272.550781 490.019531 C 272.550781 496.785156 271.828125 503.546875 270.386719 510.261719 C 270.015625 511.980469 271.015625 513.671875 272.660156 514.109375 C 273.40625 514.304688 274.195312 514.183594 274.882812 513.761719 C 275.652344 513.289062 276.207031 512.484375 276.410156 511.554688 C 279.476562 497.265625 279.476562 482.777344 276.410156 468.488281 C 276.210938 467.558594 275.652344 466.753906 274.882812 466.28125 C 274.195312 465.859375 273.40625 465.738281 272.660156 465.933594 C 271.015625 466.371094 270.015625 468.0625 270.386719 469.78125 C 271.828125 476.492188 272.550781 483.257812 272.550781 490.019531 Z M 272.550781 490.019531 " fill-opacity="1" fill-rule="nonzero"/></g><path fill="#f5f5dc" d="M 276.648438 314.46875 L 276.648438 320.675781 L 269.6875 320.675781 L 269.6875 314.46875 Z M 276.648438 314.46875 " fill-opacity="1" fill-rule="nonzero"/><path fill="#000000" d="M 269.019531 321.34375 L 269.019531 313.796875 L 277.316406 313.796875 L 277.316406 321.34375 Z M 270.359375 315.136719 L 270.359375 320.007812 L 275.976562 320.007812 L 275.976562 315.136719 Z M 270.359375 315.136719 " fill-opacity="1" fill-rule="nonzero"/><path fill="#f5f5dc" d="M 276.648438 335.671875 L 276.648438 341.882812 L 269.6875 341.882812 L 269.6875 335.671875 Z M 276.648438 335.671875 " fill-opacity="1" fill-rule="nonzero"/><path fill="#000000" d="M 269.019531 342.550781 L 269.019531 335.003906 L 277.316406 335.003906 L 277.316406 342.550781 Z M 270.359375 336.34375 L 270.359375 341.210938 L 275.976562 341.210938 L 275.976562 336.34375 Z M 270.359375 336.34375 " fill-opacity="1" fill-rule="nonzero"/><g clip-path="url(#487650f32a)"><path fill="#f5f5dc" d="M 257.535156 353.015625 L 229.363281 357.4375 C 222.054688 358.582031 215.699219 354.777344 215.699219 348.851562 L 215.699219 307.417969 C 215.699219 301.492188 222.054688 297.6875 229.363281 298.832031 L 257.535156 303.25 C 264.375 304.324219 269.5 310.082031 269.5 316.191406 L 269.5 340.078125 C 269.5 346.1875 264.375 351.945312 257.535156 353.015625 Z M 257.535156 353.015625 " fill-opacity="1" fill-rule="nonzero"/></g><g clip-path="url(#9753abf386)"><path fill="#000000" d="M 215.027344 348.851562 L 215.027344 307.417969 C 215.027344 304.898438 216.128906 302.570312 218.125 300.859375 C 220.890625 298.496094 225.128906 297.488281 229.464844 298.171875 L 257.636719 302.585938 C 264.664062 303.691406 270.167969 309.664062 270.167969 316.1875 L 270.167969 340.078125 C 270.167969 346.601562 264.664062 352.578125 257.636719 353.675781 L 229.464844 358.097656 C 225.125 358.777344 220.886719 357.769531 218.121094 355.40625 C 216.128906 353.703125 215.027344 351.371094 215.027344 348.851562 Z M 268.828125 316.1875 C 268.828125 310.304688 263.820312 304.914062 257.429688 303.910156 L 229.257812 299.496094 C 225.304688 298.875 221.464844 299.765625 218.996094 301.878906 C 217.277344 303.347656 216.367188 305.265625 216.367188 307.421875 L 216.367188 348.851562 C 216.367188 351.007812 217.277344 352.921875 218.996094 354.390625 C 221.464844 356.503906 225.300781 357.394531 229.257812 356.777344 L 257.429688 352.355469 C 263.820312 351.355469 268.828125 345.960938 268.828125 340.078125 Z M 268.828125 316.1875 " fill-opacity="1" fill-rule="nonzero"/></g><path fill="#f5f5dc" d="M 275.125 352.867188 C 273.125 352.339844 271.929688 350.269531 272.367188 348.230469 C 275.214844 334.984375 275.214844 321.28125 272.367188 308.035156 C 271.929688 306 273.125 303.929688 275.125 303.398438 C 277.125 302.867188 279.222656 304.230469 279.699219 306.460938 C 282.769531 320.746094 282.769531 335.523438 279.699219 349.808594 C 279.222656 352.035156 277.125 353.398438 275.125 352.867188 Z M 275.125 352.867188 " fill-opacity="1" fill-rule="nonzero"/><path fill="#000000" d="M 271.605469 349.089844 C 271.605469 348.761719 271.640625 348.429688 271.710938 348.09375 C 274.554688 334.847656 274.554688 321.417969 271.710938 308.175781 C 271.195312 305.753906 272.617188 303.371094 274.953125 302.753906 C 276.058594 302.460938 277.21875 302.636719 278.21875 303.253906 C 279.296875 303.917969 280.074219 305.035156 280.351562 306.320312 C 283.460938 320.792969 283.460938 335.472656 280.355469 349.949219 C 280.078125 351.234375 279.300781 352.351562 278.222656 353.015625 C 277.21875 353.628906 276.058594 353.808594 274.957031 353.515625 C 272.941406 352.984375 271.605469 351.140625 271.605469 349.089844 Z M 275.183594 328.136719 C 275.183594 334.898438 274.464844 341.660156 273.019531 348.375 C 272.652344 350.097656 273.652344 351.785156 275.296875 352.222656 C 276.042969 352.421875 276.832031 352.296875 277.519531 351.875 C 278.289062 351.40625 278.84375 350.601562 279.042969 349.671875 C 282.113281 335.378906 282.113281 320.890625 279.042969 306.601562 C 278.84375 305.671875 278.289062 304.867188 277.519531 304.398438 C 276.832031 303.976562 276.042969 303.851562 275.296875 304.050781 C 273.652344 304.484375 272.652344 306.175781 273.019531 307.898438 C 274.464844 314.609375 275.183594 321.371094 275.183594 328.136719 Z M 275.183594 328.136719 " fill-opacity="1" fill-rule="nonzero"/><g clip-path="url(#09cbb6368d)"><g transform="matrix(1, 0, 0, 1, 521, 2)"><g clip-path="url(#ba1025730a)"><path fill="#f5f5dc" d="M 143.179688 33.632812 L 143.179688 2.269531 L 2.820312 2.269531 L 2.820312 33.632812 Z M 143.179688 33.632812 " fill-opacity="1" fill-rule="nonzero"/><g clip-path="url(#e4e908112f)"><path fill="#000000" d="M 145.25 0.195312 L 0.75 0.195312 L 0.75 35.703125 L 145.25 35.703125 Z M 4.890625 4.339844 L 141.105469 4.339844 L 141.105469 31.5625 L 4.890625 31.5625 Z M 4.890625 4.339844 " fill-opacity="1" fill-rule="nonzero"/></g><path fill="#000000" d="M 1.785156 18.984375 L 144.214844 18.984375 L 144.214844 16.914062 L 1.785156 16.914062 Z M 1.785156 18.984375 " fill-opacity="1" fill-rule="nonzero"/><g clip-path="url(#de0f649e34)"><path fill="#000000" d="M 7.632812 149.335938 L 9.082031 149.335938 L 9.082031 32.90625 L 7.632812 32.90625 Z M 7.632812 149.335938 " fill-opacity="1" fill-rule="nonzero"/></g><g clip-path="url(#987ab7fbe5)"><path fill="#000000" d="M 138.367188 33.097656 L 136.921875 33.097656 L 136.921875 33.824219 C 136.921875 35.769531 136.824219 37.839844 136.640625 39.972656 L 136.578125 40.695312 L 138.019531 40.820312 L 138.082031 40.097656 C 138.273438 37.925781 138.367188 35.8125 138.367188 33.824219 Z M 136 45.378906 L 135.886719 46.097656 C 135.570312 48.085938 135.1875 50.125 134.738281 52.164062 L 134.582031 52.871094 L 135.996094 53.183594 L 136.152344 52.476562 C 136.605469 50.410156 137 48.339844 137.316406 46.320312 L 137.429688 45.605469 Z M 133.4375 57.460938 L 133.242188 58.160156 C 132.691406 60.128906 132.082031 62.117188 131.429688 64.070312 L 131.199219 64.757812 L 132.574219 65.21875 L 132.804688 64.53125 C 133.464844 62.554688 134.082031 60.542969 134.636719 58.546875 L 134.832031 57.851562 Z M 129.582031 69.203125 L 129.320312 69.875 C 128.5625 71.804688 127.757812 73.722656 126.921875 75.574219 L 126.625 76.238281 L 127.949219 76.832031 L 128.246094 76.171875 C 129.089844 74.292969 129.90625 72.355469 130.667969 70.40625 L 130.933594 69.730469 Z M 124.585938 80.503906 L 124.257812 81.148438 C 123.320312 82.988281 122.335938 84.816406 121.320312 86.585938 L 120.960938 87.21875 L 122.21875 87.9375 L 122.578125 87.308594 C 123.605469 85.519531 124.605469 83.667969 125.546875 81.808594 L 125.878906 81.160156 Z M 118.515625 91.265625 L 118.125 91.875 C 117.023438 93.597656 115.859375 95.320312 114.667969 96.996094 L 114.246094 97.585938 L 115.429688 98.425781 L 115.847656 97.835938 C 117.054688 96.144531 118.230469 94.398438 119.34375 92.65625 L 119.734375 92.046875 Z M 111.410156 101.367188 L 110.960938 101.933594 C 109.683594 103.554688 108.351562 105.152344 107.011719 106.679688 L 106.53125 107.222656 L 107.621094 108.179688 L 108.097656 107.632812 C 109.457031 106.089844 110.804688 104.472656 112.097656 102.832031 L 112.546875 102.265625 Z M 103.324219 110.691406 L 102.816406 111.210938 C 101.386719 112.683594 99.898438 114.132812 98.398438 115.515625 L 97.863281 116.011719 L 98.847656 117.074219 L 99.378906 116.582031 C 100.902344 115.179688 102.40625 113.710938 103.859375 112.222656 L 104.363281 111.703125 Z M 94.3125 119.121094 L 93.753906 119.582031 C 92.191406 120.878906 90.558594 122.160156 88.902344 123.394531 L 88.320312 123.828125 L 89.183594 124.988281 L 89.765625 124.558594 C 91.445312 123.308594 93.097656 122.011719 94.679688 120.699219 L 95.238281 120.234375 Z M 84.457031 126.539062 L 83.851562 126.941406 C 82.144531 128.070312 80.386719 129.171875 78.621094 130.210938 L 78 130.578125 L 78.734375 131.828125 L 79.359375 131.460938 C 81.144531 130.410156 82.925781 129.292969 84.652344 128.148438 L 85.257812 127.746094 Z M 73.867188 132.867188 L 73.226562 133.199219 C 71.40625 134.148438 69.542969 135.058594 67.679688 135.90625 L 67.023438 136.207031 L 67.621094 137.523438 L 68.285156 137.222656 C 70.164062 136.367188 72.054688 135.445312 73.898438 134.488281 L 74.539062 134.152344 Z M 62.679688 138.054688 L 62.003906 138.320312 C 60.105469 139.074219 58.160156 139.789062 56.214844 140.449219 L 55.527344 140.683594 L 55.992188 142.054688 L 56.679688 141.824219 C 58.648438 141.152344 60.617188 140.429688 62.539062 139.667969 L 63.210938 139.402344 Z M 51.019531 142.09375 L 50.324219 142.296875 C 48.367188 142.859375 46.355469 143.386719 44.355469 143.863281 L 43.648438 144.03125 L 43.984375 145.441406 L 44.691406 145.273438 C 46.714844 144.792969 48.746094 144.257812 50.726562 143.6875 L 51.421875 143.488281 Z M 39.027344 145.019531 L 38.316406 145.15625 C 36.316406 145.539062 34.265625 145.886719 32.230469 146.1875 L 31.511719 146.292969 L 31.722656 147.726562 L 32.441406 147.621094 C 34.496094 147.320312 36.566406 146.96875 38.589844 146.582031 L 39.300781 146.445312 Z M 26.820312 146.890625 L 26.097656 146.96875 C 24.082031 147.183594 22.027344 147.359375 19.941406 147.5 L 19.21875 147.550781 L 19.316406 148.996094 L 20.039062 148.949219 C 22.132812 148.804688 24.222656 148.625 26.253906 148.410156 L 26.972656 148.332031 Z M 14.492188 147.78125 L 13.769531 147.804688 C 11.988281 147.855469 10.183594 147.886719 8.355469 147.886719 L 7.632812 147.886719 L 7.632812 149.335938 L 8.355469 149.335938 C 10.199219 149.335938 12.015625 149.308594 13.8125 149.25 L 14.535156 149.230469 Z M 14.492188 147.78125 " fill-opacity="1" fill-rule="nonzero"/></g></g></g></g></g></g></svg>