<svg xmlns="http://www.w3.org/2000/svg" xmlns:xlink="http://www.w3.org/1999/xlink" width="1920" zoomAndPan="magnify" viewBox="0 0 1440 809.999993" height="1080" preserveAspectRatio="xMidYMid meet" version="1.0"><defs><clipPath id="bcfc89a715"><path d="M 168 174.609375 L 1023.761719 174.609375 L 1023.761719 564.757812 L 168 564.757812 Z M 168 174.609375 " clip-rule="nonzero"/></clipPath><clipPath id="2a4ceba377"><path d="M 1023.761719 178.71875 L 1023.761719 560.648438 C 1023.761719 561.738281 1023.328125 562.785156 1022.558594 563.554688 C 1021.789062 564.324219 1020.742188 564.757812 1019.65625 564.757812 L 172.332031 564.757812 C 171.242188 564.757812 170.195312 564.324219 169.425781 563.554688 C 168.65625 562.785156 168.222656 561.738281 168.222656 560.648438 L 168.222656 178.71875 C 168.222656 177.628906 168.65625 176.585938 169.425781 175.8125 C 170.195312 175.042969 171.242188 174.609375 172.332031 174.609375 L 1019.65625 174.609375 C 1020.742188 174.609375 1021.789062 175.042969 1022.558594 175.8125 C 1023.328125 176.585938 1023.761719 177.628906 1023.761719 178.71875 Z M 1023.761719 178.71875 " clip-rule="nonzero"/></clipPath><clipPath id="3b7411d030"><path d="M 0.078125 0.609375 L 855.761719 0.609375 L 855.761719 390.757812 L 0.078125 390.757812 Z M 0.078125 0.609375 " clip-rule="nonzero"/></clipPath><clipPath id="870bd47978"><path d="M 855.761719 4.71875 L 855.761719 386.648438 C 855.761719 387.738281 855.328125 388.785156 854.558594 389.554688 C 853.789062 390.324219 852.742188 390.757812 851.65625 390.757812 L 4.332031 390.757812 C 3.242188 390.757812 2.195312 390.324219 1.425781 389.554688 C 0.65625 388.785156 0.222656 387.738281 0.222656 386.648438 L 0.222656 4.71875 C 0.222656 3.628906 0.65625 2.585938 1.425781 1.8125 C 2.195312 1.042969 3.242188 0.609375 4.332031 0.609375 L 851.65625 0.609375 C 852.742188 0.609375 853.789062 1.042969 854.558594 1.8125 C 855.328125 2.585938 855.761719 3.628906 855.761719 4.71875 Z M 855.761719 4.71875 " clip-rule="nonzero"/></clipPath><clipPath id="b5c08d4997"><rect x="0" width="856" y="0" height="391"/></clipPath><clipPath id="943f770b1c"><path d="M 168.082031 174.609375 L 1023.761719 174.609375 L 1023.761719 564.863281 L 168.082031 564.863281 Z M 168.082031 174.609375 " clip-rule="nonzero"/></clipPath><clipPath id="9f3ce8d349"><path d="M 1023.761719 178.71875 L 1023.761719 560.648438 C 1023.761719 561.738281 1023.328125 562.78125 1022.558594 563.550781 C 1021.789062 564.320312 1020.742188 564.753906 1019.65625 564.753906 L 172.335938 564.753906 C 171.246094 564.753906 170.203125 564.320312 169.429688 563.550781 C 168.660156 562.78125 168.226562 561.738281 168.226562 560.648438 L 168.226562 178.71875 C 168.226562 177.628906 168.660156 176.585938 169.429688 175.8125 C 170.203125 175.042969 171.246094 174.609375 172.335938 174.609375 L 1019.65625 174.609375 C 1020.742188 174.609375 1021.789062 175.042969 1022.558594 175.8125 C 1023.328125 176.585938 1023.761719 177.628906 1023.761719 178.71875 Z M 1023.761719 178.71875 " clip-rule="nonzero"/></clipPath><clipPath id="706836afc4"><path d="M 169 597.367188 L 284 597.367188 L 284 702 L 169 702 Z M 169 597.367188 " clip-rule="nonzero"/></clipPath><clipPath id="7fd7c319ea"><path d="M 177 704 L 275 704 L 275 725.519531 L 177 725.519531 Z M 177 704 " clip-rule="nonzero"/></clipPath><clipPath id="ccadb2ff73"><path d="M 24 427 L 128.6875 427 L 128.6875 542 L 24 542 Z M 24 427 " clip-rule="nonzero"/></clipPath><clipPath id="fb21248458"><path d="M 0.558594 436 L 22 436 L 22 533 L 0.558594 533 Z M 0.558594 436 " clip-rule="nonzero"/></clipPath><clipPath id="75693613a6"><path d="M 847 30 L 962 30 L 962 134.386719 L 847 134.386719 Z M 847 30 " clip-rule="nonzero"/></clipPath><clipPath id="10f32ec0a4"><path d="M 843 589.53125 L 958 589.53125 L 958 694 L 843 694 Z M 843 589.53125 " clip-rule="nonzero"/></clipPath><clipPath id="e0c7f8cc6f"><path d="M 624 588.636719 L 739 588.636719 L 739 693 L 624 693 Z M 624 588.636719 " clip-rule="nonzero"/></clipPath><clipPath id="38a1f18377"><path d="M 405 24 L 520 24 L 520 128.332031 L 405 128.332031 Z M 405 24 " clip-rule="nonzero"/></clipPath><clipPath id="3ccce48ee3"><path d="M 414 0.238281 L 511 0.238281 L 511 22 L 414 22 Z M 414 0.238281 " clip-rule="nonzero"/></clipPath><clipPath id="3703eb6836"><path d="M 624 24 L 739 24 L 739 128.332031 L 624 128.332031 Z M 624 24 " clip-rule="nonzero"/></clipPath><clipPath id="1ca23e739b"><path d="M 633 0.238281 L 730 0.238281 L 730 22 L 633 22 Z M 633 0.238281 " clip-rule="nonzero"/></clipPath><clipPath id="cdb7653cdd"><path d="M 405 597.367188 L 520 597.367188 L 520 702 L 405 702 Z M 405 597.367188 " clip-rule="nonzero"/></clipPath><clipPath id="cc6928fd6c"><path d="M 414 704 L 511 704 L 511 725.519531 L 414 725.519531 Z M 414 704 " clip-rule="nonzero"/></clipPath><clipPath id="4d625f750d"><path d="M 1063.367188 430 L 1168 430 L 1168 545 L 1063.367188 545 Z M 1063.367188 430 " clip-rule="nonzero"/></clipPath><clipPath id="4cfd8e5ab3"><path d="M 1170 439 L 1191.441406 439 L 1191.441406 536 L 1170 536 Z M 1170 439 " clip-rule="nonzero"/></clipPath><clipPath id="9cf0491a4c"><path d="M 1063.367188 221 L 1168 221 L 1168 336 L 1063.367188 336 Z M 1063.367188 221 " clip-rule="nonzero"/></clipPath><clipPath id="87223d9e55"><path d="M 1170 230 L 1191.441406 230 L 1191.441406 328 L 1170 328 Z M 1170 230 " clip-rule="nonzero"/></clipPath><clipPath id="d10de44d05"><path d="M 26 212 L 130.976562 212 L 130.976562 327 L 26 327 Z M 26 212 " clip-rule="nonzero"/></clipPath><clipPath id="b74b46c4e8"><rect x="0" width="1192" y="0" height="726"/></clipPath></defs><g transform="matrix(1, 0, 0, 1, 124, 42)"><g clip-path="url(#b74b46c4e8)"><g clip-path="url(#bcfc89a715)"><g clip-path="url(#2a4ceba377)"><g transform="matrix(1, 0, 0, 1, 168, 174)"><g clip-path="url(#b5c08d4997)"><g clip-path="url(#3b7411d030)"><g clip-path="url(#870bd47978)"><path fill="#f5f5dc" d="M 855.761719 0.609375 L 855.761719 390.757812 L 0.679688 390.757812 L 0.679688 0.609375 Z M 855.761719 0.609375 " fill-opacity="1" fill-rule="nonzero"/></g></g></g></g></g></g><g clip-path="url(#943f770b1c)"><g clip-path="url(#9f3ce8d349)"><path stroke-linecap="butt" transform="matrix(0, 0.410793, -0.410793, 0, 1023.76246, 174.610586)" fill="none" stroke-linejoin="miter" d="M 10.000566 0.0018056 L 939.737753 0.0018056 C 942.390776 0.0018056 944.92969 1.057309 946.802972 2.930591 C 948.676253 4.803872 949.731757 7.352296 949.731757 9.99581 L 949.731757 2072.6404 C 949.731757 2075.293423 948.676253 2077.832338 946.802972 2079.715128 C 944.92969 2081.58841 942.390776 2082.643913 939.737753 2082.643913 L 10.000566 2082.643913 C 7.347543 2082.643913 4.808628 2081.58841 2.925838 2079.715128 C 1.052556 2077.832338 -0.00294772 2075.293423 -0.00294772 2072.6404 L -0.00294772 9.99581 C -0.00294772 7.352296 1.052556 4.803872 2.925838 2.930591 C 4.808628 1.057309 7.347543 0.0018056 10.000566 0.0018056 Z M 10.000566 0.0018056 " stroke="#000000" stroke-width="10" stroke-opacity="1" stroke-miterlimit="4"/></g></g><path fill="#f5f5dc" d="M 251.953125 713.914062 L 240.226562 713.914062 L 240.226562 700.769531 L 251.953125 700.769531 Z M 251.953125 713.914062 " fill-opacity="1" fill-rule="nonzero"/><path fill="#000000" d="M 238.964844 699.503906 L 253.222656 699.503906 L 253.222656 715.175781 L 238.964844 715.175781 Z M 250.691406 702.03125 L 241.492188 702.03125 L 241.492188 712.648438 L 250.691406 712.648438 Z M 250.691406 702.03125 " fill-opacity="1" fill-rule="nonzero"/><path fill="#f5f5dc" d="M 211.902344 713.914062 L 200.175781 713.914062 L 200.175781 700.769531 L 211.902344 700.769531 Z M 211.902344 713.914062 " fill-opacity="1" fill-rule="nonzero"/><path fill="#000000" d="M 198.914062 699.503906 L 213.171875 699.503906 L 213.171875 715.175781 L 198.914062 715.175781 Z M 210.640625 702.03125 L 201.441406 702.03125 L 201.441406 712.648438 L 210.640625 712.648438 Z M 210.640625 702.03125 " fill-opacity="1" fill-rule="nonzero"/><path fill="#f5f5dc" d="M 179.144531 677.8125 L 170.800781 624.605469 C 168.636719 610.804688 175.824219 598.800781 187.015625 598.800781 L 265.269531 598.800781 C 276.460938 598.800781 283.648438 610.804688 281.484375 624.605469 L 273.140625 677.8125 C 271.117188 690.730469 260.238281 700.410156 248.699219 700.410156 L 203.582031 700.410156 C 192.046875 700.410156 181.167969 690.730469 179.144531 677.8125 Z M 179.144531 677.8125 " fill-opacity="1" fill-rule="nonzero"/><g clip-path="url(#706836afc4)"><path fill="#000000" d="M 187.015625 597.53125 L 265.269531 597.53125 C 270.027344 597.53125 274.425781 599.613281 277.652344 603.378906 C 282.121094 608.605469 284.019531 616.609375 282.734375 624.800781 L 274.390625 678.007812 C 272.308594 691.277344 261.027344 701.671875 248.703125 701.671875 L 203.585938 701.671875 C 191.261719 701.671875 179.976562 691.277344 177.898438 678.007812 L 169.550781 624.796875 C 168.269531 616.605469 170.167969 608.597656 174.632812 603.375 C 177.851562 599.613281 182.25 597.53125 187.015625 597.53125 Z M 248.703125 699.144531 C 259.8125 699.144531 270 689.6875 271.890625 677.617188 L 280.234375 624.410156 C 281.40625 616.941406 279.722656 609.691406 275.730469 605.027344 C 272.953125 601.78125 269.332031 600.0625 265.265625 600.0625 L 187.011719 600.0625 C 182.941406 600.0625 179.324219 601.78125 176.550781 605.023438 C 172.558594 609.6875 170.875 616.933594 172.046875 624.402344 L 180.394531 677.617188 C 182.285156 689.6875 192.472656 699.144531 203.582031 699.144531 Z M 248.703125 699.144531 " fill-opacity="1" fill-rule="nonzero"/></g><path fill="#f5f5dc" d="M 179.425781 711.039062 C 180.429688 707.257812 184.335938 705.003906 188.183594 705.828125 C 213.207031 711.203125 239.085938 711.203125 264.101562 705.828125 C 267.949219 705.003906 271.855469 707.257812 272.859375 711.039062 C 273.859375 714.816406 271.285156 718.773438 267.078125 719.675781 C 240.097656 725.472656 212.1875 725.472656 185.207031 719.675781 C 181 718.773438 178.425781 714.816406 179.425781 711.039062 Z M 179.425781 711.039062 " fill-opacity="1" fill-rule="nonzero"/><g clip-path="url(#7fd7c319ea)"><path fill="#000000" d="M 186.558594 704.390625 C 187.179688 704.390625 187.8125 704.457031 188.449219 704.589844 C 213.460938 709.960938 238.828125 709.960938 263.835938 704.589844 C 268.410156 703.613281 272.914062 706.300781 274.082031 710.714844 C 274.632812 712.796875 274.296875 714.992188 273.132812 716.878906 C 271.882812 718.917969 269.773438 720.386719 267.34375 720.90625 C 240.007812 726.785156 212.285156 726.785156 184.941406 720.914062 C 182.511719 720.390625 180.402344 718.925781 179.152344 716.886719 C 177.988281 714.992188 177.652344 712.800781 178.203125 710.71875 C 179.210938 706.910156 182.6875 704.390625 186.558594 704.390625 Z M 226.140625 711.148438 C 213.367188 711.148438 200.597656 709.785156 187.914062 707.0625 C 184.660156 706.363281 181.46875 708.253906 180.644531 711.359375 C 180.273438 712.765625 180.503906 714.261719 181.300781 715.558594 C 182.191406 717.011719 183.710938 718.058594 185.46875 718.4375 C 212.457031 724.234375 239.820312 724.234375 266.808594 718.4375 C 268.566406 718.0625 270.082031 717.011719 270.976562 715.558594 C 271.773438 714.261719 272.003906 712.765625 271.632812 711.359375 C 270.808594 708.253906 267.613281 706.363281 264.363281 707.0625 C 251.6875 709.785156 238.914062 711.148438 226.140625 711.148438 Z M 226.140625 711.148438 " fill-opacity="1" fill-rule="nonzero"/></g><path fill="#f5f5dc" d="M 12.144531 510.390625 L 12.144531 498.664062 L 25.289062 498.664062 L 25.289062 510.390625 Z M 12.144531 510.390625 " fill-opacity="1" fill-rule="nonzero"/><path fill="#000000" d="M 26.554688 497.402344 L 26.554688 511.660156 L 10.878906 511.660156 L 10.878906 497.402344 Z M 24.027344 509.128906 L 24.027344 499.933594 L 13.410156 499.933594 L 13.410156 509.128906 Z M 24.027344 509.128906 " fill-opacity="1" fill-rule="nonzero"/><path fill="#f5f5dc" d="M 12.144531 470.339844 L 12.144531 458.613281 L 25.289062 458.613281 L 25.289062 470.339844 Z M 12.144531 470.339844 " fill-opacity="1" fill-rule="nonzero"/><path fill="#000000" d="M 26.554688 457.351562 L 26.554688 471.609375 L 10.878906 471.609375 L 10.878906 457.351562 Z M 24.027344 469.078125 L 24.027344 459.882812 L 13.410156 459.882812 L 13.410156 469.078125 Z M 24.027344 469.078125 " fill-opacity="1" fill-rule="nonzero"/><path fill="#f5f5dc" d="M 48.246094 437.582031 L 101.453125 429.238281 C 115.253906 427.074219 127.257812 434.261719 127.257812 445.453125 L 127.257812 523.707031 C 127.257812 534.898438 115.253906 542.085938 101.453125 539.921875 L 48.246094 531.578125 C 35.328125 529.554688 25.648438 518.675781 25.648438 507.136719 L 25.648438 462.019531 C 25.648438 450.484375 35.328125 439.605469 48.246094 437.582031 Z M 48.246094 437.582031 " fill-opacity="1" fill-rule="nonzero"/><g clip-path="url(#ccadb2ff73)"><path fill="#000000" d="M 128.523438 445.453125 L 128.523438 523.707031 C 128.523438 528.464844 126.445312 532.863281 122.679688 536.089844 C 117.453125 540.558594 109.449219 542.457031 101.257812 541.171875 L 48.050781 532.828125 C 34.78125 530.746094 24.386719 519.464844 24.386719 507.140625 L 24.386719 462.023438 C 24.386719 449.703125 34.78125 438.414062 48.050781 436.335938 L 101.261719 427.992188 C 109.453125 426.707031 117.457031 428.605469 122.683594 433.070312 C 126.445312 436.292969 128.523438 440.6875 128.523438 445.453125 Z M 26.910156 507.140625 C 26.910156 518.25 36.367188 528.4375 48.441406 530.328125 L 101.648438 538.671875 C 109.117188 539.84375 116.367188 538.160156 121.03125 534.167969 C 124.277344 531.390625 125.996094 527.769531 125.996094 523.703125 L 125.996094 445.449219 C 125.996094 441.378906 124.277344 437.765625 121.035156 434.988281 C 116.371094 430.996094 109.121094 429.3125 101.652344 430.484375 L 48.441406 438.832031 C 36.367188 440.722656 26.910156 450.910156 26.910156 462.019531 Z M 26.910156 507.140625 " fill-opacity="1" fill-rule="nonzero"/></g><path fill="#f5f5dc" d="M 15.019531 437.863281 C 18.800781 438.867188 21.054688 442.773438 20.226562 446.621094 C 14.851562 471.644531 14.851562 497.523438 20.226562 522.539062 C 21.054688 526.386719 18.800781 530.292969 15.019531 531.296875 C 11.242188 532.296875 7.285156 529.722656 6.382812 525.515625 C 0.585938 498.535156 0.585938 470.625 6.382812 443.644531 C 7.285156 439.4375 11.242188 436.863281 15.019531 437.863281 Z M 15.019531 437.863281 " fill-opacity="1" fill-rule="nonzero"/><g clip-path="url(#fb21248458)"><path fill="#000000" d="M 21.664062 444.996094 C 21.664062 445.617188 21.601562 446.25 21.464844 446.886719 C 16.09375 471.898438 16.09375 497.265625 21.464844 522.273438 C 22.441406 526.847656 19.757812 531.351562 15.34375 532.519531 C 13.261719 533.070312 11.066406 532.734375 9.175781 531.570312 C 7.136719 530.320312 5.671875 528.210938 5.148438 525.78125 C -0.726562 498.445312 -0.726562 470.722656 5.144531 443.378906 C 5.664062 440.949219 7.132812 438.839844 9.171875 437.589844 C 11.066406 436.425781 13.253906 436.089844 15.339844 436.640625 C 19.144531 437.648438 21.664062 441.125 21.664062 444.996094 Z M 14.90625 484.578125 C 14.90625 471.804688 16.269531 459.035156 18.996094 446.351562 C 19.691406 443.097656 17.804688 439.90625 14.699219 439.082031 C 13.289062 438.710938 11.796875 438.941406 10.5 439.738281 C 9.046875 440.628906 8 442.148438 7.621094 443.90625 C 1.824219 470.898438 1.824219 498.257812 7.621094 525.246094 C 7.996094 527.003906 9.046875 528.519531 10.5 529.414062 C 11.796875 530.210938 13.289062 530.441406 14.699219 530.070312 C 17.804688 529.246094 19.691406 526.050781 18.996094 522.800781 C 16.269531 510.125 14.90625 497.351562 14.90625 484.578125 Z M 14.90625 484.578125 " fill-opacity="1" fill-rule="nonzero"/></g><path fill="#f5f5dc" d="M 209.050781 25.527344 L 220.777344 25.527344 L 220.777344 38.675781 L 209.050781 38.675781 Z M 209.050781 25.527344 " fill-opacity="1" fill-rule="nonzero"/><path fill="#000000" d="M 222.039062 39.941406 L 207.78125 39.941406 L 207.78125 24.265625 L 222.039062 24.265625 Z M 210.3125 37.410156 L 219.507812 37.410156 L 219.507812 26.796875 L 210.3125 26.796875 Z M 210.3125 37.410156 " fill-opacity="1" fill-rule="nonzero"/><path fill="#f5f5dc" d="M 249.101562 25.527344 L 260.828125 25.527344 L 260.828125 38.675781 L 249.101562 38.675781 Z M 249.101562 25.527344 " fill-opacity="1" fill-rule="nonzero"/><path fill="#000000" d="M 262.089844 39.941406 L 247.832031 39.941406 L 247.832031 24.265625 L 262.089844 24.265625 Z M 250.363281 37.410156 L 259.5625 37.410156 L 259.5625 26.796875 L 250.363281 26.796875 Z M 250.363281 37.410156 " fill-opacity="1" fill-rule="nonzero"/><path fill="#f5f5dc" d="M 281.859375 61.632812 L 290.203125 114.839844 C 292.367188 128.640625 285.179688 140.644531 273.988281 140.644531 L 195.734375 140.644531 C 184.542969 140.644531 177.355469 128.640625 179.519531 114.839844 L 187.863281 61.632812 C 189.886719 48.714844 200.765625 39.035156 212.304688 39.035156 L 257.421875 39.035156 C 268.957031 39.035156 279.835938 48.714844 281.859375 61.632812 Z M 281.859375 61.632812 " fill-opacity="1" fill-rule="nonzero"/><path fill="#000000" d="M 273.988281 141.910156 L 195.734375 141.910156 C 190.976562 141.910156 186.578125 139.832031 183.351562 136.0625 C 178.882812 130.839844 176.984375 122.835938 178.269531 114.644531 L 186.613281 61.4375 C 188.695312 48.167969 199.976562 37.773438 212.300781 37.773438 L 257.417969 37.773438 C 269.738281 37.773438 281.027344 48.167969 283.105469 61.4375 L 291.453125 114.648438 C 292.734375 122.839844 290.835938 130.84375 286.371094 136.070312 C 283.152344 139.832031 278.753906 141.910156 273.988281 141.910156 Z M 212.300781 40.296875 C 201.191406 40.296875 191.003906 49.753906 189.113281 61.828125 L 180.769531 115.035156 C 179.597656 122.503906 181.28125 129.753906 185.273438 134.417969 C 188.050781 137.664062 191.671875 139.378906 195.738281 139.378906 L 273.992188 139.378906 C 278.0625 139.378906 281.679688 137.664062 284.453125 134.421875 C 288.445312 129.757812 290.128906 122.507812 288.957031 115.039062 L 280.609375 61.828125 C 278.71875 49.753906 268.53125 40.296875 257.421875 40.296875 Z M 212.300781 40.296875 " fill-opacity="1" fill-rule="nonzero"/><path fill="#f5f5dc" d="M 281.578125 28.40625 C 280.574219 32.1875 276.667969 34.441406 272.820312 33.613281 C 247.796875 28.238281 221.917969 28.238281 196.902344 33.613281 C 193.054688 34.441406 189.148438 32.1875 188.144531 28.40625 C 187.144531 24.628906 189.71875 20.667969 193.925781 19.769531 C 220.90625 13.972656 248.816406 13.972656 275.796875 19.769531 C 280.003906 20.667969 282.578125 24.628906 281.578125 28.40625 Z M 281.578125 28.40625 " fill-opacity="1" fill-rule="nonzero"/><path fill="#000000" d="M 274.445312 35.050781 C 273.824219 35.050781 273.191406 34.988281 272.554688 34.851562 C 247.542969 29.480469 222.175781 29.480469 197.167969 34.851562 C 192.59375 35.828125 188.089844 33.144531 186.921875 28.730469 C 186.371094 26.644531 186.707031 24.453125 187.871094 22.5625 C 189.121094 20.523438 191.230469 19.058594 193.660156 18.535156 C 220.996094 12.660156 248.71875 12.660156 276.0625 18.53125 C 278.492188 19.050781 280.601562 20.519531 281.851562 22.558594 C 283.015625 24.453125 283.351562 26.640625 282.800781 28.726562 C 281.792969 32.53125 278.316406 35.050781 274.445312 35.050781 Z M 234.863281 28.292969 C 247.636719 28.292969 260.40625 29.65625 273.089844 32.382812 C 276.34375 33.078125 279.535156 31.191406 280.359375 28.082031 C 280.730469 26.675781 280.5 25.183594 279.703125 23.886719 C 278.8125 22.433594 277.292969 21.386719 275.535156 21.003906 C 248.546875 15.210938 221.183594 15.210938 194.195312 21.003906 C 192.4375 21.382812 190.921875 22.433594 190.027344 23.886719 C 189.230469 25.183594 189 26.675781 189.371094 28.082031 C 190.195312 31.191406 193.390625 33.078125 196.640625 32.382812 C 209.316406 29.65625 222.089844 28.292969 234.863281 28.292969 Z M 234.863281 28.292969 " fill-opacity="1" fill-rule="nonzero"/><path fill="#f5f5dc" d="M 878.417969 17.839844 L 890.144531 17.839844 L 890.144531 30.984375 L 878.417969 30.984375 Z M 878.417969 17.839844 " fill-opacity="1" fill-rule="nonzero"/><path fill="#000000" d="M 891.40625 32.253906 L 877.148438 32.253906 L 877.148438 16.578125 L 891.40625 16.578125 Z M 879.679688 29.722656 L 888.875 29.722656 L 888.875 19.109375 L 879.679688 19.109375 Z M 879.679688 29.722656 " fill-opacity="1" fill-rule="nonzero"/><path fill="#f5f5dc" d="M 918.46875 17.839844 L 930.195312 17.839844 L 930.195312 30.984375 L 918.46875 30.984375 Z M 918.46875 17.839844 " fill-opacity="1" fill-rule="nonzero"/><path fill="#000000" d="M 931.457031 32.253906 L 917.199219 32.253906 L 917.199219 16.578125 L 931.457031 16.578125 Z M 919.730469 29.722656 L 928.925781 29.722656 L 928.925781 19.109375 L 919.730469 19.109375 Z M 919.730469 29.722656 " fill-opacity="1" fill-rule="nonzero"/><path fill="#f5f5dc" d="M 951.226562 53.945312 L 959.570312 107.148438 C 961.734375 120.953125 954.546875 132.953125 943.355469 132.953125 L 865.101562 132.953125 C 853.910156 132.953125 846.722656 120.953125 848.886719 107.148438 L 857.230469 53.945312 C 859.253906 41.023438 870.128906 31.347656 881.671875 31.347656 L 926.789062 31.347656 C 938.324219 31.347656 949.199219 41.023438 951.226562 53.945312 Z M 951.226562 53.945312 " fill-opacity="1" fill-rule="nonzero"/><g clip-path="url(#75693613a6)"><path fill="#000000" d="M 943.355469 134.222656 L 865.101562 134.222656 C 860.34375 134.222656 855.945312 132.140625 852.71875 128.375 C 848.25 123.152344 846.351562 115.144531 847.636719 106.953125 L 855.980469 53.75 C 858.0625 40.476562 869.34375 30.082031 881.667969 30.082031 L 926.785156 30.082031 C 939.105469 30.082031 950.394531 40.476562 952.472656 53.75 L 960.816406 106.960938 C 962.101562 115.148438 960.203125 123.15625 955.738281 128.378906 C 952.515625 132.140625 948.117188 134.222656 943.355469 134.222656 Z M 881.667969 32.609375 C 870.554688 32.609375 860.371094 42.066406 858.476562 54.140625 L 850.136719 107.34375 C 848.964844 114.816406 850.648438 122.0625 854.640625 126.726562 C 857.417969 129.972656 861.039062 131.691406 865.105469 131.691406 L 943.359375 131.691406 C 947.425781 131.691406 951.042969 129.972656 953.820312 126.730469 C 957.8125 122.070312 959.496094 114.820312 958.324219 107.351562 L 949.976562 54.140625 C 948.082031 42.066406 937.898438 32.609375 926.789062 32.609375 Z M 881.667969 32.609375 " fill-opacity="1" fill-rule="nonzero"/></g><path fill="#f5f5dc" d="M 950.945312 20.714844 C 949.941406 24.496094 946.035156 26.753906 942.1875 25.925781 C 917.164062 20.550781 891.285156 20.550781 866.269531 25.925781 C 862.421875 26.753906 858.511719 24.496094 857.511719 20.714844 C 856.507812 16.9375 859.085938 12.980469 863.292969 12.078125 C 890.273438 6.28125 918.183594 6.28125 945.164062 12.078125 C 949.371094 12.980469 951.945312 16.9375 950.945312 20.714844 Z M 950.945312 20.714844 " fill-opacity="1" fill-rule="nonzero"/><path fill="#000000" d="M 943.8125 27.363281 C 943.191406 27.363281 942.558594 27.296875 941.921875 27.164062 C 916.910156 21.792969 891.542969 21.792969 866.535156 27.164062 C 861.960938 28.140625 857.457031 25.453125 856.289062 21.042969 C 855.738281 18.957031 856.074219 16.761719 857.234375 14.875 C 858.488281 12.835938 860.597656 11.367188 863.027344 10.847656 C 890.363281 4.96875 918.085938 4.96875 945.429688 10.84375 C 947.859375 11.363281 949.96875 12.832031 951.21875 14.871094 C 952.382812 16.761719 952.71875 18.953125 952.167969 21.035156 C 951.160156 24.84375 947.683594 27.363281 943.8125 27.363281 Z M 904.230469 20.605469 C 917.003906 20.605469 929.773438 21.96875 942.457031 24.691406 C 945.710938 25.390625 948.898438 23.5 949.726562 20.394531 C 950.097656 18.988281 949.867188 17.496094 949.070312 16.195312 C 948.179688 14.746094 946.660156 13.699219 944.902344 13.316406 C 917.910156 7.519531 890.550781 7.519531 863.5625 13.316406 C 861.804688 13.691406 860.285156 14.746094 859.394531 16.195312 C 858.597656 17.496094 858.367188 18.988281 858.738281 20.394531 C 859.558594 23.5 862.757812 25.390625 866.007812 24.691406 C 878.683594 21.96875 891.457031 20.605469 904.230469 20.605469 Z M 904.230469 20.605469 " fill-opacity="1" fill-rule="nonzero"/><path fill="#f5f5dc" d="M 926.550781 706.078125 L 914.824219 706.078125 L 914.824219 692.933594 L 926.550781 692.933594 Z M 926.550781 706.078125 " fill-opacity="1" fill-rule="nonzero"/><path fill="#000000" d="M 913.5625 691.664062 L 927.820312 691.664062 L 927.820312 707.339844 L 913.5625 707.339844 Z M 925.289062 694.195312 L 916.09375 694.195312 L 916.09375 704.8125 L 925.289062 704.8125 Z M 925.289062 694.195312 " fill-opacity="1" fill-rule="nonzero"/><path fill="#f5f5dc" d="M 886.5 706.078125 L 874.773438 706.078125 L 874.773438 692.933594 L 886.5 692.933594 Z M 886.5 706.078125 " fill-opacity="1" fill-rule="nonzero"/><path fill="#000000" d="M 873.511719 691.664062 L 887.769531 691.664062 L 887.769531 707.339844 L 873.511719 707.339844 Z M 885.238281 694.195312 L 876.039062 694.195312 L 876.039062 704.8125 L 885.238281 704.8125 Z M 885.238281 694.195312 " fill-opacity="1" fill-rule="nonzero"/><path fill="#f5f5dc" d="M 853.742188 669.976562 L 845.398438 616.769531 C 843.234375 602.96875 850.421875 590.964844 861.613281 590.964844 L 939.867188 590.964844 C 951.058594 590.964844 958.246094 602.96875 956.082031 616.769531 L 947.738281 669.976562 C 945.714844 682.894531 934.835938 692.574219 923.296875 692.574219 L 878.179688 692.574219 C 866.644531 692.574219 855.765625 682.894531 853.742188 669.976562 Z M 853.742188 669.976562 " fill-opacity="1" fill-rule="nonzero"/><g clip-path="url(#10f32ec0a4)"><path fill="#000000" d="M 861.613281 589.695312 L 939.867188 589.695312 C 944.625 589.695312 949.023438 591.777344 952.25 595.542969 C 956.71875 600.769531 958.617188 608.773438 957.332031 616.964844 L 948.988281 670.171875 C 946.90625 683.441406 935.625 693.835938 923.300781 693.835938 L 878.183594 693.835938 C 865.863281 693.835938 854.574219 683.441406 852.496094 670.171875 L 844.148438 616.957031 C 842.867188 608.769531 844.765625 600.761719 849.230469 595.539062 C 852.449219 591.777344 856.847656 589.695312 861.613281 589.695312 Z M 923.300781 691.308594 C 934.410156 691.308594 944.597656 681.851562 946.488281 669.777344 L 954.832031 616.574219 C 956.003906 609.105469 954.320312 601.855469 950.328125 597.191406 C 947.550781 593.945312 943.929688 592.226562 939.863281 592.226562 L 861.609375 592.226562 C 857.539062 592.226562 853.921875 593.945312 851.148438 597.1875 C 847.15625 601.851562 845.472656 609.097656 846.644531 616.566406 L 854.992188 669.777344 C 856.882812 681.851562 867.070312 691.308594 878.179688 691.308594 Z M 923.300781 691.308594 " fill-opacity="1" fill-rule="nonzero"/></g><path fill="#f5f5dc" d="M 854.023438 703.203125 C 855.027344 699.421875 858.933594 697.167969 862.78125 697.992188 C 887.804688 703.367188 913.683594 703.367188 938.699219 697.992188 C 942.546875 697.167969 946.453125 699.421875 947.457031 703.203125 C 948.457031 706.980469 945.882812 710.9375 941.675781 711.839844 C 914.695312 717.636719 886.785156 717.636719 859.804688 711.839844 C 855.597656 710.9375 853.023438 706.980469 854.023438 703.203125 Z M 854.023438 703.203125 " fill-opacity="1" fill-rule="nonzero"/><path fill="#000000" d="M 861.15625 696.554688 C 861.777344 696.554688 862.410156 696.621094 863.046875 696.753906 C 888.058594 702.125 913.425781 702.125 938.433594 696.753906 C 943.007812 695.777344 947.511719 698.464844 948.679688 702.878906 C 949.230469 704.960938 948.894531 707.15625 947.730469 709.042969 C 946.480469 711.082031 944.371094 712.550781 941.941406 713.070312 C 914.605469 718.949219 886.882812 718.949219 859.539062 713.078125 C 857.109375 712.554688 855 711.085938 853.75 709.050781 C 852.585938 707.15625 852.25 704.964844 852.800781 702.882812 C 853.808594 699.074219 857.285156 696.554688 861.15625 696.554688 Z M 900.738281 703.3125 C 887.964844 703.3125 875.195312 701.949219 862.511719 699.226562 C 859.257812 698.527344 856.066406 700.417969 855.242188 703.523438 C 854.871094 704.929688 855.101562 706.425781 855.898438 707.722656 C 856.789062 709.175781 858.308594 710.222656 860.066406 710.601562 C 887.058594 716.398438 914.417969 716.398438 941.40625 710.601562 C 943.164062 710.226562 944.679688 709.175781 945.574219 707.722656 C 946.371094 706.425781 946.601562 704.929688 946.230469 703.523438 C 945.40625 700.417969 942.210938 698.527344 938.960938 699.226562 C 926.285156 701.949219 913.511719 703.3125 900.738281 703.3125 Z M 900.738281 703.3125 " fill-opacity="1" fill-rule="nonzero"/><path fill="#f5f5dc" d="M 707.425781 705.183594 L 695.699219 705.183594 L 695.699219 692.039062 L 707.425781 692.039062 Z M 707.425781 705.183594 " fill-opacity="1" fill-rule="nonzero"/><path fill="#000000" d="M 694.4375 690.769531 L 708.695312 690.769531 L 708.695312 706.445312 L 694.4375 706.445312 Z M 706.164062 693.300781 L 696.96875 693.300781 L 696.96875 703.914062 L 706.164062 703.914062 Z M 706.164062 693.300781 " fill-opacity="1" fill-rule="nonzero"/><path fill="#f5f5dc" d="M 667.375 705.183594 L 655.648438 705.183594 L 655.648438 692.039062 L 667.375 692.039062 Z M 667.375 705.183594 " fill-opacity="1" fill-rule="nonzero"/><path fill="#000000" d="M 654.386719 690.769531 L 668.644531 690.769531 L 668.644531 706.445312 L 654.386719 706.445312 Z M 666.113281 693.300781 L 656.917969 693.300781 L 656.917969 703.914062 L 666.113281 703.914062 Z M 666.113281 693.300781 " fill-opacity="1" fill-rule="nonzero"/><path fill="#f5f5dc" d="M 634.617188 669.078125 L 626.273438 615.871094 C 624.109375 602.070312 631.296875 590.070312 642.488281 590.070312 L 720.742188 590.070312 C 731.933594 590.070312 739.121094 602.070312 736.957031 615.871094 L 728.613281 669.078125 C 726.589844 682 715.714844 691.675781 704.171875 691.675781 L 659.054688 691.675781 C 647.519531 691.675781 636.644531 682 634.617188 669.078125 Z M 634.617188 669.078125 " fill-opacity="1" fill-rule="nonzero"/><g clip-path="url(#e0c7f8cc6f)"><path fill="#000000" d="M 642.488281 588.800781 L 720.742188 588.800781 C 725.5 588.800781 729.898438 590.878906 733.125 594.648438 C 737.59375 599.871094 739.492188 607.878906 738.207031 616.066406 L 729.863281 669.273438 C 727.78125 682.542969 716.5 692.941406 704.175781 692.941406 L 659.058594 692.941406 C 646.738281 692.941406 635.449219 682.542969 633.371094 669.273438 L 625.027344 616.0625 C 623.742188 607.871094 625.640625 599.867188 630.105469 594.640625 C 633.328125 590.878906 637.726562 588.800781 642.488281 588.800781 Z M 704.175781 690.414062 C 715.289062 690.414062 725.472656 680.957031 727.363281 668.882812 L 735.707031 615.675781 C 736.878906 608.207031 735.195312 600.960938 731.203125 596.296875 C 728.425781 593.050781 724.804688 591.332031 720.738281 591.332031 L 642.484375 591.332031 C 638.414062 591.332031 634.800781 593.050781 632.023438 596.289062 C 628.03125 600.953125 626.347656 608.203125 627.519531 615.671875 L 635.867188 668.882812 C 637.761719 680.957031 647.945312 690.414062 659.054688 690.414062 Z M 704.175781 690.414062 " fill-opacity="1" fill-rule="nonzero"/></g><path fill="#f5f5dc" d="M 634.898438 702.308594 C 635.902344 698.523438 639.808594 696.269531 643.65625 697.097656 C 668.679688 702.472656 694.558594 702.472656 719.574219 697.097656 C 723.421875 696.269531 727.332031 698.523438 728.332031 702.308594 C 729.332031 706.085938 726.757812 710.042969 722.550781 710.945312 C 695.570312 716.738281 667.660156 716.738281 640.679688 710.945312 C 636.472656 710.042969 633.898438 706.085938 634.898438 702.308594 Z M 634.898438 702.308594 " fill-opacity="1" fill-rule="nonzero"/><path fill="#000000" d="M 642.03125 695.660156 C 642.652344 695.660156 643.285156 695.726562 643.921875 695.859375 C 668.933594 701.230469 694.300781 701.230469 719.308594 695.859375 C 723.882812 694.882812 728.386719 697.566406 729.554688 701.980469 C 730.105469 704.066406 729.769531 706.261719 728.609375 708.148438 C 727.355469 710.1875 725.246094 711.65625 722.816406 712.175781 C 695.480469 718.050781 667.757812 718.050781 640.414062 712.179688 C 637.984375 711.660156 635.875 710.191406 634.625 708.152344 C 633.460938 706.261719 633.125 704.070312 633.675781 701.988281 C 634.683594 698.179688 638.160156 695.660156 642.03125 695.660156 Z M 681.613281 702.417969 C 668.839844 702.417969 656.070312 701.054688 643.386719 698.328125 C 640.132812 697.632812 636.941406 699.523438 636.117188 702.628906 C 635.746094 704.035156 635.976562 705.527344 636.773438 706.824219 C 637.664062 708.277344 639.183594 709.324219 640.941406 709.707031 C 667.933594 715.503906 695.292969 715.503906 722.28125 709.707031 C 724.039062 709.332031 725.558594 708.277344 726.449219 706.824219 C 727.246094 705.527344 727.476562 704.035156 727.105469 702.628906 C 726.28125 699.523438 723.085938 697.632812 719.835938 698.328125 C 707.160156 701.054688 694.386719 702.417969 681.613281 702.417969 Z M 681.613281 702.417969 " fill-opacity="1" fill-rule="nonzero"/><path fill="#f5f5dc" d="M 436.683594 11.785156 L 448.410156 11.785156 L 448.410156 24.929688 L 436.683594 24.929688 Z M 436.683594 11.785156 " fill-opacity="1" fill-rule="nonzero"/><path fill="#000000" d="M 449.675781 26.199219 L 435.417969 26.199219 L 435.417969 10.523438 L 449.675781 10.523438 Z M 437.945312 23.667969 L 447.144531 23.667969 L 447.144531 13.054688 L 437.945312 13.054688 Z M 437.945312 23.667969 " fill-opacity="1" fill-rule="nonzero"/><path fill="#f5f5dc" d="M 476.734375 11.785156 L 488.464844 11.785156 L 488.464844 24.929688 L 476.734375 24.929688 Z M 476.734375 11.785156 " fill-opacity="1" fill-rule="nonzero"/><path fill="#000000" d="M 489.726562 26.199219 L 475.46875 26.199219 L 475.46875 10.523438 L 489.726562 10.523438 Z M 478 23.667969 L 487.195312 23.667969 L 487.195312 13.054688 L 478 13.054688 Z M 478 23.667969 " fill-opacity="1" fill-rule="nonzero"/><path fill="#f5f5dc" d="M 509.492188 47.890625 L 517.839844 101.097656 C 520.003906 114.898438 512.8125 126.898438 501.625 126.898438 L 423.371094 126.898438 C 412.179688 126.898438 404.988281 114.898438 407.152344 101.097656 L 415.5 47.890625 C 417.523438 34.96875 428.398438 25.292969 439.941406 25.292969 L 485.054688 25.292969 C 496.59375 25.292969 507.46875 34.96875 509.492188 47.890625 Z M 509.492188 47.890625 " fill-opacity="1" fill-rule="nonzero"/><g clip-path="url(#38a1f18377)"><path fill="#000000" d="M 501.625 128.167969 L 423.371094 128.167969 C 418.609375 128.167969 414.210938 126.089844 410.984375 122.320312 C 406.515625 117.097656 404.617188 109.089844 405.90625 100.902344 L 414.246094 47.695312 C 416.332031 34.425781 427.613281 24.03125 439.9375 24.03125 L 485.050781 24.03125 C 497.375 24.03125 508.660156 34.425781 510.742188 47.695312 L 519.085938 100.90625 C 520.367188 109.097656 518.46875 117.101562 514.007812 122.328125 C 510.785156 126.089844 506.386719 128.167969 501.625 128.167969 Z M 439.9375 26.554688 C 428.824219 26.554688 418.640625 36.011719 416.746094 48.085938 L 408.40625 101.292969 C 407.234375 108.761719 408.917969 116.007812 412.910156 120.671875 C 415.683594 123.917969 419.304688 125.636719 423.375 125.636719 L 501.628906 125.636719 C 505.695312 125.636719 509.3125 123.917969 512.089844 120.679688 C 516.082031 116.015625 517.765625 108.765625 516.589844 101.296875 L 508.246094 48.085938 C 506.351562 36.011719 496.167969 26.554688 485.054688 26.554688 Z M 439.9375 26.554688 " fill-opacity="1" fill-rule="nonzero"/></g><path fill="#f5f5dc" d="M 509.210938 14.660156 C 508.210938 18.445312 504.304688 20.699219 500.457031 19.871094 C 475.433594 14.496094 449.554688 14.496094 424.535156 19.871094 C 420.6875 20.699219 416.78125 18.445312 415.78125 14.660156 C 414.777344 10.882812 417.351562 6.925781 421.5625 6.023438 C 448.542969 0.230469 476.449219 0.230469 503.429688 6.023438 C 507.640625 6.925781 510.214844 10.882812 509.210938 14.660156 Z M 509.210938 14.660156 " fill-opacity="1" fill-rule="nonzero"/><g clip-path="url(#3ccce48ee3)"><path fill="#000000" d="M 502.078125 21.308594 C 501.457031 21.308594 500.828125 21.242188 500.191406 21.109375 C 475.179688 15.738281 449.808594 15.738281 424.800781 21.109375 C 420.226562 22.085938 415.726562 19.402344 414.558594 14.988281 C 414.007812 12.902344 414.34375 10.710938 415.503906 8.820312 C 416.757812 6.78125 418.867188 5.3125 421.296875 4.792969 C 448.632812 -1.082031 476.355469 -1.082031 503.695312 4.789062 C 506.125 5.308594 508.234375 6.777344 509.488281 8.816406 C 510.648438 10.710938 510.984375 12.898438 510.433594 14.980469 C 509.429688 18.789062 505.953125 21.308594 502.078125 21.308594 Z M 462.5 14.550781 C 475.273438 14.550781 488.042969 15.914062 500.726562 18.640625 C 503.976562 19.335938 507.167969 17.445312 507.996094 14.339844 C 508.367188 12.933594 508.136719 11.441406 507.339844 10.144531 C 506.449219 8.691406 504.929688 7.644531 503.171875 7.261719 C 476.179688 1.464844 448.816406 1.464844 421.832031 7.261719 C 420.074219 7.636719 418.554688 8.691406 417.664062 10.144531 C 416.867188 11.441406 416.636719 12.933594 417.007812 14.339844 C 417.828125 17.445312 421.023438 19.335938 424.277344 18.640625 C 436.949219 15.914062 449.722656 14.550781 462.5 14.550781 Z M 462.5 14.550781 " fill-opacity="1" fill-rule="nonzero"/></g><path fill="#f5f5dc" d="M 655.808594 11.785156 L 667.535156 11.785156 L 667.535156 24.929688 L 655.808594 24.929688 Z M 655.808594 11.785156 " fill-opacity="1" fill-rule="nonzero"/><path fill="#000000" d="M 668.800781 26.199219 L 654.542969 26.199219 L 654.542969 10.523438 L 668.800781 10.523438 Z M 657.070312 23.667969 L 666.269531 23.667969 L 666.269531 13.054688 L 657.070312 13.054688 Z M 657.070312 23.667969 " fill-opacity="1" fill-rule="nonzero"/><path fill="#f5f5dc" d="M 695.859375 11.785156 L 707.585938 11.785156 L 707.585938 24.929688 L 695.859375 24.929688 Z M 695.859375 11.785156 " fill-opacity="1" fill-rule="nonzero"/><path fill="#000000" d="M 708.851562 26.199219 L 694.59375 26.199219 L 694.59375 10.523438 L 708.851562 10.523438 Z M 697.121094 23.667969 L 706.320312 23.667969 L 706.320312 13.054688 L 697.121094 13.054688 Z M 697.121094 23.667969 " fill-opacity="1" fill-rule="nonzero"/><path fill="#f5f5dc" d="M 728.617188 47.890625 L 736.964844 101.097656 C 739.128906 114.898438 731.9375 126.898438 720.746094 126.898438 L 642.492188 126.898438 C 631.300781 126.898438 624.113281 114.898438 626.277344 101.097656 L 634.625 47.890625 C 636.648438 34.96875 647.523438 25.292969 659.066406 25.292969 L 704.179688 25.292969 C 715.71875 25.292969 726.59375 34.96875 728.617188 47.890625 Z M 728.617188 47.890625 " fill-opacity="1" fill-rule="nonzero"/><g clip-path="url(#3703eb6836)"><path fill="#000000" d="M 720.746094 128.167969 L 642.492188 128.167969 C 637.734375 128.167969 633.335938 126.089844 630.109375 122.320312 C 625.640625 117.097656 623.742188 109.089844 625.03125 100.902344 L 633.371094 47.695312 C 635.457031 34.425781 646.738281 24.03125 659.058594 24.03125 L 704.175781 24.03125 C 716.5 24.03125 727.785156 34.425781 729.863281 47.695312 L 738.210938 100.90625 C 739.492188 109.097656 737.59375 117.101562 733.132812 122.328125 C 729.910156 126.089844 725.511719 128.167969 720.746094 128.167969 Z M 659.058594 26.554688 C 647.949219 26.554688 637.765625 36.011719 635.871094 48.085938 L 627.53125 101.292969 C 626.359375 108.761719 628.042969 116.007812 632.035156 120.671875 C 634.808594 123.917969 638.429688 125.636719 642.5 125.636719 L 720.753906 125.636719 C 724.820312 125.636719 728.4375 123.917969 731.210938 120.679688 C 735.207031 116.015625 736.886719 108.765625 735.714844 101.296875 L 727.371094 48.085938 C 725.476562 36.011719 715.292969 26.554688 704.179688 26.554688 Z M 659.058594 26.554688 " fill-opacity="1" fill-rule="nonzero"/></g><path fill="#f5f5dc" d="M 728.335938 14.660156 C 727.335938 18.445312 723.425781 20.699219 719.582031 19.871094 C 694.558594 14.496094 668.679688 14.496094 643.660156 19.871094 C 639.8125 20.699219 635.90625 18.445312 634.90625 14.660156 C 633.902344 10.882812 636.476562 6.925781 640.683594 6.023438 C 667.667969 0.230469 695.574219 0.230469 722.554688 6.023438 C 726.765625 6.925781 729.339844 10.882812 728.335938 14.660156 Z M 728.335938 14.660156 " fill-opacity="1" fill-rule="nonzero"/><g clip-path="url(#1ca23e739b)"><path fill="#000000" d="M 721.203125 21.308594 C 720.582031 21.308594 719.949219 21.242188 719.316406 21.109375 C 694.300781 15.738281 668.933594 15.738281 643.925781 21.109375 C 639.351562 22.085938 634.847656 19.402344 633.683594 14.988281 C 633.132812 12.902344 633.464844 10.710938 634.628906 8.820312 C 635.882812 6.78125 637.992188 5.3125 640.417969 4.792969 C 667.757812 -1.082031 695.480469 -1.082031 722.820312 4.789062 C 725.25 5.308594 727.359375 6.777344 728.613281 8.816406 C 729.773438 10.710938 730.109375 12.898438 729.558594 14.980469 C 728.550781 18.789062 725.074219 21.308594 721.203125 21.308594 Z M 681.625 14.550781 C 694.398438 14.550781 707.167969 15.914062 719.851562 18.640625 C 723.101562 19.335938 726.292969 17.445312 727.121094 14.339844 C 727.492188 12.933594 727.261719 11.441406 726.464844 10.144531 C 725.570312 8.691406 724.054688 7.644531 722.296875 7.261719 C 695.304688 1.464844 667.941406 1.464844 640.957031 7.261719 C 639.199219 7.636719 637.679688 8.691406 636.789062 10.144531 C 635.992188 11.441406 635.761719 12.933594 636.132812 14.339844 C 636.953125 17.445312 640.148438 19.335938 643.402344 18.640625 C 656.074219 15.914062 668.847656 14.550781 681.625 14.550781 Z M 681.625 14.550781 " fill-opacity="1" fill-rule="nonzero"/></g><path fill="#f5f5dc" d="M 488.304688 713.914062 L 476.574219 713.914062 L 476.574219 700.769531 L 488.304688 700.769531 Z M 488.304688 713.914062 " fill-opacity="1" fill-rule="nonzero"/><path fill="#000000" d="M 475.3125 699.503906 L 489.570312 699.503906 L 489.570312 715.175781 L 475.3125 715.175781 Z M 487.039062 702.03125 L 477.84375 702.03125 L 477.84375 712.648438 L 487.039062 712.648438 Z M 487.039062 702.03125 " fill-opacity="1" fill-rule="nonzero"/><path fill="#f5f5dc" d="M 448.25 713.914062 L 436.523438 713.914062 L 436.523438 700.769531 L 448.25 700.769531 Z M 448.25 713.914062 " fill-opacity="1" fill-rule="nonzero"/><path fill="#000000" d="M 435.261719 699.503906 L 449.519531 699.503906 L 449.519531 715.175781 L 435.261719 715.175781 Z M 446.988281 702.03125 L 437.792969 702.03125 L 437.792969 712.648438 L 446.988281 712.648438 Z M 446.988281 702.03125 " fill-opacity="1" fill-rule="nonzero"/><path fill="#f5f5dc" d="M 415.496094 677.8125 L 407.148438 624.605469 C 404.984375 610.804688 412.171875 598.800781 423.363281 598.800781 L 501.617188 598.800781 C 512.808594 598.800781 519.996094 610.804688 517.832031 624.605469 L 509.488281 677.8125 C 507.464844 690.730469 496.589844 700.410156 485.046875 700.410156 L 439.929688 700.410156 C 428.394531 700.410156 417.519531 690.730469 415.496094 677.8125 Z M 415.496094 677.8125 " fill-opacity="1" fill-rule="nonzero"/><g clip-path="url(#cdb7653cdd)"><path fill="#000000" d="M 423.363281 597.53125 L 501.617188 597.53125 C 506.378906 597.53125 510.777344 599.613281 514 603.378906 C 518.46875 608.605469 520.367188 616.609375 519.082031 624.800781 L 510.742188 678.007812 C 508.65625 691.277344 497.375 701.671875 485.050781 701.671875 L 439.9375 701.671875 C 427.613281 701.671875 416.324219 691.277344 414.246094 678.007812 L 405.902344 624.796875 C 404.617188 616.605469 406.515625 608.597656 410.980469 603.375 C 414.203125 599.613281 418.601562 597.53125 423.363281 597.53125 Z M 485.050781 699.144531 C 496.164062 699.144531 506.347656 689.6875 508.242188 677.617188 L 516.582031 624.410156 C 517.753906 616.941406 516.070312 609.691406 512.078125 605.027344 C 509.300781 601.78125 505.679688 600.0625 501.613281 600.0625 L 423.359375 600.0625 C 419.292969 600.0625 415.675781 601.78125 412.898438 605.023438 C 408.90625 609.6875 407.222656 616.933594 408.394531 624.402344 L 416.742188 677.617188 C 418.636719 689.6875 428.820312 699.144531 439.929688 699.144531 Z M 485.050781 699.144531 " fill-opacity="1" fill-rule="nonzero"/></g><path fill="#f5f5dc" d="M 415.773438 711.039062 C 416.777344 707.257812 420.683594 705.003906 424.53125 705.828125 C 449.554688 711.203125 475.433594 711.203125 500.449219 705.828125 C 504.296875 705.003906 508.207031 707.257812 509.207031 711.039062 C 510.210938 714.816406 507.632812 718.773438 503.425781 719.675781 C 476.445312 725.472656 448.539062 725.472656 421.554688 719.675781 C 417.347656 718.773438 414.773438 714.816406 415.773438 711.039062 Z M 415.773438 711.039062 " fill-opacity="1" fill-rule="nonzero"/><g clip-path="url(#cc6928fd6c)"><path fill="#000000" d="M 422.910156 704.390625 C 423.53125 704.390625 424.160156 704.457031 424.796875 704.589844 C 449.808594 709.960938 475.179688 709.960938 500.183594 704.589844 C 504.757812 703.613281 509.261719 706.300781 510.429688 710.714844 C 510.980469 712.796875 510.644531 714.992188 509.484375 716.878906 C 508.230469 718.917969 506.121094 720.386719 503.691406 720.90625 C 476.355469 726.785156 448.632812 726.785156 421.289062 720.914062 C 418.859375 720.390625 416.75 718.925781 415.5 716.886719 C 414.335938 714.992188 414 712.800781 414.550781 710.71875 C 415.558594 706.910156 419.035156 704.390625 422.910156 704.390625 Z M 462.488281 711.148438 C 449.714844 711.148438 436.945312 709.785156 424.261719 707.0625 C 421.011719 706.363281 417.820312 708.253906 416.992188 711.359375 C 416.621094 712.765625 416.851562 714.261719 417.648438 715.558594 C 418.539062 717.011719 420.058594 718.058594 421.816406 718.4375 C 448.808594 724.234375 476.167969 724.234375 503.15625 718.4375 C 504.914062 718.0625 506.433594 717.011719 507.324219 715.558594 C 508.121094 714.261719 508.351562 712.765625 507.980469 711.359375 C 507.160156 708.253906 503.960938 706.363281 500.710938 707.0625 C 488.039062 709.785156 475.261719 711.148438 462.488281 711.148438 Z M 462.488281 711.148438 " fill-opacity="1" fill-rule="nonzero"/></g><path fill="#f5f5dc" d="M 1179.914062 461.734375 L 1179.914062 473.464844 L 1166.769531 473.464844 L 1166.769531 461.734375 Z M 1179.914062 461.734375 " fill-opacity="1" fill-rule="nonzero"/><path fill="#000000" d="M 1165.5 474.726562 L 1165.5 460.46875 L 1181.175781 460.46875 L 1181.175781 474.726562 Z M 1168.03125 463 L 1168.03125 472.195312 L 1178.644531 472.195312 L 1178.644531 463 Z M 1168.03125 463 " fill-opacity="1" fill-rule="nonzero"/><path fill="#f5f5dc" d="M 1179.914062 501.785156 L 1179.914062 513.515625 L 1166.769531 513.515625 L 1166.769531 501.785156 Z M 1179.914062 501.785156 " fill-opacity="1" fill-rule="nonzero"/><path fill="#000000" d="M 1165.5 514.777344 L 1165.5 500.519531 L 1181.175781 500.519531 L 1181.175781 514.777344 Z M 1168.03125 503.050781 L 1168.03125 512.246094 L 1178.644531 512.246094 L 1178.644531 503.050781 Z M 1168.03125 503.050781 " fill-opacity="1" fill-rule="nonzero"/><path fill="#f5f5dc" d="M 1143.808594 534.542969 L 1090.605469 542.890625 C 1076.800781 545.054688 1064.800781 537.867188 1064.800781 526.675781 L 1064.800781 448.421875 C 1064.800781 437.230469 1076.800781 430.039062 1090.605469 432.203125 L 1143.808594 440.550781 C 1156.730469 442.574219 1166.40625 453.449219 1166.40625 464.992188 L 1166.40625 510.109375 C 1166.40625 521.644531 1156.730469 532.519531 1143.808594 534.542969 Z M 1143.808594 534.542969 " fill-opacity="1" fill-rule="nonzero"/><g clip-path="url(#4d625f750d)"><path fill="#000000" d="M 1063.53125 526.675781 L 1063.53125 448.421875 C 1063.53125 443.660156 1065.609375 439.261719 1069.378906 436.035156 C 1074.601562 431.566406 1082.609375 429.667969 1090.800781 430.957031 L 1144.003906 439.296875 C 1157.277344 441.382812 1167.671875 452.664062 1167.671875 464.988281 L 1167.671875 510.101562 C 1167.671875 522.425781 1157.277344 533.710938 1144.003906 535.792969 L 1090.792969 544.136719 C 1082.601562 545.417969 1074.597656 543.519531 1069.375 539.058594 C 1065.609375 535.835938 1063.53125 531.4375 1063.53125 526.675781 Z M 1165.144531 464.988281 C 1165.144531 453.875 1155.6875 443.691406 1143.613281 441.796875 L 1090.410156 433.457031 C 1082.9375 432.285156 1075.691406 433.96875 1071.027344 437.960938 C 1067.78125 440.734375 1066.0625 444.359375 1066.0625 448.425781 L 1066.0625 526.679688 C 1066.0625 530.746094 1067.78125 534.363281 1071.019531 537.140625 C 1075.683594 541.132812 1082.933594 542.816406 1090.402344 541.644531 L 1143.613281 533.296875 C 1155.6875 531.402344 1165.144531 521.21875 1165.144531 510.109375 Z M 1165.144531 464.988281 " fill-opacity="1" fill-rule="nonzero"/></g><path fill="#f5f5dc" d="M 1177.039062 534.261719 C 1173.253906 533.261719 1171 529.355469 1171.828125 525.507812 C 1177.203125 500.484375 1177.203125 474.605469 1171.828125 449.585938 C 1171 445.738281 1173.253906 441.832031 1177.039062 440.832031 C 1180.816406 439.828125 1184.773438 442.402344 1185.675781 446.613281 C 1191.46875 473.59375 1191.46875 501.5 1185.675781 528.484375 C 1184.773438 532.691406 1180.816406 535.265625 1177.039062 534.261719 Z M 1177.039062 534.261719 " fill-opacity="1" fill-rule="nonzero"/><g clip-path="url(#4cfd8e5ab3)"><path fill="#000000" d="M 1170.390625 527.128906 C 1170.390625 526.507812 1170.457031 525.878906 1170.589844 525.242188 C 1175.960938 500.230469 1175.960938 474.859375 1170.589844 449.851562 C 1169.613281 445.28125 1172.300781 440.777344 1176.710938 439.609375 C 1178.796875 439.058594 1180.992188 439.394531 1182.878906 440.554688 C 1184.917969 441.808594 1186.386719 443.917969 1186.90625 446.347656 C 1192.78125 473.683594 1192.78125 501.40625 1186.910156 528.75 C 1186.390625 531.175781 1184.921875 533.285156 1182.882812 534.539062 C 1180.992188 535.703125 1178.800781 536.035156 1176.71875 535.484375 C 1172.910156 534.480469 1170.390625 531.003906 1170.390625 527.128906 Z M 1177.148438 487.550781 C 1177.148438 500.324219 1175.785156 513.09375 1173.058594 525.777344 C 1172.363281 529.027344 1174.253906 532.21875 1177.359375 533.046875 C 1178.765625 533.417969 1180.257812 533.1875 1181.554688 532.390625 C 1183.007812 531.5 1184.054688 529.980469 1184.4375 528.222656 C 1190.234375 501.230469 1190.234375 473.867188 1184.4375 446.882812 C 1184.0625 445.125 1183.007812 443.605469 1181.554688 442.714844 C 1180.257812 441.917969 1178.765625 441.6875 1177.359375 442.058594 C 1174.253906 442.878906 1172.363281 446.074219 1173.058594 449.328125 C 1175.785156 462 1177.148438 474.777344 1177.148438 487.550781 Z M 1177.148438 487.550781 " fill-opacity="1" fill-rule="nonzero"/></g><path fill="#f5f5dc" d="M 1179.914062 252.996094 L 1179.914062 264.726562 L 1166.769531 264.726562 L 1166.769531 252.996094 Z M 1179.914062 252.996094 " fill-opacity="1" fill-rule="nonzero"/><path fill="#000000" d="M 1165.5 265.988281 L 1165.5 251.730469 L 1181.175781 251.730469 L 1181.175781 265.988281 Z M 1168.03125 254.261719 L 1168.03125 263.457031 L 1178.644531 263.457031 L 1178.644531 254.261719 Z M 1168.03125 254.261719 " fill-opacity="1" fill-rule="nonzero"/><path fill="#f5f5dc" d="M 1179.914062 293.050781 L 1179.914062 304.777344 L 1166.769531 304.777344 L 1166.769531 293.050781 Z M 1179.914062 293.050781 " fill-opacity="1" fill-rule="nonzero"/><path fill="#000000" d="M 1165.5 306.039062 L 1165.5 291.78125 L 1181.175781 291.78125 L 1181.175781 306.039062 Z M 1168.03125 294.3125 L 1168.03125 303.507812 L 1178.644531 303.507812 L 1178.644531 294.3125 Z M 1168.03125 294.3125 " fill-opacity="1" fill-rule="nonzero"/><path fill="#f5f5dc" d="M 1143.808594 325.804688 L 1090.605469 334.152344 C 1076.800781 336.316406 1064.800781 329.128906 1064.800781 317.9375 L 1064.800781 239.683594 C 1064.800781 228.492188 1076.800781 221.300781 1090.605469 223.464844 L 1143.808594 231.8125 C 1156.730469 233.835938 1166.40625 244.710938 1166.40625 256.253906 L 1166.40625 301.371094 C 1166.40625 312.90625 1156.730469 323.78125 1143.808594 325.804688 Z M 1143.808594 325.804688 " fill-opacity="1" fill-rule="nonzero"/><g clip-path="url(#9cf0491a4c)"><path fill="#000000" d="M 1063.53125 317.9375 L 1063.53125 239.683594 C 1063.53125 234.921875 1065.609375 230.523438 1069.378906 227.296875 C 1074.601562 222.832031 1082.609375 220.933594 1090.800781 222.21875 L 1144.003906 230.558594 C 1157.277344 232.644531 1167.671875 243.925781 1167.671875 256.25 L 1167.671875 301.363281 C 1167.671875 313.6875 1157.277344 324.972656 1144.003906 327.054688 L 1090.792969 335.398438 C 1082.601562 336.683594 1074.597656 334.785156 1069.375 330.320312 C 1065.609375 327.097656 1063.53125 322.699219 1063.53125 317.9375 Z M 1165.144531 256.25 C 1165.144531 245.136719 1155.6875 234.953125 1143.613281 233.058594 L 1090.410156 224.71875 C 1082.9375 223.546875 1075.691406 225.230469 1071.027344 229.222656 C 1067.78125 231.996094 1066.0625 235.621094 1066.0625 239.6875 L 1066.0625 317.941406 C 1066.0625 322.007812 1067.78125 325.625 1071.019531 328.402344 C 1075.683594 332.394531 1082.933594 334.078125 1090.402344 332.90625 L 1143.613281 324.558594 C 1155.6875 322.664062 1165.144531 312.480469 1165.144531 301.371094 Z M 1165.144531 256.25 " fill-opacity="1" fill-rule="nonzero"/></g><path fill="#f5f5dc" d="M 1177.039062 325.527344 C 1173.253906 324.523438 1171 320.617188 1171.828125 316.769531 C 1177.203125 291.746094 1177.203125 265.867188 1171.828125 240.847656 C 1171 237.003906 1173.253906 233.09375 1177.039062 232.09375 C 1180.816406 231.089844 1184.773438 233.664062 1185.675781 237.875 C 1191.46875 264.855469 1191.46875 292.761719 1185.675781 319.746094 C 1184.773438 323.953125 1180.816406 326.527344 1177.039062 325.527344 Z M 1177.039062 325.527344 " fill-opacity="1" fill-rule="nonzero"/><g clip-path="url(#87223d9e55)"><path fill="#000000" d="M 1170.390625 318.390625 C 1170.390625 317.769531 1170.457031 317.140625 1170.589844 316.503906 C 1175.960938 291.492188 1175.960938 266.121094 1170.589844 241.113281 C 1169.613281 236.542969 1172.300781 232.039062 1176.710938 230.871094 C 1178.796875 230.320312 1180.992188 230.65625 1182.878906 231.816406 C 1184.917969 233.070312 1186.386719 235.179688 1186.90625 237.609375 C 1192.78125 264.945312 1192.78125 292.667969 1186.910156 320.011719 C 1186.390625 322.441406 1184.921875 324.546875 1182.882812 325.800781 C 1180.992188 326.964844 1178.800781 327.300781 1176.71875 326.746094 C 1172.910156 325.742188 1170.390625 322.265625 1170.390625 318.390625 Z M 1177.148438 278.8125 C 1177.148438 291.585938 1175.785156 304.355469 1173.058594 317.039062 C 1172.363281 320.289062 1174.253906 323.480469 1177.359375 324.308594 C 1178.765625 324.679688 1180.257812 324.449219 1181.554688 323.652344 C 1183.007812 322.761719 1184.054688 321.242188 1184.4375 319.484375 C 1190.234375 292.492188 1190.234375 265.128906 1184.4375 238.144531 C 1184.0625 236.386719 1183.007812 234.867188 1181.554688 233.976562 C 1180.257812 233.179688 1178.765625 232.949219 1177.359375 233.320312 C 1174.253906 234.140625 1172.363281 237.339844 1173.058594 240.589844 C 1175.785156 253.261719 1177.148438 266.039062 1177.148438 278.8125 Z M 1177.148438 278.8125 " fill-opacity="1" fill-rule="nonzero"/></g><path fill="#f5f5dc" d="M 14.429688 295.0625 L 14.429688 283.335938 L 27.574219 283.335938 L 27.574219 295.0625 Z M 14.429688 295.0625 " fill-opacity="1" fill-rule="nonzero"/><path fill="#000000" d="M 28.84375 282.074219 L 28.84375 296.332031 L 13.167969 296.332031 L 13.167969 282.074219 Z M 26.3125 293.800781 L 26.3125 284.605469 L 15.699219 284.605469 L 15.699219 293.800781 Z M 26.3125 293.800781 " fill-opacity="1" fill-rule="nonzero"/><path fill="#f5f5dc" d="M 14.429688 255.011719 L 14.429688 243.285156 L 27.574219 243.285156 L 27.574219 255.011719 Z M 14.429688 255.011719 " fill-opacity="1" fill-rule="nonzero"/><path fill="#000000" d="M 28.84375 242.023438 L 28.84375 256.28125 L 13.167969 256.28125 L 13.167969 242.023438 Z M 26.3125 253.75 L 26.3125 244.550781 L 15.699219 244.550781 L 15.699219 253.75 Z M 26.3125 253.75 " fill-opacity="1" fill-rule="nonzero"/><path fill="#f5f5dc" d="M 50.535156 222.253906 L 103.742188 213.910156 C 117.542969 211.746094 129.542969 218.933594 129.542969 230.125 L 129.542969 308.378906 C 129.542969 319.570312 117.542969 326.757812 103.742188 324.59375 L 50.535156 316.25 C 37.613281 314.226562 27.9375 303.347656 27.9375 291.808594 L 27.9375 246.691406 C 27.9375 235.15625 37.613281 224.277344 50.535156 222.253906 Z M 50.535156 222.253906 " fill-opacity="1" fill-rule="nonzero"/><g clip-path="url(#d10de44d05)"><path fill="#000000" d="M 130.8125 230.125 L 130.8125 308.378906 C 130.8125 313.136719 128.734375 317.535156 124.964844 320.761719 C 119.742188 325.230469 111.734375 327.128906 103.546875 325.84375 L 50.339844 317.5 C 37.070312 315.417969 26.671875 304.136719 26.671875 291.8125 L 26.671875 246.695312 C 26.671875 234.371094 37.070312 223.085938 50.339844 221.007812 L 103.550781 212.660156 C 111.742188 211.378906 119.746094 213.277344 124.96875 217.742188 C 128.734375 220.960938 130.8125 225.359375 130.8125 230.125 Z M 29.199219 291.8125 C 29.199219 302.921875 38.65625 313.109375 50.730469 315 L 103.9375 323.34375 C 111.40625 324.515625 118.652344 322.832031 123.316406 318.839844 C 126.5625 316.0625 128.28125 312.441406 128.28125 308.375 L 128.28125 230.121094 C 128.28125 226.050781 126.5625 222.433594 123.324219 219.660156 C 118.660156 215.667969 111.410156 213.984375 103.941406 215.15625 L 50.730469 223.503906 C 38.65625 225.394531 29.199219 235.582031 29.199219 246.691406 Z M 29.199219 291.8125 " fill-opacity="1" fill-rule="nonzero"/></g><path fill="#f5f5dc" d="M 17.304688 222.535156 C 21.089844 223.539062 23.34375 227.445312 22.515625 231.292969 C 17.140625 256.316406 17.140625 282.195312 22.515625 307.210938 C 23.34375 311.058594 21.089844 314.964844 17.304688 315.96875 C 13.527344 316.96875 9.570312 314.394531 8.667969 310.1875 C 2.875 283.207031 2.875 255.296875 8.667969 228.316406 C 9.570312 224.109375 13.527344 221.535156 17.304688 222.535156 Z M 17.304688 222.535156 " fill-opacity="1" fill-rule="nonzero"/><path fill="#000000" d="M 23.953125 229.667969 C 23.953125 230.289062 23.886719 230.921875 23.753906 231.558594 C 18.382812 256.570312 18.382812 281.9375 23.753906 306.945312 C 24.730469 311.519531 22.046875 316.023438 17.632812 317.191406 C 15.546875 317.742188 13.351562 317.40625 11.464844 316.242188 C 9.425781 314.992188 7.957031 312.882812 7.4375 310.453125 C 1.5625 283.117188 1.5625 255.394531 7.433594 228.050781 C 7.953125 225.621094 9.421875 223.511719 11.460938 222.261719 C 13.351562 221.097656 15.542969 220.761719 17.625 221.3125 C 21.433594 222.320312 23.953125 225.796875 23.953125 229.667969 Z M 17.195312 269.25 C 17.195312 256.476562 18.558594 243.707031 21.285156 231.023438 C 21.980469 227.769531 20.089844 224.578125 16.984375 223.753906 C 15.578125 223.382812 14.085938 223.613281 12.789062 224.410156 C 11.335938 225.300781 10.289062 226.820312 9.90625 228.578125 C 4.109375 255.566406 4.109375 282.929688 9.90625 309.917969 C 10.28125 311.675781 11.335938 313.191406 12.789062 314.085938 C 14.085938 314.882812 15.578125 315.113281 16.984375 314.742188 C 20.089844 313.917969 21.980469 310.722656 21.285156 307.472656 C 18.558594 294.796875 17.195312 282.023438 17.195312 269.25 Z M 17.195312 269.25 " fill-opacity="1" fill-rule="nonzero"/></g></g></svg>